<mxfile host="app.diagrams.net" agent="Mozilla/5.0 (Windows NT 10.0; Win64; x64) AppleWebKit/537.36 (KHTML, like Gecko) Chrome/138.0.0.0 Safari/537.36 Edg/138.0.0.0" version="28.0.6">
  <diagram name="第 1 页" id="ttg0JcNBdOg7YgK5rOuQ">
    <mxGraphModel dx="1418" dy="786" grid="1" gridSize="10" guides="1" tooltips="1" connect="1" arrows="1" fold="1" page="1" pageScale="1" pageWidth="827" pageHeight="1169" math="0" shadow="0">
      <root>
        <mxCell id="0" />
        <mxCell id="1" parent="0" />
        <mxCell id="z2YyQgFQYphJJJYKpOAV-1" value="" style="shape=image;verticalLabelPosition=bottom;labelBackgroundColor=default;verticalAlign=top;aspect=fixed;imageAspect=0;image=data:image/png,iVBORw0KGgoAAAANSUhEUgAAAL0AAAC8CAIAAACi6TjCAAAgAElEQVR4Aey9h3cT196off+Q7953vS2n56SfnPTeSUIIKYSSAKGT0HtJ6L1jMDYY925LLpItq3dZktV7783q0lRJ862RbGOwARmUCAhrPUtrtLVnzy7P/PaeGVn+Pxks85jHPTDTHvg/M93hcf7HPZDBMo+9eRxu76UHHipvsgiaSiDxaCaH3nLSozkUScSQdCKTRW75qPAWzcBIIobCwE375lA0EUWS8dvthe+bQ5FkDBkNoig0bcl3SswiaDqJH3TSYgBFISQRRRFwcuJDt/0weYPEo8kTJ+Orf0a8npuGH8sgAV9i/abEL/uRcHDaMYCt5sTGrSCdMXlHNBZJ7NyTPHEajYxOu1cGy6DpZPLchdgns2Gz6XZ5bpeOeNzJQ0dAGn1yBmh4OL76Z5DFupOskzybvO+Ds/1QeZOKp65eC//1mfjPG9Ho6IQBaDqRrroa/tsziT2/IuHQtJ2bqr4W+/RLkMGY/CkaDiUWL09u3YmGApPTJ2+jqUTyyPHYx5/DFvNN6Yko0NmZrqq+icZGxOOayAbrdbH3PklXXZ1IyWTg1LET0ZffBIeGJup/49MHXpeJqj4k3iAQEvAhXjekViV37g3/+Smgm4A47YjPg3hc4MBA9JW341/Ph1RKxOtGfB4USE20EN+A0vGFS+I/rkSiN8WVvDfLklt3TOMNCgEDg7HZX0c//TLy7EvhP/0z+uFnsdlfxz6bG5vzLchiIS5H7POvoi++Hn3rg+jbH0bf+jD60puR19+FhMKJQ+PevPtx+kr1RAoS8sc+nRNfuARWKlC/91ZGgw+LTA+HN7DJGPtuUfSjz2OfzI6+9k7kT0/io/XR59H3Z0U//Czy2jvh//l75IVXY598EfsYT8TP5gw8MVqQUBB97d3UmfOwxQxr1BNAfH5s7rz4j6sgLnciEd+wWdB0ApLJUsdPJfcfCj/3cvSVt5P7D6WOn4qvWBN56kVgcBBx2qPvfZI6dQbPbzbBel366rXIsy9BPC6+JPJ7YasFpNKir7+bOnIctloQpwOBgfS1msg/X4g8+Xzsw09jH39+C4mf1t9q/IMagR4Sb1TKyHMvx3/4MX25coLElh3hPz0ZX7YqdfHSjcQNm8N/+ifY0ZEZX8aiCJg8diLy3MtAT09y/+H43O/GmPNtbNac8N+fjTz9YmzWnPiX8yY+Su7+FXE6CtohAV/kxdfiy1ajqUQGy4C9fZEXXsXjTd4boL4RBZL4MgiFgL6+MW9QKHWhIr54eWzuvHBe8fgPyxJbdoAiYWzWF9HP5iaPnkgdPzWZ5KGj0fc+iX08u3CUCeMf2I2HyZv05SoUAScAGYzIU/9K1zWgQOpGIokceepfN7zJobDDFvv0y+gHsyCFHOjqTp0+i3PqbGzewvD//j3yl6ciTzwZeebfiR17xj46fRZobUdG8+vrHAoJBOEnnkweOloQEWjvjDz7b0jAv5M3GQQgkVIXKhKbtkX+8nRs4eLU+YupK9XJPb9Gnn8F6OlFgSQSCiDJGL40zoNEw4mfNsRmf42mcQsffB4mbxKbtwFDQxOkzpwL/+XpxM69wMDARGLy2MnwX5+e8AZFwHRLa/g//xL77EvE5ZwYJxRIxlf/HH3pzdiHn0dnfRn98DOgtW3iU3wjP3gomEodPhb+y9Mgn5fJopkskq6rjzz/KiyRjM1T5y/AZhPidiJ2W6q2fizeYJlCZqCxOfLMi+nKKjQDwxZz9M0Pkjv3IqEgbDQk9x0EyKQJP9DwaGL1utjX3xWi10T6A7vxMHkTeebf0Xc+vsG/3wj/x58iz70cffujG4kvvh7+jz+NeZNFYIsp+ub74f/7v7g3bufEMEBabfStD5I79sS/np/4aUP8u+/jy1ffMmYoCoEcdvSdj+NLVyDhEOxz4xfzW7ZHP/wM1mkK3kT+9Wrsg/xK5cPP8HVxYX1TCBhZJLFxa/jPT8W3bIetFthpT+07BBv1KJhOVV2NvPwm0NU1UR8kGIgvXxP77vtb6jCR4UHbeJi8SR09gdisEwDtneF/PJc6mz/jx9PTDY3hJ58veIMmYomdeyL/eC76+nuTvUFRKF1bF/7zPwE6Pf790sTGraljJyKvvg3x+TeGJ4uAQiG+9H7vE8RhB9ns6Kw5kTfeD//lKfy6PRoueJPcugMgEAESCejtTe4/ONkb2OWIffJF+D+eCP/16dicb/GwlE6iKISv8efOi/+wDAn6J66eEJ8nvnRF/IcfH6+LSzlJw/l1cerMeTQUmADs6488+XyqsgrxeycSgY6uyD9fKHgDq1XRDz5N7Pk1vmbdDW9yKGKzxD6dk1i7AbaY44vzK1Y6PfrG+8mde1Fw7AIeTUSTe/ZF3/0E6O3LZBHYakmdOJ08cDjd0ARJJamz51NVVUBrO6RUoFAaRSEUAWGzKd3aht+TxDL4fZqqq5HX3w3//bn4ijWxL76Jfjwbksvxma6+IfLCq+nrtUBtXXLvr/gqB8sgLkf8+6XxH1dNVOCGwQ/kcudhijfR92clVv00AX618l9/jX70eWLF2huJs78O/9dfC94go8HUuQuQw5bYtHXCGzQRS527GHnuZZBGQ4L+xGL8/g1sMSXPXYi88jY0LEILi5sMDOu0IIs9FgAy+ScG6QQKpRGzKfb1/MTWHSgEoOiNq/1MBkEhoLA2woPK7K/jP66KvvxW+kIFyOPGFy4GqVTY6YjN/z6xfhNss6bbOyIvvg7S6WgWQezW+PzvE6t+RsH0A25MoXoPiTdqVfTlN2Nzvkls3zVBfNHS8P/8LTbn28TWHROJsYVLwn97GuzqzqBwJoug0TAKphObt415k0VAGi3y+jvxFWuRcHDivh8S9EFqVfTDz+Jz5+H3hbMICgMgg5E6e2Eqyb37Iy++Fv3g06kf4SnnK2CzJV11NfrSm+kr1bG3P0xfqcanJ6MBCYdSx07GZs8FOexMFkHcjtjc7xKrf8YXTyZT/JsFiXWbUOixN6ULsIjXkzpzFqTTkNHgBEA/Pk+lr+Dz1EQiJBEnT5yCFPiMUDgzbnjjtOPDs3Rl9K0PQB4vk0MnvMGnOSidvnoNX8Zu2ALbbWgqkb5aE/9mwWRic+dFX3sn/Nenw//55/B//zXy1L9is7+KfT1/cp74d4tA0XBi3abkzj0QizVxvxhFQJBEjrz8VnzlWkgkghVySCxK/now8tdnwJ4eSCGPffltYvP2DHTTQ9AHNvY86PEGTSVgpQISi6eSrr4W/tuzyUNHIKFw6qewbAQZxZ86jXnz6ZegSJjYsjPywqupCxchswHkcUEyOfb53NiiJUA/CeRxIclwbNGS8J+eTGzbAdutKJhC04kxUnE0EYUEAvzq/aPPI8+8FHnlreisOenGJtjrQVPxGznTCRQGgK5OSCqFddoJb5B4JL58Tfj/PRF5+sXIi69H/vVa5IVXI8+/Gv7zU9E5XwNkcmz2V8kduzM3Pzx/7M09LpNhrSb27cLo6+9OJfL8K/lh+Ff0tXemfhqd9QUwMDDhTfSjzxIbtkSefCHxy37YaU8ePhp54ZXIcy+F//tv4Sf+EXn2pcgLr6TOnoeNhvjSFZF/vQpSKBNfnEBzKBoJp1vbYvMWJdZvAQcG8LXLT+vTLa3Rtz9IHjgM63UoDE5cHOEHBZIolJ78fAq/oUzsSf56IF1xOV3fCHR2gf0kkEZPHjuRWPUT0NER++SL5C/7M/DD8f2KBz7epJOQXgeqlFNJ1dXj8ebYSVAum/opqFUjEfzZeCHeRD/5InnuQvKX/choAP8uTiwC+7yQThv7dlF87XpIo4Z9XiQeRXMo7HUDbBYci4xNc1kE9jgTS1eE/+uvyV8PIqEAbDbHvvgmsXkrmoEhkTD6+ruRV99O11xHE9FbwsNkb/CaZBD8yiuL3GQYAqFgGr/mf+ej5OGjmYfkezkPujf4KiSLTAvIYuHPGeobURiYNkNheCbmKdhqxu/i51C8zDzIaBC/Dt+6Awn60Xw6PvA5FB/dDIx43SCTkdj1S+TpF6Ozvkg3NSMR/MsbiGXMm7wKMCiT4ZHs1Xei732S3H8I7OufuDFzizc3rMoiaDKOg+BRCgVT6bqGyD+eS1+vm/w49kb+0q0US1XmA+/N7bsM4nBwbxqbJh5hTtspN9bFrhv3iws5J6+Lb9kXTSdSFyoiz70Uef3d5OFjkEqJX+nk8Nl2sjf4XlkEGQ0CA4OJjVsj/3ot+v4nsMNeuJi/nTcokExfvpJYuTaxYUty2874zxsjr78bffUdSCCYHIpuqdID9fZh9obPj7zyNtDWfhdvoHTy1wPxhUsQr/uWrkcjo4mfNyT3HUQLTzEnO5qBQaEwdeY8xOMh8bE5q7A7YrPGFyxO7N57U2kohPg8IIcDstkTN3UQkzE+51ugrv6mnPmH56ljJ6OvvhN9+c3oS29EX38XX5sTCGgCvwf4UPAQe4O4nOnrdbBGPXHJPW2P46uQESnIYk591IxCAMjlQhLx9HdpUQhNTfPVYyQaBgjEW746OHboLDJ5okGjYbC/H9Zpp1YMHQ3CVjOs1+FLK6sFv+X9kNy5KbTlIfZm6mA8TvndeuCxNw/HvPC7CVHkgR5789ibe+mBx97cS68VeVI+wtkee/PYm3vpgcfe3EuvPcKBpMimPfbmsTf30gOPvjdoDk1DaafHqdVr1Dq1Rq9x+9xA/rEzmkNHo6Mmq8ntc/uCPr1Jr9ap1Tq13WVPgyn8yQOWSYEpu8tusVuC4aDFbtHkC9Gb9NFEFBn/qkaR5+ijlO0R9wbNoRAKWe2Wzu6OCxXnz54/c/DIweqaapPFCGdgEAF5Qt6vB36tqKzo6O64fOXSmXOnjxw7fO7C2RHFSCKdQHOozWm7fOXS/kP7OwmdNXU1Z8+fOXHq+P6D+8gUcigcLLj1KAlRZFsefW9SYEqmGBmiD/GFPOGw4FJlxfJVy+sa66LxSBpKE3sJsz6bNWfunPMV52lMGl/Ia21vWbp86aGjh3QGLZpDNXrN+o3rXnntlZ17dhJ7CTwBd2BoYMv2LctXLhuiUQpxq8i+fpSyPfrewBk4Go/EkjE4A6ehNIU6uPCHhes3rrM5rAVvPv/is9U/rR5RjKShNJpFQpHQ+YrzS5ctIfQSkCxS8OaDjz/o7O4IRUJIFkkCSTqTtmDRgsNHD4Vj4T9myHnEvcG/9pCBXV6nUCzk8DnkQfLGzRv+/cq/l61cZrIYC958+903lyorRqOjBQPgDEyhUVauWVl9rQpCIY1OvXHzhhWrlusMWij/t8NIFnG4HVt3bF2/ab3H7xn7HvtD8jyyVDHvEfcGRiG313Wh4vzCHxZu2LT+xKnjm7du+uCj95evWj7hzYJF81vamuOpeKFP0RzK4rKWr1x2+uwpAAbUeW82b9vsdDsKC2E0h/qCvt2/7F66fKndZf9jro4fZW/QHJpMJ6n0oW/mfb1o8aKauhqVRskX8Tdu2bhy9YoJb75bMK+huSGW/zumDJaBM/AAhbzoh4Vnzp+Z8Gbjlo12p62gCB5vXPb1G9cvWbbEMS5Tqc7jh6WcR9ybcDRc31j3xZeza+quubwuCIX0Rv2WrZtXTPLmq2/mHjl+pDDjoFkkkYpfr6tZtHhRU0sjnIE1es2GTesX/rBQPCIGYADNoSAMSGSSRYsX7dy9IzAaeLy+uZf7Pw/y+YHm0Gg82tnd8dW3X9XWX3f73IGQv5vY9c28ryevbz79/NOFPyykMqj+kD8cC8uUsp27d27buU0sHZ64nnrznTerr1VZbOZwLGx1WKuvVS1e+kNrR2tq/O87H+R++C3q9ijHm0w+Nqi0qi3bNm/ftb2xpbGlveXUmZPzF81ft3Gd2WYurIs/nf3pvAXzTpw+0dLe0t7Zdvrc6d17d/WSegsr5cL11Nvvvb1z947r9dfbu9qrr1Xt2LW94vJFi93yx1zcPPq/Q4vm0BSY4vI5l6suV1ZXXqu9RqFRiL2ETkJncDRQ8Obrb786dORgS3vLtdprldWV1TXVXD4nHAsjWaQQbzZsWr/4x8VNrY11jXVXrl65cvUKsZfgcDvgST/p9Vuc0w9ymY90vMEyhb9bKNwaBhEQREA4A0MoBKEQkkUmrsMvV10OhoOFDIU8hVVLwZuNmzesXLNSo9ekoXQhD4RCf8xlzYTKj7g3E+2cdgOAAWIv4dvvvqmsuhyOhafmmeyN3qT/IweYWzrnj+7NAIW8fOWy6/XXb+eN3qTf88vuLdu3FB5p3dJ9f9i3f2hv4AxstppIgySFSpG+zZ8ThCIhFpdFZ9Imbij/YV2Z3PA/tDf4H1xmETgD3+GyCP/L3wwMZ+A/+IJmsjSP/vXULa19/LZUPfBHjzel6sc/WjmPvXnU7pL/PgaX0Bs0gz3mAeyB3+TEuE9vCt2EZDAkg8EZDMoDZrDHlLcHCgMB5QcFGT+fSynQ/XsDozkAyaWQXBzJxaBcFMyGwWzoMeXrgVEwG4azUSQbQ3IJJJdGc2BeoFv/2dv9zGj34M2NGINiEJxNp6DRSMoZihv9Ua07onCEJLaAwBbgP6YcPSCwBYSOkNQTUfmj2lDcHE25ADgMZ9MoPhtMxJ77dWhG3ozNR3AuDWaicdAbjFucQZXRKdJYmHIjRarrF2t7ROouvrKdp2h7TFl6gK9oF6kJYm2vVEdSGIc0FpbZLXaHNKMJWxIOQNkEkgMmzV/3OHkV6w2KISgGIzkAzMZjgNcVUumcLJmxX6juFGu7lRayxk41uFkWH88eFLkiEk905DG/fw+4IyPOsNQWEJq8XJ2LobZTFRbysJYg0nQrTAMmN88b0SfBAJRJojkQHQs/96JOMd7gExOag6BsIgF53SG11s6V6slSQ7/GQbGGON6EOJCWhwB1GNRFYUMcMScz1mTGnsw4HvO794A9gdpisDkCGcKgNgSqA2mFJyGxBNgq26BU1yfVkQ1Ovi+qT8IBOJtC8auZe5mz7uoNmsEjDQhl46NJu97BwwOgod/s4/oS8lFIG0UN8Yw5njEnMpZExpbAdSngSGacjylHD9gTGXt+LGyJjDWescSz5ihiGAW1vrjc4GaJdb1SA8nskcRBL5JN5tc9hTXrDALPXb1BkByQRsKBmEljY0v1ZJ2L4UvKIpAujprjeLVwV27WpRBmHktTrh6YCPP4CZzI2ON5EhlbHLWEYZ0nLlHbqTL9gMEpHE3YADSK4vdNpv//2be75rqDN3ikgbPpJBRyh7QqC0NtozrC4hCojaGmfHSx5qV2JDKPeSh6wJ4PP+YoYgym1dagQGkZ0tk5vogBQKJornC1VWzIub03OQTNgUko5AyqVGa6xk7zJEbCiDGWsRX8HX91xDOPeVh6YCz2xFFrGNY7wsNq65DawvCGDSAaH1enqOXO9N6gORTJQgAa9YS0cuOQ1kn3pxRR1BTDJyb7Y1Ee/h6wxzPWKGJwx8Rq+6DSRA3ELBAaR3IQWtwyeRpv0ByCZGEAiYcSZqWJprRSfClZPGvMr2YelhPrcT3v2gP2eNYSRQ2umHjE0Key0EeTDiCTQHJwMepM9SZ/yY0mQ3Gn0kRVWsmumDiKFqR5HGnuOhgPVwZbPGuJIAb7qECsIxicgkjKDWVSSG7SP2O7zd+9T+MNkk2n4IDBIeQpOq0hXhjWx/Ar7cKy5uHql8e1vXMP2OIZayxjDsNavZsmUhHtfnkaGUXw51l3WSDf6g2Sg9NI1B81CJTdGsdQEFBGUWMsY4llbLGM/TGPXA/YYhlLFDUG0gqRtktuHBpN2KBMAsVDzp0WyDd5k/8uLRBNe7U2jkDV5oyKIog+hppjqCWG2h7zKPaAFR/cjCmK6vQ+mkhDMLslSTAEZ4A7/4eRSd7gPxUDpeGYJ2QQKIhya08QVODBZswbawx9zCPZA5YYao5mDN60RGrslWgo/ogVhBNo9k6rnBve4D+Fl0nHAL/OLuDKO8xBZhjVRjOmfLCxPH59tHsgiprCiFrvpnOlHWaXJAkG4Qx4hz/huOFN/to7FopbxOp+kbrblxqJZgzRTGGSeuzNI94DUdQcRfWu6DBT3KgwDEWSDggd+0XVadfIk7zJQAkw5AwqObI2hZUURjSxjDGWMT3mD9MDRn9axle3i1REb1gPQAkkA99ulTPmDZpFIASIpHxaO4ctazb6adGM/rE3fxhjxqJDCFIo7f1cWavVI00CUfj2P59wwxsASY/GXTI9hS1vsoZZj735o0kTy5hCsNLgp7CkjXobP5YavcPPbtzwJg2n/BGbSNXLVTQ549y8N48nqT9WD4wiSmuYQZfUKYzMcNxf+F26O61v4AycBBKeoJkz0slTNXlT/GhGH82YfitQUxQxxcpHFMErgIOOc+fG5rPFEFMCNiZhQ7rcpGBDAjbGkNIOkDGMqlwJLl1cO6KlBiLeFJS63a/s5uNNDoVRKJ6KOf16hrhVoG32g8IIqougxtKDGMOwMZjWeaJqd0RVXlwRpSemDgGGCGLEuWN7o7AxARpSSQ0QUUBhOVxGInIwqkgnVHFQF0EMee5S+Ts3beLTMKrygwLacI1IRfaPulNgCl8aT/fMYcwbCIWiyajNo6EKGoT65hAy/Jt4gxhHIcMoZJDoqDVN5y5dO14uKq4dr7h2/FLN8RZCpcEpjEDG6J3VQYxxyJCMqdwaioHRZKY1WsqHldZoZjS65H3RqCwM63EQw8TY389GGFUFICF1+JpQ2e8LOlNAMd4kIhaXisKrExmawxlxBNVGUENJMYZhfQjQBdPaq82nv54/66eNK9ZtXl0Wft68+ufNq1etWzp/6exBdvtoWh+G9PiJO12T8VGB9Ym0NuEdFnReoFzaL2o4J2o4L2q48PszXH9OWneGXXmA1XDc5+SFAM0oVPBm+spP26LbJYZRZcEbgbzPE3AkgeTd400kETG7VIO8WpGhJe+NJoLqSwliGIX0gbTGF1efvLh347a1Ss2IzqQpC1qTWmtS88TMpau+a++95k9oRwFtBNZN294wog+DukRCFbNzufUnNH0NsFkOm5WwWVUGTIqMQeocaqdWHXSY6IG0OgRow7A+gpRgsPLeCKjD1/jyXo/fXrw3StwbfXM4MxxBS+6NfhTU+ZNq56jsyOmd23dtcrjtvpC3LHhDXk/Io9TLl61Z2NRZ6Ykogyl1GNJO9SaM6kcR3SigjUXlowY6p+aogdyGucyYy1oenGbMrnMxe6mXD1o0g564PIiHHF24NN4o/BCfOnx1ht44cW+E+ubRjCiMqCOIroSEYV0I1HgTCotv+MDxLdt2brK77N6Atyx4Al53wKPQypauWljbctEeGPEnFSFQM7W9YUQXgrXBtCYyOuJXD7KqDxtIrZjThDmt5cFhxmw6N6OHcnG/Tt7vjEgDafUopA3D2qmVn2lKGJX7QR5VNHNvBni1An1zEBWNIuowoislsC4IqF1Rmd7J++Xwxq07N1rtFo/P/fvj9rldPpfL75JrpItXzq9uOGv2DHvi8hComdre0bw3gbQ6GBx2yfoYVw4a+1swuwGzm8qEEbNo3DQi5cKvajHBFhr2pZQhUDMKa6dWfqYpo4jsfr0JIapRRFtaAoDKFZFqHew9B9dv3rHRYre4vK6y4PS6nF6nTC1dvOK7ytrTBrcw7416antDiDYIafwppd8vdEh76Jf3G/ubczZdzmYoD1Y9Zla5qd2D5/cqRF2WgNCbUgRBdQjWTK38zFPuwxshHm+EIUQ5imhKCawOAEpXRKKxs3fj3mww28xlkcaVl2aSNycNboEnPhIEVFPbG4I1QUjtTyn8foFDSsS96WvKWcvojQ4z5b05t1ch7DAHBJ6kPAipQrB6auVnnnJf3jSF8t6EEU0JCcFqP6B0jnuzaft6k9XkcDvKgt3tsLvtIyrJ4uXzKmtPGt18T1waABVT2zsKq4OQyp9SBPx8h5TAuLTf2NuIWbSYRVcezFrMqHAPdQ6c2zPujSwIKUdh9dTKzzQlhEh9IGdIdJU3s+sppzK/vmkMooKSx5sgrPYBSkdEos7Hm03b1hstRrvLXhZsLrvNZZMoxD/g3pwwuPnuuNQPKqaeoCFYHch745/whtiAmdSYSVMejCpML3NTOiZ7E4CUJYk3QUTqBTmUYdwb9wyuw2/2JoRoSsiYN9ExbzZuXWcw6W0O6++P1WG1Oq0Wp0UsFy1a/u1kb6a2N3irN/uMhHrMoMQMqvKgV2BaqXugfXAi3qRkAUgZhNVTKz/TlCAq9UKPvbmNlLg3joI3QtybuhvxZmpHj3sjH483+4zddZhBkVdHWfxrTq+8Cdy8e0Ivx70htw+eHZ+n/jDesHYfWL9x6896g85qs/z+WGwWs91isptFI4JFy765XHvc4Bqbp27vjczv59sl3fSKX3Fv9HJMryiSnE4ekwq0/QRJe2OBkc5mC5UEaWS5ogu5cSydHFNLPOQ2ytndCmG7OcD3pEYe7Xij8gEKBz5P4d5s2PKz1qAx20z3hkgs7Cf3DdEoSrXCbJ1ZISabyYhjFEp5497wCuub23ij9Kdlfj9vzJuuOkw7gmllRYKopdKu1vXfzPn+3Te2zJu7fcE3m+fN3b9iiaClPi0fzmmKLWfscJoRTDXsIbVSzu6WCx4wbwIIPwjLg7C6pCjz3ojVdtauA+vWb/5JrVObrKaZYjAbdEbt6bOnPv/iswXfL+gkdOqMupkWYrQajVajQMpb9GM+3ri57rjEDyiCsGpKk1UBaLI3vxi7ajGttEhpMK0MVkroddWz/vXMDx+9233xDLW2qunYwZWzZ636fJaJTERVkuKLwnNqpJhK5OnHvVGMe+MHp635TIdPFUAkHpA9JKq+l3UxX98YQHhBWBaEFaXFB8gd0eGCN+s2r1VpVQazYaboTXqhWPjdgnn/8Z//73+e+O/9h/ZLZJIZF2I26M16vpi7cMKbhNgPTtPkAKTwg4rxeNNFr9hr7KzB1BJMLS0SWCgruEEAACAASURBVDFMvV71yQtPb1v4rZNNTSrFVsbgoZ9Wv/LE/7CvV0IjgiLLGcumkmAKoaeveejsbqWgzRzgeVJSPygPQCUYrAAiLngz4+dTA7zacW9GSitNEFYUvFHZmbsOrFu3aY1KM2Nv9Ca9Rq9pbm166dWXnn/x+Sf+/L9fffsVaaBfb9LPSB2dWa8z63nDnAVLx+NNsd7sMXZcxZQiTDlcJJBMSK25MuuFp3Yu+sbHHoJVEi+Xdnbbxlef+G9mdQUk4WFKcZFF4dkUIkzG8/Q2Us7sVAjaTLg3Ej8oC0Dy+x+vB9YbmT0iUtoYuw78/PPGNQq1QmfUzQitQSsZEW/dvuUfT/1j6bIlb7371vMvPl9ZXanSqmZWjlGnMWo5ItaCpV9frj2ud3Hdd/XGx7NLupgVe0zt1ZhcgMmFRQJJ+dSayk+ef2r7gq8cdHJsmCNtb9i+aN6Cd95Qd7WiUgEmFxVZFJ5NJsCkXE9PA+XMDoWw1Rjg/hG8GbFHhEobPe/NaoVKrjNoZ4RKoyRTyLM+n/X2e2+fu3hu1dpVf3/yb9t3bhOI+MWXozVoNQatxqjhCFkLlnxV8MYVv8M8JfenR/w+7pg3bVWYjI+PX3FAEi7t2uUPn31y3usv1x7Y03Jk3/4fFy356L26w/tHufTsiBCT5W0orjRshI9J2B5i/RDuTYsxwHnEvQlAch9wkzdypUyr18yIEbm06lrVP5/55/KVy0gD/dU11a+98ernX3zW2d2h0amLL0pt0KgNao6QecOb2LAPmGZqzq9vZL7UiA/3phOPN61XsBFe8UASDu3apQ+f+cdHT/99/7Ifjq9dsWvRtys///j0pnWmvk5EwsuNCHAbiixTysPELA+hbtwbtjv5SM9TAUjuTUvtEcFEvJEpRjQ6dfGotSoGi75+0/o//eWJo8ePiMRCDp8zf+F3/3z6ySPHDo8UXZpap1bhqFgCxrg3HNdtvZH7QZkvJfH52HZJB7Nit6mlEpNyMCm3SKBhNq264pPnn/p57meyrlY7lTTS0Xh45dL3/vxE3a7NERYlJ+UXWRSeTcLBhhleQi11LN6w3Uk8Uj6y65ubvfnppw2rJDKJUqMsHplSVtdQ+8bbbzz7wrOVVZcZbAadRd+0ZeM//vn3xT8uZrAZxRel0CgVGgWTR58/Nk+xXTHRbeLNLd7sMjVfwobZxQMLmbQrFz997p+75n/lppEhCT8hYNEqz8968i8bPvvA3t+VFXMwMafoAlmYkObtqqGe3p6fp0rvDWX4Xq7Dr/P19QGEE4Sl+Vs48lK9BiDZRLzZeeCntetXztQbwbDg1/2//N//+P+efu7ptevW7ti9Y8fuHd/O//ZPf3nilddebmxplClGilSn4A2DS817c0zvZrviQh8wTZMDkNwPjvhS4rF4c3GXqakCE7EwEbtIYD6TWnnhs2f/ufe7uf6h/oyYiwxzFW0Ni157cfEb/zYS2jJFF5U/IhMT0LydNdRTE94M+8GRACS7/5EKIMMekEUZrrqH+zfX+TrcmwAsyd/CkZXq1Q+NeNMSW36eKngjHhEXOcxKjVKhVvT29y74fsFf/vbnH1f8uH3X9l17d+3au2vT1k2fz/n86eee3vPLbqFYqFAriilToVEoNIq8N3Mv1+LeOHFvJAF45Jb2BiDZDW/EHcyLO01NFzEhAxOyigTm0amXzn/27JO7533pGeqHhjlJPoN15cIXT/1tw6z37T0d2aKLyh+RgfGHvB1XcW8ELcYA25UU+UBpALq15rc05K5vA/BIABZ6QCZl+ApP3lP88/Cw2akY4NXwdHVemOWDxX54pIT4oBE3ILFGBAobbeeBn9asWzEsEcmVsiKRyqUVly++/tbrc76aM0QfEoj4wmGBcFjA5XOqrl556503Z385m8qgjsilRRYoU47Q2EPfLf7y0vWjOhfbERd6AMk07YVGvKDUm483NnE77k3DBYxPw/j0IoE4VGrFmVlP/33T3E81hFYPnazqbDq+csnHf/7vxl2bItTenKDYovAj8mgYd9DbXk09uVUhaDIEWM6kyAtK/JB0msrPcAR9sNAJ0Afv0xsfPFJaxryx03YeWLtm3XKRWDgilxYJi8vavHXTv19+cefuHZIR8cReUpmkf6B/3vx5f3vyb1VXr/AE3ImP7rwhlUuGGIPzfpiT94ZV8Gaa9kJSLyjxpoZ9fqZN0sa8uMNUfx7jDmFcalHwqDCbwr1ybsHLz8/79zOHly44vXrJwR/mbZ79SeWGtS5iW4Y7hPGKK2rsiBSMM+BtvUI9uWXCGw8o8ULSaSo/wxH03q83CB5v7r8et5SQ94avsFN3Hli7+uflwmGBVC4tki5i14LvF8z+cnZ9Y90tu7A4rF8P/PrcC8/u2LWdSh+65dPbvx33pvaozlW0Nxd2mOrOYRwKxhkqkgyb4iG2kA7tadr2c/uujZ27NnXv2co6dzxIJiJsSo5bbDnjh6NgLPK4N42GANOZEj1Q3gz7YGlJkbgBsTXCK3iz6qdlfBFfIpMUCYVGqaisqLpWxeQwb9lFKBb29PecPH2yrqGWzWPf8unt34op9AE83tQe0bmYjrjAA0imaS8k8YJib0rk8zPtkjZWwRv2AMYeLJqBDIsM0PrS1J40tQfIAzFIWfZgjjOIcYovp5BzAGP2e5sr6Se2KAQT3oi90HSVn+EIemHB/cxTtV6E6YNFPlhSWtzA8Jg3B9eu+mkZT8gblg4XiUgi4gl5PCFPJBFN3UUoFnIFXL6IP+2nU/PnU0SDNNK3338x7g3fAwxP015IPOGNo+DN9TMYkzRDyBhrCkzyDAsZPyi9x9tUQT+xedwboQcc9kLiaSo/wxH0wnwnQBscruTJifewLr7uRRi/pTdDOw+uWfnTj1w+RyQWlguhWECm9s3Ym/PbTTWnMHovRu8rD7RejErwNk72RlAyb5AHzxsvJHYDIkuEK7dRdhxYs2LNUjaXVbgm+v1fBcN8wTC/n9L7zaLZl2qPaF0Me4x3p3iTFHl9TIe4lXV+u+naSYzWg9F6y0QPRu32Nly4EW+SJfUGfMDijRcSu9IiS3jMm+WrlzA5TL6QVy54Qm7fAPGbRZ9fqj2iyXvjBqabmvF5atiTFHp9DLu4lX1+u/nqCWyIgA0RywQBo3R568/Tj29SCBr0foYjyS9lvLlvb4T5SypxqV690HDeG04h3ixbvYTBZnAF3PLB6SUTpngzpb03vKHj3pzbbq46hg12YoNd5WGgEyO3e2vP0I9vVAjq9X66I8nzgEIvNHzfIzXsRXjOUngz7INLhhcSudJCS5j9IHnTPcWbKe2Fhr2gyJMUeH1j3piuHMXI7Ri5ozyQ2rH+Vu/10/RjGxT8er2f5khy896I7n+wvAjXCVLvc10suP96TC4h743AEmbJbYM7DqxZtmoxjUnj8Njlgs1j9ZC6vl74WX6eottjXDcgnFzhsW1I5AWFniR/3JttpitHMFIrRmorG/3N3prTjGMblPy6P4w3EZbcNrDjwOofV/5ApQ+xOMxyweQwCP0dXy+Ydan2kMZV8Ga6U2XcG4+PZhc3s89tNV8+hPW1lJPeRt+1k8xjG1QPmjcemO6F+F5IVFpcaYGl4M3+VUtXLKLQKEw2oyww2AwGm97V0zZ3wScV1w9qnHlv0oJp2+sBhe4k3+Oj2sRNrHNbTJcPYj1NWE9zmWjCiPW+6uPMY+tviTfTVn5GiR6Y4wCGBoYv39v9mxoPTPuNvDFHWHIrefv+VUuWLxwYGqAxaeWD2klsnTv/k4vXD6qdNFuM405Pf6q4AYE7yXf7qLbhJubZLaZLBzBiI0YoH911vqpjzKPrlLyxecoNTG/8jKTxQiLcmzTlfryhltwbDyh0pvimMHPESt62f9Xi8nsz1DHmzSGVk2qNsV3TeYMHG4DvSnJd3iHrcBPr7GbzxX1Ydx3WXV8euuqwrhrflSPMoz8r+LVaH9We4LgBfmFpPFNRbsk/7s2le4k3XF2NB6J6IZ4XEt5S7v289YCCSd6s/H7pd8Q+AmmQVCb6SYP9TW31c+Z9fPH6QdybKMuVKlzQ3jQ7j3mT4Ex4Yzq/J9NenWm/Wh7aqjNtV7yXDrKO/KzgX9f6huwJdom8EXogdj7e3Js32mtuiOIBuR5QUFrGvLGRth1c8cY7/169dvnadavKxMo161YuWbngjQ9eqKg7qHYO2XBvpm+yG+C5Ehynj2oSN1HObGD9stJ4YrvpeNkwH98u3rd28PBqGb9WGyh4w/OA/PsfLDfEsqcGBkT35Q0nXxV+CV8L3sjspMqWg4tWzP72h1lfLfz4y/nl4auFH3+75JOVm7/tpFzSuAbHvSkMwE2tdgM8Z4Jj81O1qjZq66Hukz/1HFpN2L+yuxwQ9q/sPbi65/hPA/W/SOXNujFvuKUYJp4bYpbEG54HLCF8V5pnjrAULjJV2tDUd66q5cjF2n3nan75/Tlf88vFun3VbUfaKRe5qjatd9AeZ7nS3Gnbi3uT5JpDdKWZwBPUDPSeJrYeaq/f11ZXBtrr93U3HyITT7K41SOGbkOIak+w3MD0NZ+2OXdIfDC94bkAnjXG1PgGh01dtJGGXs7VLtrljqGLvz+dQxe7aRUkXjVT3iS19OgDQ/b4bXvfDXBdaY45Qle7+kXadrrwOolxmUA5Xy766Jeogmt8dZvC0W8K0x1JzqPuTZprT7CNo1Slu19k6uKoWpmyZsZIQ1lgyht5mlaxuVvjJZsjhd6fPrgWvLHGGfogRe7oFeo6OMpmxkh9eZDVsxRNAl27zNar81MsMaYzxXUD09f8DqFl2o8e0HjjBrjOFNsWZ5rCNI1vQOkiKxz9MlufzNb7OyO398odvSp3v84/aI7Q7Qm2C+DdrvdxbwCuPcW2ROmGEEXjJSudZajzWBfZexXOPrWHrA8OWSIMR/JONZ9WjjsklsQbdv6SilvCVzeIB3xnim1PsCxRpjlMN41BM4XLgDlCs8YY9gTLmWK78evH6cGrDXKdANeexKW3RBn5mpehwoVeMofplijDFmc6kiw3wLlDzW/XotuluyHG/a6L3SDrdqXfRzrHDXLcAMcFcJxpjiPFLi/OFNuZZrsAtgvg3LFRHA/IcUPcfLXxXcpbbUe+2oWau+9S8+nPhNs19n69cUEUN8RyQ9xSw3FBHBfIdQACW1pqTcvKzYg9LXYCAhfIu2NLOe5CtUGeDRSaQbERkBqBkbIBSs2gxAqKHCDPDbLxUxEszUi5IIbtfu7fuCCKC2K7IF5J4bogjhPk2gG+JjLMdUiYFlkeOdPy+yNjWkaY1mGRW6iPie24OtzbNBavtgvi2EGeERBJwyKmV0T1jlC98nIx5JXRfRJRWGxMCZwg2wnivXqbys90BEvgDcsFcUuLE+TY0xxLSkhRD53vIV4iD10hU8rHQCWpp4rcxrPyLMlhB1Do/WmbzHGAHDMgkMeG25QDlZz+q0LmNSG7LFwVsquE7Mt8SqOUJAtzHekJb6at+YwSOS6Ifu/xhqO55gQHnSAz7zK7hK8OgGVLsoxRfiun50w3lax207UuhtbJLAcMrYMs055ub+tXsg0xiT11p5baAbYhJRCExJd5vXUSIdPtZbq9rHLAcHsHPb4GlfI8g8j3sKwJhgNglW6MaNYkaUBUkX+uaSvy/5YV/j78KkdT7QQHfiNvrHGmNsipp/VcJg/Lg5ghnDOHs5ZyYApnZO7Yua7eLglbExZbkywHcBt1AJY9zdIk+Azv8HkWqUun0wMZI5AtCzogJ4ewHrv7DLWfbaNbYjRbqoTq0KzJ/gHRRZ682+2fsTdVTpD8W3hjSzEsMbrSy6gZ6L7UL5YHMEMoZw5lLeXAHMqOOBNnO/paBUx5QGiOMxwAM99qphOcOINZTpBpTzOtKZYyyh+088/QSd06gwHImtLlQZ/OyUGMaPecoPRRjYPGMMWWoDvSpZocqPfvDT3ffaxSvToApi3JMIapI05qdV9HRb9Y5sP0QcwUzJrLgTGYlToSp9t769lDEg/XFKPZ0/Rxbwrq4NI4AIY9zbAkGPJRTr+ZfZLa16U16FNZY5nQpXIjANZt8xwd6B3Q9OuCZGucZk8XpL//wbpfb0hOcHInTpyI977hABi2JEM/ShFZByt72i/2iSVeTBvADH7MWAZyBn9OYk+cauu9zhgQudiGCNWWmqbJeW/o5gRdGmQRDMxjlN4OrVGTyuqSubKgTuYkANZp9Rwh9/QqezR+kiVGtafpDoAxSfp7Hqah+4w3v4k31iRdN0oRWgcuE9suFLzxl8sbTJ/35mRrTw2dLHSxDJGhO3kTp0uCLIKecZTS26ExqpNZbTJXFlTJnDhd8IbYqyCqfX3m2NAj7w1NFx4UWskVxNbzveJhD6byYTofpv/d0fkwrS83bEucbOmpoZFFzuK80eHetGmMymRWncyVBXkyJxrzhtCjIKh9veY45Q/kzblesciNKb2Yxotpy4HGi4ksuDfX894Y7xZvpEEmQUc/SulpVRsUyayyTMiSOWEK67B6DpN/I2/6BkQX7vl66reYp+jW5I14c7ZHLHRhcg+m9uQ0vztqT07lyQnM8RM3eUNzgreuEgrrG0ucJg0yCDraUQqxRa0fSWYUyWxZGEnmBCmszeI5RJrsDa0U6xuGE6RYk7336Q0tvzSml+rVAdCsSap2dEBgIVUQW872iPlOTObOKV1Z1b2QUbkmM+NCFK4M3xw7PuYN0xih2FLUqY11AHR7mmaOUyW4N9SjFGKzSi+No7J4ZiagMnyXCWa0702ZpfEcP4G1mqd6U5KRolhTvQPDM483ZN5VtqbKCZKc4DSdOLVbi0/JezOkDQ3wLf0VxJYzPWKeA5O6MYU7q5wxGaUbVboQpRNROfFXpTujcGcLFFOawp2VuzNcU+xYS881OlngZBgig7fxhmZPU80JqiRA68a96WlS6SVxVBrLjBSHLIrIovBNxJAi952abTiW4yawFrPnIIlAlBNU3h5zfNCepjqA+z/PaU5w8J69qWZprtiBfgcw5ACopcWaHNKOkvmWPtwbopjrwCROTObMyYslK3dmFU5U7kSGTXGeKsBVeHgKL18dlFjSMmdG5szIndkiS5M5Mxxj7GhLb8EbfXTQmhpyALQ8kxs+2ZuhvDcGcTwrjufuiiSWEYchvjvKsvrYE9gCfG9MHIYlsawknpMUUc7kA4niOXYCa7J4DpKJRHm3yks0xwfs6VIN1oA5SSSLzs94fUPmVTNxb/ocAKW00jgAat4b0g1v7JjEmZM5iicrc2RGrKBQFzl3vX/p+gPf/rh13rJtq7efbCaPiK3giDMz4sgWWeCII8Me94bvZNzeG+qkeIN706gyDBfnjTiCUIyeHRdrPl+xfs7qjXPXbv5y7ebvNu/Zd72VpHOKRsfUmazFXbeFY954D/wG3tiB+/CGpal0gL12YNAODJWUG95cJLacIopZdmzYgUkcOWmR2FGuerSqjbFyy7EfNx/ZfODy3tONv5xu3n2yae+ZVgLbLLEhUke2yNIkjizLEDva3HuVTprwxg5Q80xuOO6NKT9PdemGDg8SG5R6YTQrKgLhKNQl1nz8/Yqn3v9s1aHTu67U7bpSv/nCte/3HF326/ETLb2DRq8ojBRT1EQefjTHjGONZs8B0o14Y0tTSjJSDoBkSRLIonMzjjcDvGqWptL+m3gzZElStKN4vLlIaDlFELNsmMiBiR25YpDYM3x9orKV8cm8tV8s2lDRODQw7Obqklxdamgk2EhWDoq9YitaTFGFPMOOLMMQO3KrN5ONyW+nh2wpiilBkQRoXdqhQ4OEWqWeF83wo9m7EwI7RKqP5i/94PsVzXw5yxNjexND1tCVQd7qQ6ffnLd4x6XaIXNAGEbuXtT44bjRHC2GNZg8+0lEgrxb6SUa4wPWFKU06oD37Y0NHLSBQyXEClDMiUHtaD/f0n+B0HKSIGZYMIEdExVFVmxDiCzj4vUH//XO16eu9TCVo0ILLLJlRbac0JLhGUChGRm24m+LKzAnsmfputjhMW/ousiAJUmxAbc22QpQLKlBY3xQHKB2aSm4Nyo9N5rlRXP8u5Dlh8B2keqD+Us+WrqmfUTPD8OCaEYQRlmeRB1LOnvN5pe++O5SP5MXBPLe3LVAPAM7mqPGsTqTZx+J2K3oUvgIhhjZkhq0ApT7Hyz7/Xlz2Q72/BbemJID6tF+nrX3PKHleLeYZsJ4VkxgzRZBRmQGKxqpr3/y/Rffb6JK3SIzLLRmCjsKLdkbFFVa4YgZqjZ6uKkwT9F0EZI5NTC16yd5M5T3hnhdaWBHstxI7m5kuUGoTYh78yHujYEXhnmRDC+S5UcyNGf0WGvv/7781pojZ+jOCC+SuVtpY4djR3JDsQlvOhW+bkOMZEk/KN4QS7u+sQFDVmDQlBxQhfq4lp7zxJbjXeIhI8ax5PjmbBFkOJrYzmPXn35tzs+7zwuNSaEZ4ZszEzsKzNkCEyl33eCZ0SFN9HBjz1V6P89BHfcmf9aOL+zy1Z6IN5RO7eChQWKN0sAKZznh3N3IsoNgi1D5/vwlHyxZ0yo1cEZhztiOWXYQbhGp//H2Rx//uJZkcHNG0buVNnY4ZjhHiWK1Rm8+3nQqfF2GWL8lNVCKeYpy7/GGjK9vLttBoh0g59UZLMmrDRgc96aXY+k5R2w51iWhGDCWCeOacry7kxmS+ldvP/HUa1/sPd0sNIJ8E8ozZYvY8XaFZ7mmDEU14c3QuDeDeKDFrwlw8tUe82bYj3tzYJB4TaFnhLPMcO4ujGaZAaBZoHh//pL3l6xpkhhYIZg5msnvlWWNogSl9aXP574+bzFR42CF0LuUNn44ejg3EMFqjN5fScQuRafc22mI9VlSZFu6FCMF9puT3TNeF5ucChKviqm5ZAMINoBkAwZKhRUYsAIDpiRZFRrz5minZFCPMY05jjHHvQtZrhEdFHtXbD3+zJtz91/o5BtAnhHlGrN32/FOJXOMmUFl5FAjMR9vhnSRflOSXKindbzh+Nv0oCU1YIwPDPspHdrBAxTiVYWeHs4ywrm7MJpl+IEmvuK9+UvfW7K2SWJghmDGaIaB75tlhtBulfWVOd++vXA5UetihtC7lDZ+OGo4R4pg14zeX8iTvEnjNS/FYPWZEl1k0dmZXU+ZnPKCN1aAYAVIVoBcWkxJ0oQ3RzolA3lv2Hl1OHd6zXKMKEMZ2bS/8qnX5247UsvVpzkGlGPM3nEv3MjbwTbm2MbMgDJyEPemj+cY0kX68t5MbfKAJU02xsnD/sEOHe5NtcJAG83SRnN3I0v3gxPeNEoMjCBMH83k981Q/WANZ+TJ92bNWbe9z+inhzJ3K23scEOjuf4IdtXg/WUs3nQYYr2WdKkGq9eY6Jy5Ny45iX+FqamwAt1WoL+00lgBct6bnsI8daRTQtZhDAPGujs5liHD1KQOVRCeefPrr5ftHpIG2HqYZciyDLkpFFMgnodpyJIUkQONPdW0Pp6Dkvdm+iaPezPQrhvYTyFeURgoo9mh0dzdyA75wAae8r3v8HjTIDbQgzAtlMmD9ppHd15t/Z/X3v/5dOWgI0YNZe5W2tjhBkZzvWGs+jf0poMsOjPDePM7eUM8R2w53Cnp12E0PUYvAoY+y9TBNT2KzxZtff6deRcb6DR5jKlFmPosQ59laBGaGmRoEaYuw9Dniikwnyfbr4gcaCjCmxTJGCcN+wfateT9FMIVuX4wlB0MYXeGEsoN+aA6nvKd75a+u/inerGRFkBowSw1gJAd0QuD/PeXb3zj+1WXhkRUL0QposDC4cghrCeMVem9e/t7OuUdcm+7Id5jTk1v/MzP/F5j4t69uWgFukoebyxpkjHRpwoRORbCOWLz4Q5Jnwaj6DCqLkcrAro20y+O7L9I/Nd7C96f+1NFM48sDjO0CF0NdfP8F9ulbSw3TQ3TdNliSqPpclRdplce3j/mzaA23GtKTtP7ljTJnOo3xPtFBW8GCZdlOnIwMxDM3R0vdJ2nenv+srd/+KlepKf5IXoA7TGHD3UMzdmy79VFq/c09PSYw0OB4krLH5EUzBFCWKXOu5dE7JS3y71t+hjRnOov0VR1795UMjUT3pRq1sQXDZZ0f94bwpg37ZIeDTaow4bwISwCbXZIjXRy3DtOtL4z56evVhzYcLB+97me3ed6tp3sXn+kvYZsGlIhVG22mNKGdLkhXaZHFt6Pz1O9PMeAJtxjSvZNXdUVvNHH+oQBUruWtG+w+5JMRwpmyMHcXSF5oat87Tvfr/nHx98sP3Fl2/WubbWEtRcaZm3cN2fboUNd1C5DaMCHkANZcjB719IKGfqCuW7cG89eEqFT3ib3tuqiBHOqrxTekKxAzz3Hm4I3nVagLx9y+kv1akn3GRM9ylA329x9jth8sF1CVGFkLTaozVGKJUtRQURh6GK7ePWe6nk/H5+/7sSiDac3HGq63K3ql6YomkzRReUGtRmCLLKvHveG4yCrI0RTsndqYy3pfnOqTxfrFQZIbdr+XyndF0d0fQG0P5C9Oz60UeVefbbmgzXbv9h6YO7OI3N3Hv1676n1l1sqeZoee5zkL66cScfqDeQ6g9glrWdPP6ED96ZFF+s2p3ot6ZKMF/H+vZmmE6d2a/EpY94Eu1jmrrPE5gNtkm4lRtJgAxpssHjUuUF1hiwHO7n+Frq9hW5tpVs7OT7SCDCIf5QrsqgB/LjZbulMvPH3F7y5INMRg5meYK73zgRyvf5sjwds0Qfq5bYGubVRbm2Q2xoUznZjqNcD9Qazee5Wzs1HIQRz7UGsQuvZ3U9ol7fJPAVvev4Q3pzBvZF2K7B+NUZWzYwBVS5PdlCVoajQQZzMgCo303LIqmxXUd70mVO9eLyZ8GZERwhkCIFcMRAD2Z5ApseP9vjR3vxrjz/TE8gSA9lidp+apzuQawtiF3FviO3yVm5XNAAADhtJREFUNumD4w1Dc8GS7rCkiZZ0bwkxp3uMCaIy1Mkyd54htuxvHWmXYz1KrE+Z6793sv3K7D3s3qfM9Skz7cPhX+p6qsbnKWOiZ9r2mlM9uniP0N9XiDfnRnRdgWxXIFcWOgK5liB2QevZ1d+T96ZZF+syp4iW9PSVn7ZFt0/sNibaSaLT93AdXsnQXDCn201pgindU1oMCcKEN7+2jrSNYAR5jijP9ZQDojzTJhrdW0fMe0NSR7oNSeK07TUmibo4seDNL4PdZ0b07YFsewArC60BrDGAndN6dpFueGNMlmawzOkuQ7yVJDzFk3e5/dZif1fAhN+/qWRozpuANhNAMAE9JcSYJuoT3YrxePNry0jrCNYtx4hlI9M65k0Px4F7o09O02RjmmhIEnSxG96ckupa/dlWP1YWmv1Ygx87o/XsJBHb5a1ST5Mm2mlIEoxpYikGa8KbzvvxhmgCSoYxRdDHu+Xj3vzSMtIixbpGsO6ykW0WhvfUEa/Qe9iOflW4S58gTG1vwRttjCDw97Rq+/ZSuk5Kdc2+bLMPKwuNPqzOj53WeLaTiG2KVqm3UR3tMCS7897c/2B1GeItJOFJnvzevenKhxxCqV6N6W5dokse6sDXN4SWvc0jTWKsXYp1lo1sE3/Cm15VuEOf7J7a2HFvuvPe9O6ldJ2Qahu9mUZvrizUe3PXfdhJtfsmb1LdxnRJRqrjXr3hVTLUhXnqt/Cmc8KbPY0j9SKsVYK1i7GO3512MdYuzjbwRnfVEq/QiWxHwZtpmmxMEwzJbm2sq+DNHkrXMam2zpup8+bKwnVv7qoPOz7JG0203ZDsMqankX7qaXC3lA5DvPne4s0VhuqcKdViTneZ04QSko83nfJQG8vccYbQuqtxpFaANQ9jraJyka3lju68TqykE9nOXlW4XZ8c82Zyq/PedE14s5vSdVSive7NXvdiZaHGi1V5sWNq97axeapBE20zJrtMqe7J1b7HbeBevRkQVNNU5wyJ5t/Sm/bThJZdjSPXBVijCGsSYc3lIVPLKXhDyMeb23nTbUhO8maw64hEe82bvebFysJVL3bFmzuqcm0jEVvx9Q3ujaFU3qQ79LGZxxuzS0EV1QzJz6gjDcY0HvpKiy7RKQu2MUztpwgtOxpkV/lYvRCrF2AN5SFzjR3acZ1YSSOw7D2FeDNtew2pLk2si+8jtmh6dg12HRJrqzzZKx6sLFR6sEve3GGVawuJ2CpvkXjq1bg3ndPWfMaJqXZNuKFfeJqv6C72eiqaiFjcKvpw/eDIGWWozpjuLDnj3rSdIjRvb5BV83K1AqyuPOTqBGgVK7i9hlBJ6y54o0t05s+Wrpsb3pX3ppPv62rREHYNdu4Xays8mQpPtixc8GTPebL7Vc7NJEKLvHnMm1THzXW+x7EzJNvk/lqS6IxA1VPs7/tFkxGbW82UNA2Kzyr8dcbUPR77Dg3QJdplwRaGqeUUoWFHvaiKC9Xw4etlA7jCdG+v6bhC7WTbiapwW96baVptSHWoYx18f2ebpnM3uXE7nX1Qbj8gd5WF/XLXPrlzO0eypbelVdEg9dbh8aZE3ugTrVL3NZLwrEjd5wnY737fD0aheCrm8Oq4Ix0kwVmps8aIV6XANF15Bznu8JE+0S4PNjPNzaeJNRur+o71GE/2GU+VB8OpPu3xbsGWK1er6U1ce5c63KpPTH/WGlIdmlj7sL+dqGs6MnhlQ/u1n9vb1ra2rykTazva1nXU7euv6lZez3vTWgpv8LHWxVsF1iskwQWJdsAbdBbnTTru8pvEKnI/9yLfVG1IthvTbePqTDh0Xxv6ZLsy1My2NFYNVm2prN5Y2bSxonFDRUNZ2FhRt6WyenfN2QZeLd/Rqg436/EmT9NA3Jt4myTYPGSsreNfOt139kD7qb3Nx/c0lYPm4/vaTx3vPXuVc2lQVy3z12tjrYbU9DWftjm3ScSHWxNppikvkPmX5QaGf9SdAlNIBs5gman8n0ISkkWS6YQ3ZFcaOSRuNV1xWRNpMqZb8+q0G9OlQZ9sVY428Wy13cPXKvquHmutPFB/4dfrZ39/9l0/d7Du/Mn2C1cpl/oUNSJXgybSrE+2TttSQ6pNm2hThJp41mtkxYU29rHawQPVfb9c6d17pXfP78veqt5fagb2N7OO9svOcS1X/v/2zMM5bWwL4//7ezubJdX22sQtMV3gxJhmML2YDqKqAaZ3UdQpAidvBE7il3XJbjy28x4z39zRMMzo3nN++s45UhqXo6Q6xx5eu/O/8+NhntOku0pT6LUtJEGLYXzQHk1Hd3PDjVl80MJKoDOsNgU3Eq2DL9wcLui5h1XgZqCK1KUOeFcb2pI5Xu+bn+8an+0an+09lC5vZ/rjnVmkdL3SRzfdub14UwoTAMaorz1pjtWgi53Hm5Kz/I4ttW6KvNQHRMf+R5AuIDJGXpym1rw5cazxLtNXoJRmwc3PJijHqiOVdwbvG2/sQ6GaGZD4aDqaXfB/NZv55/ml38wu+NGU6xO9Yg0LgCd676a/sI3RS5B/dkNfk4Ex6iyhAtvSQGnPCW2exN/oQi+0QZE2IDp+QGmDouPgc13ohRl87Ua2wtX9FC5DyNu4wRgNRALpniLWlATL+2f5bS8m9qKCPNhDy5d/GyzvxhrvU7gMJlQYc3gv3KAU4Ia2DB5xJG2rNgskQwjcfJrdys2n2ZgfkzRRa5VByGfyvbPE3mR68hy7LFX3go4GY9QwpUoPFGD7IFzd959ve/Nv3diWG9vyPJQWtxN78m+9eXGguB2t7Se7EmioQGng9sOijBoiVJmBIoXLwI4EbB0sFW8dxNsPKrAtSeKydF8OESpE2PbPZ0eTZzXxpjBJWf3yDBZudes0R09nkzu4mX+eT+dTZsR0em2kkHSHj/We9eD5HkIqF9VKnefuQTlWjTIATKmyQ0WqJ0t0ZGBbCrYljyEp2JEkutJ0XwYRSpRSYewdB1xuHqEAmFRBhDJLKJdrdnH9kCtEKGFShVAAygAYC/x8anIsAA+VzvSmySf2x0yFMtwf4tyYnc6nd3PDX/DchBuQ/VI9H8t4TjzvLJH1ZEuSE6qVOscC9yKMBTAGQGgVQikh8pEFk0qEEh5Z7IdPt9w/SgMIDSxXZHH9kKuAy4KYe8lIjgVQWhWp7Ot9a9YzeRIK1FplkibGy+bm9jo1/zyfXfCT2YTmqDbegPNJd0indax7sm8zXcUCnfvh5upRUUZ4Yh5XGHP/57p6xqd/jdJAsi21xNb1ru2zqBkrZjv9FjNmprPJ/AZovvXFQu/zacbPp6OF5ZTrxVj6zOyRGbwbPmwXGihy//fxffoE/IMdojSQ7sqcmS2tc80eOExCoVqzRFBDwWxuhua/uVmgM720nBaWzwaidpNbYvRv+Au70FCB0SqMUeVYJbbSLx4BIYmMCqVV6Z7Mi4iPXa/NbkU04S2UMXzQZUd3mM013AgD+YQjqGG9Wc0iKU/oRO/Y1vleneV3IEK42Yqb/4HHRkgircz05C54S+t+aXDs+yMuNAc1O02KIW/vbJZj+eX7m68z+uzTbDqbsCOmN+yVa6VkJur0644dOzrvGzciTnYlCCVDWQXKKVf6VSPAKhBKDjYPHKlNrWtNb9/3BM1ZJFVrVAfkYDThhHfEtxapv/jN4ksEf8FP+DHN0d1+t1jOg6mQw687tu9p3W+syY1QZSc9kMC0DGHlKCdHuRVDv8ojpEBZBULLUvhBoLhjjq5/dKzp7QfugDmVBSv1Un/YEyrUzbP3V3O5nptlgzzmxxRDdvBWoZSLpUNOv0Fvf39kX9f7Xjqy65H6Trp/AJMyjFFeilVgrBzjFCs9iQgs08EqltlBaSVEyFP4+3Bl25ZcO/a++mjbNDhknoA5mY2VqkW832U4+rJCXfch8yo0N3BzZbYS0Om1z8v5ZCbqCViMDsWh+U+1VaTzP3emN0LF3URbku5Js0MpTEpQWooxspWeSAQQWgqTUmgoTeOSeOO9v7BjTawduUWa05cfLeITp/osZE9DYKl63u13aY4e82P+gr+zQl3f33zD6stYTrFUt98pVYsZOBGIuk7d2iPLvtq4pjG/+GD/Q3cmsqXWPLnNQGkrUn8ba+7EV3oCEYg1tyN1caC46c1tWhOvtT7RB7sIOHmhNm7oTiU2ry4U88JYplIv9wY4w9ETfnzTp+9vSFzxoe/74u/+xM+n4+mI5ujesFdtVNA8HEtGPAG7xXF0bDnQGP9UGp6rLM/Utt81zt80rn9pnCs9lQgcOv+tcfymsf2uOnmmNLw8NIl1p1KbS38WdIGpaK6ANlq1AdEXoJlNftxp7vKbBVzL8Wq8aJOH5KDVbZ2Xz7NINgKGvUGH1a03nAJHJwca0x5gECuON2TaddnR2kqPHYF1uXZDod0A9OJD067WLDFa1TaP0Rd0xRMxBIPLtXIbbxM0wY7ZpdMIb/numqGuesodfiP89dNMmLBmk9GEo1iqN+w12o1iuYjkoEQ6HooGvAG302e3uSwWu+nEajBZ9abTlR4zAidWg9lmtNhNNvepy+c4C3rCsWAyA6J5uFwttTrNPtGnOXo0HQnT0w/3NH+Tm6XxXPBCzeLH3IQjGbJP9FvdVrVeKZTyCAZn4UwynYgnYlEwGolHwrHwSo8YgUg8EgOj8WQ8mUlmkSyaR8/L57VGtY23h+SAYkhuwk1mk9kFf/vHhKugfHf9A37zpRsSbnPBTxf0sGOWYqkhNcQHeBtvN9uNaqNaqZVLlWKxUjwvn6/0iBEoVoqlaqlcK9ca1Wan2el1esPekBoKHjPhxvz4H9vMV3r+Ax4Za6s8O2KQAAAAAElFTkSuQmCC;" vertex="1" parent="1">
          <mxGeometry x="230" y="60" width="189" height="188" as="geometry" />
        </mxCell>
        <mxCell id="z2YyQgFQYphJJJYKpOAV-2" value="" style="shape=image;verticalLabelPosition=bottom;labelBackgroundColor=default;verticalAlign=top;aspect=fixed;imageAspect=0;image=data:image/png,iVBORw0KGgoAAAANSUhEUgAAAN0AAADECAIAAACUf7MeAAAgAElEQVR4Ae29h3ccx52ou//Iu++96733rsPu9fr6rXcd1paDbNlylKy1nCRZcpCVrGAFi5QokmLOASQIAiByBgZxcs45h56cc+gJ3dO53xkMCIEYgGlmaBCDc76DU1NTXV1d/c2vqqt7Bv9A0MQeez2w03rgH3Zag/bas9cDBE3sebk3XOzEHtjzcieelb2Q2RFe4giMlwp4PotnUlgihkXCWNCPed2o3YbqdIhMVuXxq8srOFTaTojyidOoybjduwRNoF5P+cCh2xTY9Ba8uIQG/OuZiEIBDQ0TFL6e0+GJDvCSxKCeXvCxH4OPPg5++/uFR75b+M/vFL76zcK/fz3/b1/Lf+Wb+W88WvjOD8AfPoECLoImMJ8XHhjcRP7Lj5TfeX9TJjwwiKWSOFbFSmBVIi388AmsBNbBURhLxSvHT33CydOoxbxuW/GZF6o83tpLAiv/7YPia2+uv7uX6AAvaQIN+BClEjHoUYcd8/uweLRy7GTl42Nbnv6qWAQ++fQmcv/0+cK3HtuUCT75NOpywoz5/L99Nf8v/1/uU5/Nf/Er+f/z5dz/9T+g3n7Ubs195gvF5/5QfPGV4h9fyn368/D45PoeN3qJxaP5f/m3StfVKoezEUSvWy/faYkO8JLEsFgEC4c2Uj50pPze/o05tXQ8SuBIbTBtAPzJz6ssVmM+QeF4MY+6Aai3D/zlM6gbQEzG3Kc+C09OoXZr4dHHsWSiVgaFC1/9Vt1L6MZA5dyFwn9+u/TK65ULl1CHvfzhwcJXv1n87fPFZz4BfPxnxd/8rtN0XD/e3e8lns8Wvv6d/Ge/kPvHz+X+30/nP/uF1fRna+Gtnv5v/7OeBh99HAsG6l1T/O0L+f/4ev6r36yT+6f/nfvil9df5r/0NUQiXe9EgibK7+0rf3iwNg3IpvL/+Lkqk4narbUKUwmCJjZ6WX7/g9ILf8p/9gvgj54s/fGlSndP7r9/Gl5ZqX0kCHS9ziqbU3z+j+svOy2x+70kSAzPpvF0snL6bPGFF/F0spY+eqK8/6N6Ov/vXy8fOlJL5zLrZoDf/2nptTerTFYj8MJi4Ts/QDjcdVdQhz336c9XOZyal6Fg7lOfRTSaWrz88jeqs3OIQFDlcPJf/Mr6OI6Xwfznv1Tl8nAEKr32ZvGlVwkSg65cg3r7a3au3umAZ2ZKf3p5fRedlugAL2/e0IKuXiu+/Jf6CYYuXK4cPVFPF776TejMuU0nvublm+9UBYItYLELj/5w3Uu8XCz+6rnCz/4LDfoRlQq61pP71GexZLw2v/x//in/r/+e/+KXa5PO//7pdS+hnt7c//2/wJ8+hYaDiE6LQSUslch/5l8rp86sX5JD/QOlV1/f1KrOebn7vazy+VBXN9TVXXzmBfC7P1xL//q54lO/qqfzn/ti8enf1tOIQl4/9+D3fwo++njppde24E8v5//139e9rJy/VPjuD1GfFzEZi79+tvjMC+UTp6pCIWKzlj88iOUzOInhKFx6/wNEJquN6VAJ/NET+c98AfzJU/lvPYYYDASFV650F77yTcRqQaSSegMqF7tKb77TOSJuOtIO8FKjhqen4enp4kuvgj96ci39h5eKz75QT+c//6XiC3+qpxHz2lIO+P2fVk6fwwu5RrBEHHzi6XUvUZcDC66uRBIYXinhUJkgMfBHT6IOO47A6/EPR+H6JKEqEBQefbz4y2eqK8zy+YvlE6fwYqHwnR/AXG6Vz8//xzfwfKY2YT1yvPze/k1nq3Ne7n4v18/lvY7j+c9/qbbY2cjXv5P7H/+87mWVw6mcOL2J/Bf+o/z2e5syK6fOYulk6cVX4OmZ+jpRPZRWTp4u/ukVHKviKAz+4relV9/AsWr5b/vLH9QupDqTDvCSQFG/F/V5ykeOFZ99AfV5aukDh8vv/K2ezv/b18r7PqylgwEcrdY9qMXLI8exULAR1A2AP3nqEy8VCqh/YJ3y4aO5//7p3Kc+k//nLxZ/8Rvoeu/6W9DAEJbPlN56B0vE1tYvKRwen8z/r38pPvv7ypHj5f0HaoP7//kyajGXXnm9fPhoZ0rZEc9t4Nl04RuPFr7ySOHL3yj8xzdqia88Ulsh+swX6ula5pdr+eBPfo7dvDcIfv+nxV89W7lwaQtOnyt8+ZF1L9fVwREIsVnAHz9Z6e4pfO/HVYUc/MFPq7NzeCG7PprXLtiLBYIm1tfVoZHRwte+XfjmY+B3f1h87vflDw+Cv/xt5dzF0nO/r5w4tV55pyU6IF6SGBaPbqLy8bHy+x9sysSS8fVlmtr1+IuvwFPTWzA6Vnjke7d4SeGoByi/tz//yKMwY742v3zsJ6jDjno9xRf+BD75S5jBwMAcQX0yKK97Wbt3n8/eMhMtZPFCrvDo49D5S52m4/rxdoCXNEEgMF4GN1I5daby0eGNObU0AtWul8tFvFQAv/ujytnztac9Gkkni0/+sjq/UHsLgbBcpvzuvtynPgP++EkcrtR7tu5lrTYSg/r685/519w/fq709vt4pVgvsO7l+pkgcKTWhkoRr5RQjzv33/7n+rrSJ2U6ZrrZAV5SODQ0DP786Y0UvvfDwncf35gD/vxpaGCwNsK+8CL4oycL33i09pzHj57ciicKj3yv9iDIj56Eh4ah3v7ib38HzzJwML8u0LqXtRwSQ90uqKu7/Lf9WHGtTKOXiMWU/8ojtSnHN7+X/9J/gk/8AouG1yvstEQHeEkTtUvdauXOYLV7LTgC3bnkem0YUotz2NrV0ro95UNH0HBw/eVagsDWc6DxCdQNrL+s7ZfAsEIWy2dqFHL14L2xQEelO8LLjjqju+Ngd5GXFI5ueO5hd5yejj2K3eAlTuGZfIbD57z0yp/zNydwHXtGd8eB7zgvcQpHcATBEWw1+GEkhhIoSqAIjtTDIb4aFzfmQAi0uLI4OTP5n4/8Z2b1Jt7uODedfBQ7zstIPNI/2H/y9InxqXEYgSQy8elzp4dHh06ePnGlu6tQzEfjkYMfHxweGz5z/szZ82eSmSS++rUYvUn/9W9+fc/Le7IZp/A697TVAyi847zMgbl4Kq7Va15+9SV/yM9YZLz2+qvhWDiaiB459jGby/IFvM/+7hm705bKJK90d13p7oJRmKCJPS/vVZd8Mc8T8lbYK0aLEbn53Oe9VtKm8jvLS4zEWBzmK6+9/MZf3/jxz37sdDsZi4xrvddqyygUPrcw19PX4wt4333/3Uq1glO4TCl76dWXiquL1Xte3pMiCI6weeyJqXEun/PaG6+ptap72rzdhXeWl/li/sWX/jQ9Nx2JRw4cOlD38vip4xiBwijcdfXy6PiIL+B97Y3XCqUCSqBTs1P7PtxXqdbusnSylziFe/0esVSkNWhhFK5iVQfg8Aa8YqlIo9fU5+sujwvwAmKpSKlWVOAyRmJgGaxiVYzE5uZn+wf62q3aPdW/s7yswOW333t7Zm6ayWH+5tnf1L186hc/54v4fBH/lb+84gv6fAHvT574yQxjRq1Tv/XOWwazASNr69Wd7CVYBvlCnkgq2vfhPqFYkC1kX3rlz8dOHOUJee/te294bDhfzO8/sP+Nt14XiPgXL184c/4MtHrTlaAJCIGOnzo+PDZ8T960u/DO8pKgCcALzC3MCcQCpVqRLWQZi4wDhw6weewl5pLT7cRIzBfwvvjyiyus5cWVRYNJX5eSoIlkJjk7P7ve3e3uuB1VfxWF9Sa9TCl78eUXL3ZdzBay773/rtlqwincaDG++vqr4WjowKEDs4wZnMID4cBvn/1NIOTHSSyeinf3XP3LG695A94ddUQ7zsv6VLJ+iU3QBGORcfbC2Y3XjL6A942/vlGCSutl1ju0MWf9rV2cwClcKBb8+re/6hvoO3ri6IVL57OF7NETR+PJGEET/qDvj3/+ozfg/fjYx0q1gqCJVDb19K+ftjtt4Vj47ffePnHqeDQeWf9475CO2olebuwap9up1Cg35uQKWQ6fU224Jb2xTEelUQI9f/HcuQtnC6VCb//18xfPZQvZt95+U6FWVLEqm8d+8+0348nYBx99MDgyiOCI0WJ89vln/SH/qTMnj544msok6yvEO6rTdrqXGyNlveMac3ZUhz74xtQGa7Phg48+6Om9duLU8b4bvdlC9o23Xj9x+kT39e5TZ0+ZrSawDO4/sP+999/t6es5c/6MWCZO59KvvfHasRPHrvdf773Ry2Sv4KvT9Aff/i33uNO93LLRe5mbeqB+JzaZSRYrxWKlmC1kDxw6YHNYE+lE/cZsCSodOnJombWcSCey+QxO4RiJpXPpRDpRJ1vI7qhZ0J6XnzxDvulkP7wvc2Du9LnT4dgnj2+W4fK5i+ekilt+I2QnH+Cel7vQS4zECqXCxls4OIUXSoWHaLFiz8td6OVODoR32bb79hIn6DoYQe9W6gfYenFxmtiV3KVzd1Ps/rzEcRpFiTKM5yEsVUFjZTS6a6igMQhLwXgOIco4jdz8+DVrJ04TGEVUcBxE0CyMpKBqsrKLgKppuJpH0DKGoeTap+5u/NuuzD15WYsfGAmB1Vg4bXUGZBYPz+Ba0drntfa5XQRD71oxebiOgCyUthSrMZSs4GuDwz3bWY+LMEkky6jJl+brvIsy55TQMso1jnAMu4kJvpkhcbBUgMoZCWbLJaz2OdxOuzvm372XOE7BIBwPxPUmD9se5gRzykTJlIWcIOor4f5dQxHzZWFHomQK5lT2MNfkZfviOhCOYxS8Gjvvra+rJBEvwipHdE7iWlaH5UDeGKw44qg3Q/qzuwdfhgSSmCUMqT0gxxiblQI8vd+fKlVwHL+v7xbfjZe1MIkQpWTBbQ8IAmllpuoAcV+JCJSIYJkIlYnwriNUIoIlIgDi/gzsDGSUtoAwkQcQsozXJtN39ev8OEVAOGEPZZeUbok944hh3jTpz1KBLBXcpQSylD9L+TKUK4lpvMVldUDpiOar2H2oeVdeomQlkrZZvOw0bAUJX5EMlmo6dgRFIgAS/jRstwW4waS5ipfu0ksIJwze5LImaI9jvtoJowMZcrcauem46oJ60pTQkhQYAzkIvVc17+wlQlRiWYczIskgLpAIFIlgkQi1lgISyJa9mRbgySN+EG99C4uEP4s4nRFxJGNFSej2atYiJUEYvUmWPlyTMkP6OxVPipA5MkJTMA+h+L1MN+/gJU5hKdBvAFbSVVuB9LVBymABDy5wR1958/evvvWHpvk9SzJVwNvx4QkWCX8GcZi87Gw5iJGbf8hg40QeJwl3vMCQAfYE7s2Svo6GAjKUwJxUuxJV4h6m5rfzEqexMlowe/gRUAvi3pvBMrhqZ0v+rk7gqu5z3UdnF2fMdmOTmOyGKzfOZKpuEPcX10J7S9q5VgmI+8J5td7BLldrt5g3uvhJmiKKVYKj9Wm8FU+a8rYaIE3ZkmRLsCdJINX6FjYesiWKzYmBQKqEkner5u28RMlqJGO3+Fl5zAXiPhD3t5w85k2UHKcuHBJJhfFUvGli57uPJUqOPOZteVNXK/TlMZfRwwynrDj5yf+O+ERKmkAJwh0tzMq8jiTZci89KcoQxi7Pmy8xzJebZM7UNWdSeWF3qz85jV6607TYnp2VOErINh/mhmv27b2kcAgFbQGhPysp4O5avKyp2WLymCeStxw7+6FAzI8mok0TPtN1OFaw5jFPy5u6ViHhCRcUVq8AQssbf9WyriZOEWAVn+QYxfZcy8+3J0W64rjIlu9ju3SBitFfbgaDvzwp9i1oko4E4UmRjTK1MMeTpsxRfFjgDmeKGHlXam7rJU5h+VJM45hPQBqQAEDC0w7ymDuSNx898wFfxAvHwk0TPHX5UKRgzmPudrR2tU53FjXpHEuFShJrCJkYhQczpYvTSksEc6coT0txJ0lHBGFqoiPCgDtD+5pmURMbEwctEdSdJFvb1E21uVOUI0UzVBE9EIWJ5rxEiWos45JbpjKICSTadZrzGBDJm46c2ccVcEORYJMEI4FVL01t9TKP2TQORiLvRvDNVz8ojhg90X62254gPSm6tbiTlDUIzUv9Q4KAM0W7m2ZeGRvkeowB2J2kWtvUxtpcKZprTnM03hKCNY4zGydC9fS28bKKVXwxvdwykUXtedzdJnKoK5wzHjm9j8NnB0L+JvGHfKcuHYwUTDkUaFOD87g7hznVjrlwylRFa7/jupEqWpWZvePSuD1BuZMtBkiQliA0K/EO8v32JOVKNIUzQc0pozc4gDEAAQmy5a3dVCGQpMS2/JzEmYeRbS8ZN3Tmtl7CaMkVlMnM43nc1b5znEVqXn58ah+Tw/QGvNthsVv6BvpEEqHX79muzGq+++TFj8J5Y5u9dGmcs76YBkbWfh24riZO4RUE4mtsc/qCLUm7klRrcSZIUwCekXj7eX5LnLY3hy1Oz8ij/WxAH4CdCbK1Td2yNpkTnBTYMuVqU15CSNHuF696CeTxdpFFnKtevr/MWga8wHZMTE/8y7/+ywt/eN7mtG1XZjXfedNLV/vanMNqXnqjKggpbwyWOIWX4QpHYV4wlWxJ2ploMY44VfNS7OvjBAwR2hyhtoFQukCxNSN3FMxhcpsylClCTcli/WxA54cdcarlrW2sUOYEx/nWTAlu1kubVyQzj+Vx52rIdLXjbxZ1hHOGj0+9v8xcBDyuLbE7be/87Z3/+uV//fP//pxIItyyTD3T5al7acihjna0tl5nDnNonLOebbxkK8zzxqK15iXVWhxx0uCHpsS+XrZfH6aMW0AaAug4U//Cmx//6sX3//TOiXmxxxAitypZ23xSWpsKr3pJtrapW9YmcxbGeJZ0CWreS6HUNJbDHDnM2SYyiD2Y1R0++bfF5Xkn4NgSkVT0o5/+qG+g74c/+eHZC2e3LFPPdAD2kxcPhHL6DNrGNmdRu8oxcxsvGYaiJU474pQjTrYQe6zm5aTI18Pya4OkIUg0gPVMCp995cAs36bxVISm1ILUrw80Fqvl6IPkuDjSz/JofVV7rJXt3O6QpY58C70czWL29pFGrMGs9vDJ9+aXGDanbUtOnzv96Pe+o1ArTp45+fSvfrFlmZuZlpMXPwjmdWnE1r42Z1CbyjF9ey/NMdoepVqLLULqffCkyH+NFVD5ac1mKI23+vPn3jh5jaH1Ew3vNpanR0XRPpZb64NtEbK1Td2yNomtlfFyNIu18Rynbno5tzBrsVsaUWlVTz715BNPPXH46OG33nnrG9/6BlfAbSx2M8d4oualNo1Y2+ml9fZezhlKpihtjVK2lmKNkDovPCH0XWX6ZT5acStKH8k1pL76vacHFrQKH7Xp3S1fDgmjvUyPxgNbI2Rrm7plbeLWepnBbBnM3iZSiDWQq8XLWca0yWpqZGxi7LHHH+MJuDKFVCwTv/KXV/767l8NJn1jydUcw4kL+2teotY2NTiD2dOoVXnbeDmnLxmjtCVKthZzhNB6oXGh/9KyX+ShpJsheab81x9/pndWJfWQDe9uLi/xUAOCaA/To/bA5gjR2qZuWZvI1tJxvM1eWgI5zaGT70zNThlMhkbOXzz/3vvvref39PX87Oc/kyll6zm3JnSrXmra7+XUbcbx2bZ5qfFCYwL/xWW/AKBEALkZR/U3Lx9+83CfwA6LAUzoQHl2RORqKLa6oRAg+3mRa0yv0lN9YF6Otu66ZySNWtpHCjEHcuqDJ9+ZnJnQGXWNSBVSqUK6nq/UKHlCntagXc+5NaE5fmFfIK9JIeb2tTmNmpWO23k5oy/pI7Rp23Wc7dZ37pBvCpNqDzwmCFxYCnCdlGAzpMBJDLJcT790eP/pscuj4lP93KtzZr6DbChZ25bvpHq50e6al7Bp++Wk7ZaZ7iNfaC20zkvzSBo1t48UYlr18u3xyVGNTt0kap1y1UtVCjG1sc2o6Q5e6la9DFOmlmIM1bwc5QfPLQRZDoqzJXaCoUy+dmjg+bcvf3BxmWNFty7moNgOqocT6WZ6FW7YGCJb29QtaxNYHiYvjf6s8qMTfx2dGFFqlE0jO3bh/UDu7+5lUR+mjSGq1ZAqNzTKD56ZDyxbaebWUCwrybQQq5AsK8WssXXhbnake8WjAGpetrqpWxz7w+Rlsmr0ZxUfnXhrcHRAqpQ2jfjYhff9OcXfN15Oa0FdzUuytRiChMoNjfADp+YCCyZ6qWm6VqJXlz1yADYEidY2dcva+JZ8C8fx4TRqah9rXh5/a2D4hkQmbhKxTFT3MokY29fmFGpUOia3u+5hKcxTWlAbpg2tjpeGIKUEoGF+8MRsYNZEM5rm0qqXspqXW4S3lkdQfm0ct7bmfo/YNJREDe0jgeh9WcWB42/1D/QKxYImEYh5R8+/588pEoi+fW1OInqFffw2Xk5qQE2I1gWp1qINkHIAHuKHjk4HJnX0VNOcX4x0LXulLlgbIFvb1C1r45oLozxba7wUmQYTqKF9xBG9Nys7cPzN6zd6eEJe03COnH/Xl5fHEX372py4g5eWtnlJyV3wIC/08XRgTEtPaKlmGNdSZxYiXUteyYPzEmyhlwMJVN8+4ojOm5N+cOzV37/07Nv73nynKd54Z99fPj73V19eFkd07WvzHb2c0BTVQVobaDEaPyVzVge4ocOTgWEVPdo0pxnRS0tesRPW+KmWt7axQo4JHOW2aBwXmQYSqK59xBGtNy9dltw4eXn/wZN/bYpTfz3Z9T5LPuSvxUtt+9qcQLQK+9j247hlXA0qA7SmDV5KndUb3ND+Ec9VIdLdNIcnA5eWvKI9LxtdiSPaYEluDjLFxgmOYpCtGLh/VIMiw7glxAqVlW32UnN7L8dUoCJAq/xUyxE74RF+6M1L4tcvSl6/IG6GNy6K37ok7GX6RA5Y6SNb3tTGClnGQgvj5Y0Eqm0fcUQTgZQBUOJOC5wJniPOvW+cSR6QEgSKsiisiiOa9rU5gdzRy6LCT6tajcJHSVzVBWWsh6E/N8g/089phrMDvO4ZzZw8InZWFT6q5a1trJBpbOU43h9H1O0mVlVFYWUUUkYh1f0D1yqJVVXtbm0cUSvso7cZx0cVoMxPK30tRuGlZG6cZyktKCLTQu+UwN0M00IvQxHlmosyAFd4qZa3trFCpgEc5bbsevxBePkATGrlLqqqv4uXSh8t95BSAJc4UaEdbh6xE5W4MLmHbHSoHTkt9/JBRKBWetPmAB+7s5dFqZdWtAtK7mkZCi/VtnZu7oEVPTjCadn1eH+sqtjjlh6AFXLb8G3G8RFFW73cfL4fmFhN7qi1XvbFqvIHQByWt4QY3P7WwvI7eCkHJR66hVFtY1UyD9VaNla+lnZT8hZyM7ov6wotjJft9xKWRdO8oGc+4F5okqB7PpoRRGFZez9Id/JySF4QuykZQLYDsZviuWmupwXw3bTITUkb2il3UQonrWwFctcn/bCkzT80XkZhWaQsNQuuWccvA4tDwFITLA4CC/0WSW+4LKmrGYXk3ozEHm4Nzpg4Bqlqxt/WS6bCMigHhQAtAShpq5G4yBU7ckESviwPdzXNZXFozgKLXLe0U+Ki+IbKxBwwOWOfmrXdPzO2yRn7zLJfZEMlq7tY1OZHWnK/x+oVCk190aqsfURgWaAg1CxeAtVCOgjQIc/9EwRov0XLuhIARateykIl2eziiISnU0osTSIXG8bGRqN5YxSSR2HZbcZxpsIyICsIAFoMUC1H6MAntJlrupAsBauSTaFMwqOm+HVFku8gxK5Pmip0EAviOIcDuB05wJFugozbnp+ds3D1JZGLFAPUfAu9FJh6I4i0fYRhqSfFkc2cBVUCOuCmg577JwDQPrN84bwnyw3Dkggs9eaEvf3dEaCcS+C5JNYM6Rg8PDDhjWtDZUmkKpHbhra77mmflyIXybVW+8XhQWvcDlNuiGwGACLngewFQYBtReveiAFK5CL5NnSK7ZOL/bkElk1W759ENR/HFxiWRUWab8db7CXfeD1clbSPECRxp9jSqVOggkf7nLTfdf/4nLTbIGGcBTKcECwJQWJXinu153LQVUzH4HSs0gzJcHGof8zmk/tLojAskd3RSxctcrYcim2Gr/G8NyxxS4VylMkmmXNlT7OAFTMsclL11gqdFNeKjC0DUoEvE0HSMagZMhGUMWOck8T5dkzkpOc1hZGWrKtbvcK2ewmL3Wm2dPIUKOfSHjvtddw/HjsN6Fe9ZIdgcQgS25OcrmuX/c5SOgqlo5VmSITAwb5RMyDyl4SrXg5uHy+tN2RFrosWOFsM30GxjNUrHE+/OW6qULZyU1jL1Iwre4LpWjTBfAdVby3fQXHMyMiiS8L3ZUJIKgI1RRiZmzbOiKI8KyZw0nPqwjCnFfd7Vr3sCVdF7SMICYEUUzp5ApSwaJeZdlvvH5eZdmikc2eADCsECYOQyJZgd1275LOByRDUJLEAONg7agIEviI/DItkttt6KQW5LprvogUthe+kmMZqF8dz3RTXlylzc5jK1JQre5zpXDRBfCdVb+qql+jIokvE8ycC1Xio0gyJIDI7VfcSFzipWc1D5uWKbPIEKFqmHQbaYWwEt+krRnXFqIbMWnKrAmub2A20VSmdO+3KrKx6KbQlmF3XLvoshXigEg+Ut6IUC5ZiwWIsWIwHSlsVWNsq4i0M3LWX/VKQ46T5q9+FbeFfnp1cNsKXOe5rpri6TOtLt2AoUcYSaSwSJrCGsUgaStSmMpteTjhzx5muBQPEc5D1dvIcJMuMDC+6RFx/wl/dpkNKsUCtx2rcrtMqcT8yM2mcFsY4VozvoGYfqngpAFIrssnjoGCRtmppm24TlE0n7u9+4bFvn3n95WMv/UE3OUzb9JvKrL20ammzTFb3EhYEIUHdS485F/WVo/5SI1Z9YHSQMTPJYkxzTRpvxFdsLFPPCXnyA9fHNsTLgduM4/2SAsdB81sNz04tG+FLbE+3Ma4s0trNUMpU5dqysGdZeJ0lHVeYZT8AVb4AACAASURBVLGiDqQaiq1tqCnSo47c0RVg3gDz7FS9tVw7xTShQwuAgO2NeuGIr9RIAMgtzvInx5ZmJtl8pjriLTaWWcvxwtMTq15aMJ6DnlW1Ml5eC1cF7SMI8YHUinTiOMibp81q2qLZBGXRzp4++txj345IeIuXzx7+w3OERbepzNpLs5o2SmSzJ13plRDMD0J8W2Kl69pFwJgLe8phb6mB4vw0/7+eeHZ+mr80JzFp/GFvsaHM2lYBIH9jzUteGBbI7Lfzsk9SYDlojr3V2KglA3yR5bliiMtASlUgN6IukGx3/Gs//83JsfnrfNWB3vHXTlxiOiPqW4tt3GTEkT26AjAMMMdGrbXWRq2Y0MEFF5/libgrIXexAdBpjv366T9ePte/MC0QsvUNBTZsAlSmxg1TgijLgnPs9HQLveQZr4ZgXvsIQjwgtSSbOFLkzNJGBW1SboIyKWdPHnnuu4+E+cuTJw5feONl0qTaVGbtpUFOG4Sy2ROu9FIQ4gYhni2x3HXtosuQCwHlkLvUQHF2nPPCMy8HgFzQDTa8e0t5vzPX1zNqAPi+IicE8aW2G7eJl73iwoqdZtupFmMjF3XwBZbnsiEuLlDy/CbIFSD2jV88wzB75XlSkYb/fOj07/Yfk6bghpK1DWV5atCWPbLsmtNDbCu51lQbtWxEBucB3oo35KoEgWIDBZsx8uun/8heUgSBQhAAGwps2MRVmRozTAliTDPGtlNTytbFS57xahDmto8AxHUlF2tesqdpvZTWyxqQz5449O3P/VPXu6//9Rc/Y5w5ShrkDWVWt9JJaS1PNnv8ppfcmpfdFx26TNBVDLrARqZH2T/47hODvTOTw0ybPtZYYD3HZ8/WvfQWOUGIJ7X1b++lrVcEMm0020ZzWgrbStW9vGiICwq0JL8JctEV+9ovnpkxeyV5Sponh2XGb/zq92x/VpKnGgrT4jw9sOolQwexrVS9qWxr3UsXd8UbdJSDTnATAWfBqg8/+dPfHj10fqiPIWQbAk4w0FBsbStHeXLMOCmIrZgwto2aVrTUy0CV2z78EMeRXJCNf1xcmaDVAloj2gSlEc8eOfDC976VkfF1I31//v63UY10U5m1l2ohrWJLZ4450gt+iOOD2JbEYlf3Bbs67beDjfjshclh1mPf+dn1rvHhviWzOuK3FxqL1XM81kxv97Ae4LpBTgDmiu238/K6sLBipdmthmWh5rXwOZb3vD7OzVPC3CZIhjP21V88N2nyCnOkKItPGz3fevbPS56UMEc2FKYEOarfWouXs1qIZaFutpZa0tfiJWfJHbCVtuqNglUbfvLHvzm4/0zflRnesm6rMjd721aeGDWM81a9tNJTrfUyCHPahw9iO5LzsvHDxaVxWsmnVYJNUCrh3Mcf/vG73yyI2QnW3Cs//B6s2FxmbRMln5YzpTPH7Ol5P8Re9XKhq/uCVZXyWgpea76B3OQQ8/lfv+yxpBve2lwYMKeudw/rXRw3yArAXMltvewRFpYtNMtCtRyGFj7L9J7TJ9g5ipe9BX6WnHXUvBw3evlZUphGT0yuPPanN5nhIi9Lbipcf9lnzRxZBmZWvaw3lWmhFvXoDQbAWgS8lmKt3xowq8O/euoPK3NSryW/yhZlbm5VHh/Rj/Fiy0aMZaEm5a2Ml10BmNU+fBDLkWTIxg4X50doGYeWcxvgzR364Dff/JptbnL80P6DTz9ByHkNZVa3knFo6bJ05qg9zfBBTF+FZUnMX+m+YJWnPOaCx5xvIDsxsPLcr18BTOmGtzYXdhpTPd1DehfbDTL9EEds67vNOH5NVFi00CutZtlMzWmqZ5jeM7r4SpZiZ26BkyGmHbEv/9ezYwYPN0NMmv3f/t0rx+f4nDS5qeT6yx5L9tCSe1oDLZup9dbO69B+BsCcB9zGgtuUa8SoDP7y539YmpE2vnVrTt5tLI4N68a4sUUjvmKhJ1rrpR9mtg8fxHQk52Rjh4qMQVrMpCWsRjzDvT2v/mn83dcZB95LLUw2FljLETNp0YJs+og9PeeDVnwQ05JgXLl60SxLAsY8YMo1kJ2fEP/qqT+dPnr97PEbzFm1y5htKLO2lUOf7Lk6qHex3OCKH2KKbb238bJbmF8w00tmermlLJmoWQ18muk5rY0vZuiVNHUr5BSQ+vYf3njp7LU3eiZeONV9akW+HEdvLfPJJstp6pole3AJmNZASyaq3tQlM13zcg5gMmpeAsZcIyZl5M8vvLv/3ZNnjvX1Xp5zGtONZVZz8oCxODakH+XGFgz4spkel7U0XrZPSj/M9FZW7MlZ2ehHxZkbtGCJFiw3QgmWCf7iKku0cIsCNzdZovmzsunDtvTsqpcr5vjclasXjJK4Q5dz6LKNWDQJpcitErtVEo9JGduumEOXtWkT164Mal0rQHHpjl5eFeQZJnrBRLUYIzmrhk8te09qE3NpaiF1C4spajGJT3uys+7UjDs9FyguJolNZTa9vGLOfrQITKori0ay3tRFE8XQor2zwPKcy6XLu3TZRpy6jE7q14gAjditlwacukxjmbUcbWF0QD/MiTH02IKJGpXmh1p1H5Jn7PLDK+3DW1m2J6dloweKU700d57mLdw/3HmaMy2bOmhLTXsry97Ksik+23X1gkEUt2uydm3mzmhyNk3GptmipFkd774yUPMSXPRDK2Lb9e3jpf0KPz/XHi9nVDUvj2kS0yl6NkVtYi5FzSXJuSTJqP3d/O6mwrMp6pIpe2ABmFBBi4Y1LxeM1KwG7Z0BlmecDnXOoc40Ytdk7Jr0TTK1l1sVW90wPzKgG2bHGLqalyPS/BC7RffHecbLfnipfXgri/bktHzkw+J4N82aptkz9w9rmmaO3fRywVtZNMVnurovagVRqyprVWVuS9amytlUWasya1VmbA2FTYpYd9eA1rkCgAt+aPlOXhZmjfS8kWoxBnJaBZ9Y8n6siY+n6Kkk1QyTSeq8KfvhPDCuhOYN5FpTDTUvr8+4F6adVkXOqsw0hSI/1K8bZsfndPi8kRqRtM5LrvGSD1poH57KvD05KR/5sDTSRS+P08sT98/SOL00JJs6aE1NeSrz3sq8KT7d1X1RzYtY5BmLPH1bMlZF1qrIWBVblzRIo1cvD2hcywA474UWRbae28TLLn7NS0arvWQYyEkVfGzJe1gTH07SY0mqSc6asvvngVElxNCveckwUNNqpGfGPT/psMiyq/2Wuf+/stxgn26IHZ/V1rwcbqGXHOMlD7TggduFuzJvS0zIR/aXhi7R8yP0QhPMj9DzA/LJA5bUBFBhuCvzxvhUV/cFJTtslKbvCZM0bZTcsolOHL1y6YbGteQEGR5o4TZerijsXbz8jIGebT3UhLJ6dNF7UB0fSNBDcapJThly++aBEQU0q6fWWqunptTItWlgbtxhEmdMklRTiLMDvboBVnxag80a6EFJoWXjeM1LeL59ABWGJTEhH94HDpylZgeouSaYHaBme+WTH9a9BCoMQ3yyq/uCghnSi5J3xCBOGcTpjWzcRCMIX7lY89JRmPNA88Lt4+XyqpdTrZeSntFT44rqkQXvh8r49RjV3zTHDdn3GcCwAprVrXk5o6cmlWj3lHtm1G4QpAzCRBMkDYL0jeu6G8ybXooLQ2x7C37/0uoVco0XPdCcF2K0CXdlzpIY44+9Zzj5hvPCPseF/feN88I++8W/8ac/sKTH3ZVZoDJriE9c7j4vWQpq+EkNP3EXJDX8pLZGYtMmSl7ocs3LBQc464EYItu17cbxFYXjMrcwqadnWs20jhqTVz9e8O1XJrpjdE+0WY7qczUv5dCMlqq3dlpHTSjR7kn39Ihdw0uvdkKtT+4TXqq/R9fPTEyq8Rk9PSBqkZc2n4hjvOiu1M5Em3CX5yypMan8zMqNt2evvDrTdf/MXXltZeBtqeqcNbPu5filnpPjfdyZYck9MdtQfmqId+rUGZVr1gFO17y0XvNEtv5/ukyl8zwrM6GlprV0a5nSUCNy5Mi8/02W+2N96kjT/I3n2z8HDMmhKc0nrR1TYFemPFe75FND5qkhU5OcvyDtZSYnVMSUlu4XFgZbcT1ecgYUHP0lV2nCDU27oZl2AFRm7PkJpbeHrT6zID6+ID523yxKjrPUZ1S+67bCRK2plRlTapQhutIzcO5i98lLV++Ky1dPXt6q5OXrJ4dmz6p9I47iFFCeEVqueSPaLf/PM18LnGSExjTkpJZuLRNaakSBnF0Kv3ZD+cJV3u+6OM3w/BXua32ykwuBYXl1QkPVmzqhoUaVWPdi+OMLov1HFt4/xLh/DjM+OLp4/Kqqj5MZV+ETWrqHnxvmNT2Ow0jFEzJyNF0OcMQNTbVDynqdQGXakh3VxQY1kYFm0EYG9LFBS27UVa63dtqaG5V5ri+rLsyKTs0Im4IhPcO3XDHEh52lSVd5km/s8UetMFLZ/P/HqxWp0Xt0wjGqJpr5kekttx3XkKNKrIebPTnl+mhIf+CGthk+GtQdn3R0c9IjSmxcQ67vcUyF9/Ly56eAYwO6I/3aZjg2ZLw45x8QlcbUxJiW7mInp0T2TKnS1P95rqJwOObhafuNqRurXk617e8kUJ4ESpOuYnOUJl2r0txs56SzNGHJjuiiN9ShfnWorxk0kX5jYsgBTgCVKVtulK8diCT8VRTe6CVB4RACm72xg/2yIXl1TEOPtxhqTE0NypBefqGHk+lhpZuCnenjg4NSZFRFjWuotaaq6TE1NSRD+gRgDyfbXP3p65xsv6g0osDG1PSIhj63EOSoXWCl3JSXKI4kMzGJflbhvQ5UJtzQ5EMHAE26yhPO4rijONE8rtJEvR+Uvl6JfjqdTSI4couXNFHFqoF46vKk9AonNaqm24KKGlYSwwp8WN4UQ3J8WEnUfqS9sZ0qaqT5XSjwIQU+oiTruxiQoycmTDqHvww35yVGYoVS3uxQctRXnOCYG5rYww1N2HIjK4pLJocMLIMYiW3yEiPQVC7DUdpOTzuGlMSohm4XjTLdX85tWnh/FW7aarX+YTXVxUxcnVF4I/EqVt3UaVu+/IctcwmawGujUiUU9fEUYxJnt6s0BlQ6HVdpVOLsZkmHAxEPhECN4xFOYsVy0eL2XZnV1Kb5KmpYRe/RL62emjAINdZULosS6HbKbczf1kuCJjASyxVyJrt6SdytCfa5yh3tpas8qg33rkivGW3KTD6Nbdm/FF5F4WgysSIxnpww9EngISXd4QzI8YsLvqFlNeD3l6EyQeEb/dsufTsvV0MmFImH5VrusuyqOnTNWRp2VUacUAfhqozUDrk0rApeW5J2ybXsaDwEVbe9qMRJDCyDdo93ZEVxZtrRJ64OKuiO5YYMv7gUuTKtUBltqWwaubtBnKCJ23lZG81JrFQp+UNesXJljndJ4rpiyw86K8Mdo+awszJkyw9JXFfm+JeE8hVf0F2Cio0zy08+9xSO4kgqm9ZZ7QPzspOTlmtC6IacGlDQnYWc6pdi5xj+C2MSgcoUjkWhauUug+WdvSRoAsWRQqngCQBSJXee07MoOytzXzEm+uz5QUdxyFUeclXaT3nIVR5epf37qtQOylEctOcHTak+qefKovzcHOeaRMnx+IFCMY8Smy/DP5GSJuofZqgKxVMJjck6tCA5PqI8Ox/sFlR6ZWS/nN719MmoHjFycSV5fMx4dUosUOh9oWCpUrrdh3m13zZ24x3iZa0ohaMECpbBUCSoNSpYgunpla5JzvEl5QmW/iTH/CBgm08t6k8zdGeZ5lMPZo9M48lF5YkJztFpZteKYEpjkAcjAbBUQBvWhjb25noaJzGoWomn4garlcGVXRwTHB5UfjzuPLuU6OIUrvLLD4TKFT58lQ89kH3VjqiLWzy/kj425T04qDs1JBhbFMp1hmA4VKwUt56ON+i43oF34eXqxhiBlqFyIp0APC6VTsYVLcyzRmeW+sfnrz0Qrl+f6D3YfbV74vro/PV273FioWdqsW+eNcIRzqt0MqfbkUjFy3D5njq3piYCpbMpwAPI1NpZlrBngnXiButgD+eDbs4H3ez2sb+bva+b804X/89nuW9d5u9v5742HsWBHs7RPvalUdbYIp8nU1octmgiWoJK99RvdTXv1sv68FRF4WIZTKQTgZDfAdhNVqPWoNXoNQ8ApU6/LNZdn+ayZFqVXtfWPeoMWqPF6HDZ/UFvIp0Ay2AVhfGG1cr1D/d2CZzCq1gVLIOxZAzwuHRGg1CuZorkizzpAlfSPhhc2ciy7PgA++wob5IlnW/nvtaPYpErWRbIeFKVUqe3O+2haCgH5iAEuqfhe70n78HL+jY4hSM4AiFQqVLMF/PZfPaBkSrk9UBkcFFqCyTS+Vz79psr5PJgrlQpVqoVBEdqPXt3qxvr3fpJgsLrdpagUiafiSXjwWjIH/T7At6W4w14PQEf4A9qbN7hJdmSzGL3hTyBtuxrq8b7guFgNB5JZ1NgGYQQ6C7nPJ/01YZh/Z69rNVC4cRqd2MkhhLogwTCcE8cZKtd4WypSrRx7xiB4iTWuHK+ZSfeMROncJzEUBypYjCEQJVqpQKXW04ZruQh2OxLMsQmoyeeqyBluC072q7lEAJVURjFkea77r683OD1HU9JiwtQBEaRvlRxgm+Kg1WUInCqdgn8kLH6wa5/vFv1t7bYTJCmYI4hsUQLVfRm+GhV/XdVT+tOxMPmZe0GKYGQBJAsstRAJF9GKfIhk7J1J2/9wHGayMGowhHiaN2JIozRD32fPHxe1k8GSpP+dIkhMtViA0XibTjZ62d9JydwmkApMgfjy0qnwhYqYcTu6IqH1cvVqEm644V5sTmYKXZm1MRpokqRgXRxRenQe+MVnMB3y+jxsHq5FjVJMpApL8mdHRg1cZqASdIayi3J7f50CSYftkn2bYe4h9tLnKqNYr50eUZoCmZLnRM1MZooYbjWHVuUWGIgXLv+u+1p3slTkS3b9nB7uR41w7kKRwNEClVkt881axNKmsxAKFMFyG3BHIxiD+OKxJ0+RbvBS2J18SiQKY2tKAKZErIbz1P9E4jTBEKRiVJ1UWbRuOJlnNgFl967Nl7WDwwhyVC2xFS5/OnSroyaOE1ABOGM5JZldlcsVyV28yrEroiXq4MCXo+aWejGstKbKtUWlncR9Utvgz85JzLFS8iun0nvHi/rFqIkGcpVuDqPL1XcNVGzPqEUmnxCkz9VrqIP/7L5HUPGbvOy9twTTUQL0CRX40sXUfrhHuxwujaDBHFiUWZTu+NlrHYb9o4ndRcU2IVeEqsXB6FciaV2ueOF6kN7hV4fu70JcEluNflTEL7bFoNu8/nZnV7WvsxJE9E8NMk3OmMF5CGMmvVlc3Mwu6JwhPPlKtkRYXLd1F3rJbG65B7IVhgSqzuee7iiJkYRIIKpXdEFibW2bN4BE8p1I+uJ3evl6sU4SpOxfIWpsrti+YciatYnlOkKuqywKh0hEMF22cLCJv+2e7nLvax9n5MmomBlXmwGdnzUrD+MEslXVhR2jSu2ax4O2k6+2+Tvfi/rc804CLE0bmsoW92pc83VZXPSHEwvK51ALP9wTTxuY9j9vdURXtZvVEaLyCTfaAund+ApxykCIki9JzYvtcVLaG3ZfPfeTb0bUzvDy5tzzUihsqJy2ILpHRU1MZpMlxGh3is2eTMVBKt9BWJX3ay6GxE3lekgL+tzzVgRWlbYbOFUdQc8G1Z/2jxZqjKVTrUrWiZqy1ubzlBnvuwsL9fmmkWIowXsoUyV/HveDaqvULrj+SW5wxxIwwT5UH6Hrj0fpI7zsq5mslRdUQEmXxL+O6mJU0SFII3exIrSGcpXdvGzefcX7zvRy5tRE2ZIavf3HnDUXH3uiShUMbkjylI5kqXqbn2G8v6MrG/VoV7W55qJ2sTOYQoka2o+kEuN9QklV+dR2MOF2rJ5Z91gvEtZO9fLetRMFOFpgdESSsMk1e5HdepPmwezJYbEavAmIaKDnsO4Sx3Xi3W0l3U10xDK1fuswdUrj/bM4utP30EEYQ2lV1ROTxKs7q6vL6771KpEp3tZVzNTQeZEZr07DhNk61dqVh+kr5Ck0hWbFRgTpY54sLdJQfe8rA2mGE2kK1W2ymH0JqCWzjVXJ5REuoKIjH6J2ZeDsV3zFH2T5t1+8z0v19ax62ouymzaWtRszVyzfpUTK8ILUpvBnaxg+C77lvft3Wrm3T0v17ysR81UGVlQOg3+JExSTTpUWzYnCHeysCCzO6O1ry82c546bds9L2+574fRRAZCeHqvBohVmphrYnRt2VznSawoXeE8tLdsfq+fqz0vb/GyHjUzELqssKldUei+vqON0US+iootAY7Gma6sPhzUtsv8ez3fD0v5PS9v8bJ+2jCayMIYT+dWOaKrUfNuh+Cby+YIRwtogFgBwVp/dd8Ziu95uYWX9eXGDIzNiq1KR6SyIWreftKJUEQwUxlmaa2hdO26vjMcakcM3vNyay/r65rZKl6ba7rqUZPASSKSylUpCl+9eYhSJIKv/bdDfHVCaQmkOBq3N137+uKelM34uufltl7iqz+RkIWxJalFZvFDBIkQOFNmjJfQupcJsKJ3BvDVL2aUCVJs8i1ILKkyglEP6G57Myd+h2+75+W2XtbPHEYThSouNHhUjnAJI7WehMTkR2kSpUmNM2IJpasUlSxVhUav3BooIHjt4aAH8gjIDheryebteXkHL+tzzTyMsTUAT+91Z7ApjqqMkxBNs9WuFISGCvC0yGoKpMt7y+atm0/veXkHLxESTxbLGQhJQRhb6+WZE6NcU7SI+HIQU+u3hrPLSpcjVqiS1N5jlE3GyI2b73m5rZf1+WUFQ/WuIFvlWJKaBdbEiDj0Yb9YFyrNK91DAu+iyuvJwmmESkEEiNbus+9d7mzU677THe1l3bz6T1xgNIHVHvwhUIpAKALG8QqGgwiWr2JpGHdnS9pgblEbvbxkf/OKYEgSeucqZ9+AelwRmpR4hri2YbbRGsoWqlgJxSEcrxIEStaqqteJ0bXHlOq725t93o2snetl7dfSCLKIUbkqHa+QQBIy+NMKe0Rk8jOVdrYaYKsB1hpujtbH0fmZWv+80jfEBwb47rPTuvPztqsr9kGea1rqWVJ6V5QeVm0rN1vtZqmcLJVDYglq3UlLOB/IoekqVUDpCk5h5N6F0bZj1LqyneUlShEQTmSreCBbtgRTUktgXmobZev6lzQTIseiJsS1ZMRAQRMumuMVawJypqqeDOLNIGEQj6xBhMHNREAiVMA9GcSdQRwp2JKADNGyOlgUOvMruticwjfCMfcvqqb4JpbSpXFGnOFsFIQLaC2sPpjvb6yf74cl0SleIhSZrqB6d0yg97K1fp4xIrIlVO6MLVLyparRAh4rEvEimSiRiTKZLJOpVdJl8l6pb5harSRRrlUYLxIxEA/nMVcCNoZAuSsltMS5+iBP55WY/O5YoYy34WHk1l0a/11U7ggvUYoMZ8uzQjPPFHMmKlGQSJapVWoKpstk5oFQl7W+60SJDOYxQ7A4J3VydJ4iuhc4bxncd7+XOEUUUGpoRW0MlaNFKlmqkSqRf3eSJSpeogIFkmPN8g3eKo79XSLTztzp7vcSJbFokfjwyiLbEAPSeLREx4tUYgcQK9GhImUMw9e5gUGmtlyFd6Yif5dW7X4vqxjiTcEnh0RLuvSEJLCoDksdGWOo7Eph/jwVKtARkI4V6fgqiSLdcuo1x4p0GKSDedqXJe1xVOsDBZbkrDw4IQ3P6Is3lpSFcgmn1p4C+buosKN2uvu9hDEEiJfOjIgsMVIXxMTO0rI+NSEJ97PsgxzbgjLEN6fVnpwxWLLHq0AK92TJIEiHijXCYI3IKlGQvj31wuHVbYNFOgDS7gzhSKCWKKTzgzJnjm2Iz0h9fUzrABeYVkTZpqzSDRnChMCD3ViQF8rFPS/XPxsd4aUrXjozLLLGKFuMssYoc5Qyhil9kJAB0LI+MyGLDPB9gzz/IM87xPMN873DPGBGFpyTB5c0MaY+yTYkxY68xFGQbo/IlmMbEiv65LwqPCsPjYu8QzxguFZtjQGeb0jgn1Ml2Oa8yo/oQ4QpSlluNkbgxvrnZfnSnpefXPp0ipenh0XmCGXZgDlCmSOUMUIZIpQ+TGoDhMqPKb2IwlOVuSChrSSwFTnmAtOUWzHm5nVpxm1Z0KWZxhzTlONZQaGtJHGWZQCk9FRVPlTjx3Qh0hAmDau7q+93vSXGCMV3Y33z8j0v14MlQRMd5KUxTJnuEWOYMkToe+KedxGhuQDWN6/Y87ITvTw1JDKGyB2IIUxxXVj/npe33gjolHh5ckikC5L6nYc2RLGdWN/CXrz8ZHLZQeP4iSGxNkjtQDRBmunYG8dvkbKTvBwUq/zUfaD2U2o/qfYTmlXUfrJeyXqm2k+sZ95H/coAvWzH+uaVe/PLTpxfHh8UK3y08t5ReMlFRfDjy1On+5fPDbAn+YAMQJQ+kmfMHu9mnO5bOjvAXlZFlD5S6aPuo36Zj16y7XnZqfHy+KBY7qUV947cTZwfYH3/qZf7GNpehvbVD6+8d2JIZCtNcqzf/ukLPdPyD84MP/+XIxJHVeGl7qN+mZdetO552bFeDohlHkp+78gA/Gz/ylPP/01gq8jcxKIi8shP/tA9IZlgGX/wi5f4xvQAQ/XkM28JLGW5+37ql3roeQveO6/aG8c7cRw/NiCWuCjpvSNx4md6l3/+/Pt8S0XqoiRO9LUPLv31UM8Y0/ilbz2x72T/My8fOHhuXOLE7qNyqYsSAzTDjPcuqPJ79yE3LBV1yjrRsQGJyEWJ7wMHdur68pO/e59rrtQ2d+J/OzH4+oGrw8vGrz72qzM32O8eu/Hz599jajNiF3kf9QsBes6E7Xm5MVh20PX40RsSoZMSOul7xoGf7Fl+4rl9HFNZ5CQ5RvCJ598/wF0gAwAABNhJREFUcmV+eNn42H+9wtRmFhWRrz3+u755o9BJ3HPlTprvpGeM2PX5vXh5yxSzU+LlkRsSgZO+H+zE8WvLTzy3n2OCOCbo8OX5x3751qwsNrRs+u5Tr65os5M895e//+wQyyVwUvdRP89JTxvxPS87MV4646XDN8QcO8W10/cKx0pcHFN+/+m3Xj88+NrBgTePjExL41wbMcrxPP7rt/9ysP/Ffd0HLi+xzFXufdXPttMT+r14eUuw7JRx3BkvH+4Xs2wUy0bfK2wbtWKEp2XxGVl8Vp5cMcD1epgmZEaerGUq0kwzdq/Vrpdn2uhx7Z6XneulZMVCrlioncayhR7V7HnZqV4e6pMsmcklM73TWDTTw2rs+rx6b51o4xSzI657nPHyoT7JgolcMFE7jXkTNajCeva83LB42UHzy4O9EoaBYhjoncackR5QoHtebgyWHeTlgV7pjI6a0dE7jWkd3SdDe+Y1e+P4RjU7ZBwvHeiVTGrJSS2905jQ0tdlSM+8ds/LzvKyilWBGPhRn3hMTUxoqJ3GmJbukcDXF/aue265JN/98bKKVQOJbM+c8uKiv1dUGZLjIypqREX//VFSAzL0Gi93bsbGVtrBvec2Nlz67H4vUQJN5bIKve3atPhwn/DIiP7cQrBbUOpXkoMqakhJDSvpYSU99ABQUUMqalBF9cvxK5zs6Wn34QH1iQHBNFvl9AbKcHnjQNbh6d3vJU5iZbgcikZUBuMCV9ozyTl5g/VRL/fD65Kjo8Zzc97LK7ErnMwVHtgtgK4Jq9dE6HUx2ivBeyVEnxTvkxF9MuKGnBq4Lf1ysl6yV0r0SoheCd4jxq6J0W4hfJVfucLNd7FSF5fCp6ddHw9qPrwuONzLOTfEHmbwuRKF1elM59IIjnS4ixsPf/d7WfsPUQRahkrJdMLj9xgsZolSxRSIppe5A7OcqxPccyOck4O8j/uFB/vEH16XftgrOzigOTRkODxsOjJmPzbhOjIBnJjxn7wtx6d9RyddRyech0esh4eNh4b0BwfUH/RKD/RKDvWJj94QnB7iXRzl9kxxR+Y5DDaPI5YqtFqr0x6MBHOFLIzCez8C03Fe1g6YwhEcqcDlHJhLpOKBcMDpdpqsJo1eJ1UqBFIpWyhY5nDmmeyZJebI7Erf1ErvBOvqGPviCPvMEPv4jZVj/SvH+plbcryfeXKAeW6YfWmEdW2c3Tu5MjjDHGWszC0zF1gsJo/PFYmEMqlCrdKZDFaH1e1zh6OhVDZVKBUgBEIJdOMp2Ut3xPrlxtOMUzhKoFWsClUrxUoxD+YyuXQ8FY/GI8FI0BvwujwuB+AwO2wmu1VvsWhNZqXeINPqJSqNSKkWKrZApFSLlRqpRifX6dUGo85sNlgtJrvN6rQ7AYfb5/YFfaFYOJqIJjPJbD4DlgolqASjMIIjGIHuhcmNJ2g93RHj+PrR3pKgcILCMRJDcQTBERiFYRSGqlAZLhfLYLEMFkqFfDGfzWfSuXQqk0ykE9uRTCfS2VQ6l84VcvlivlAqFMtgqVIsw2UIgSAEqmJVtG4hiRF7Pya44br7ljOyIb+DvdzQCwSF4zfBSGwdlEBRHEFxpIpVbw+yWgwlUIxA1zdfr7MWFPd03Njhd0rveXnLcu52H9+9/AfcA/8/mhixepzQxb4AAAAASUVORK5CYII=;" vertex="1" parent="1">
          <mxGeometry x="433" y="66" width="221" height="196" as="geometry" />
        </mxCell>
        <mxCell id="z2YyQgFQYphJJJYKpOAV-3" value="" style="shape=image;verticalLabelPosition=bottom;labelBackgroundColor=default;verticalAlign=top;aspect=fixed;imageAspect=0;image=data:image/png,iVBORw0KGgoAAAANSUhEUgAAALMAAAC4CAIAAAAnsUpnAAAgAElEQVR4Ae29h3cc153nu//IO3vevFnvWY/f7M7s7tgzXtkaj63xsy2HkSUrS6RIScyZFKOYSZAgkXPOGY0MNFIHdM45R3TOuXJ402gJAhtBBFASwuCcz8G5VffW7/7q1rd+N3Sh6j9hJHbAQQusboH/tHrXwZ6DFsBI7EAZByFz7RY4UMba7XIQNvamMhAIjYYxEkNcixCPt8FVRLxuSCLeoEBeFtDRhcajSCiAphIrs0AGY+OKsoUJFFar0GQ8dyAaCkAiEYYjK+3sofQeVAaOZErKkpeuYgQKMZnR//1/kEhovRbPVNYkT59fL3f1/vif3kKcjnRBYeLoMSTox0gMBTNIwJe6+EXq8RMk4MvuREDEvQhLpct8JSMMTrz9ASyX5cwCHZ2xP/wZI9DVteyJPXtPGSCdHv37f4SWLgAKphMffpK6dhMF07nmRjPJ9MPHqctXc8R+/Er8rfeWN5cTEI+HwsBq4n9+B7aYkHAwdf8RMDmFohAkFCaOn47+wyuxf309cfx0/M13YaUi/ehJ4vBn6SeFqYKnkf/7v0FSSbb2lcpAwMSho8mTZzP1DcsAvX0YCu0JWey9ESjisMV+8etMR9dy+yKpePSn/wzQhr6K2zAATk0BtCFgkJZ46/34628A/QNAT2/2L21oGdhmif7w76J//aM8Iv/5B5H/52+Wd6Zu3s5WRKCxn/0KGB3FSCx58QtILEo/fgoMDGYjCgZHf/C3kFQC9PUnPz8V/R8/jr/9YephAazVRH/+q+S5y6kLV3LE3/kw9vNfoRCw7PkuT+ylmAHrdPE/v5N68CgvRIMsVuyVf0kXPl/ZrcAqZfTHP8uFltT1LyEuN+9KwHodrNXkkXj7A2BoeHkn4nVjJAabjZG//hFss2SVcfw0LJevVgZsNIDDw7FX/iVTWw9OTsZ/8wdgeBg2m2C1KuctODkZe/U1FIPz3Ni1m3tGGZBUEvuHVxKnz6NgJr81CRRSKqL/48exV1+Drdnrl72Ex06nyypy6cQnn4HTM/lHrbXEl7xwBZyff6EkhqRu30ucPIsRKIoj8TffgY369MOC6N/+79hPfh77yc8j/9d/yfUmiMkY+4dXgKEh2GJKnLuEoVD8zXfTz0ty1gDaUOyXv33B8loO7J4Ce0YZsFKRqWtIFzxdjs8rE+n6RsTjSpeWo1AGw+BMbX3kP/8g/oc3Ex8dSXx0JBvkf/PHXDr2yi/BqSmMxEAGI3Xm4kqA3r703QeZzm+6KozEABot/pf3kUQsU1GVePej1I3bIIORaWzOtLZBMikkkSQ+/AQ2GbMl+wcif/XD+Btvp588Q2EAEgqi/+unEJOJ+L3Z3O7e2Otv7J4L/62e7BllZGMygSIOG2w0ZJqaE598Dhv0sNEAGw1Ac0vy2OnsqS5NBADaUOS//Cgbz0dHkaAfCfoT7x8C+gdy6dj/+RdgkJYdIkTDsNEAcTixV36Zs4P4fZm6+tSDxytbDXbYYLs1Wz6TQqNhxOuO//7PiMuJIWCuGJpOYBiCEmji0NHoj38GMhjJK9dhnyd5/jIwPAKOjibPXswqo7k1/ua7Ky3v8vTeUcaK2Jsuq0g9erLcsuD4ePL85a+uUzwa/8ObIH06dfELkM3O7VzZm8RefS2njFwW4nXHfvmbFaYm4u9+tLyJkVimpyd5/PQy8bfejf7gb+N/eiv52YnlnemCp5m6+uTx0/E33snOWgkUEvDj732M+DywXhv7p1dBFitTU5f48PBKy7s8vQeVgcGxf/0dMJC973MAff2pm3e+2kQhSKfFCHRrysiOW//XPyHhYDZIJOOw1YL43F8PSNWZ8sroP78W/bsfJz4+krr38Ov9GthmAUbHYJMht56BQkD0n16N/t1P4v/fH+JvvBP7xa/jb72fuvcg8emJZZ93f2KvKQNDgK7u6D+8grgWlxs3U9eQKny+vJlL5CtjYhLxexGfJ/o//wkYHlnqHZJoJAQrFbGfvwZLJZmOztTN27BKEfvVbzMNzRiBgnR68vhSJ4UjaCiQLquI/f7PkFwWf+13WRF8eiJ18w7idKDI10sUK9YzIJUSXnR+lUWgQE9v6st7yTPZbmWvsKeUgUKZ1vbYq/8KTtHRdBLWaZBFB6zXxd94G5iczGvxPGUAHZ3xN96O//Gt2K9/DztsGImlLl+L/+aPsV+/Hnv93xKfHk/df5RpbkVCAXB8PPaLX8N6Xerug3R5JWw2pgufx37zx9Tjp9lV81Ag/trvkIAPjUcyDU3xP7+TPHEG6OvHlka+K9dAs+IDUtmSYBqJhBLvfZx6Xpzn5G7e3DPKQDzu+B/fjP79P4JMZvYXk0VH9Af/b+Sv/yby138Tf/ej3M8oKxsa1mhynQJGYomjx8CZ2ZW5GIlBWg28tP6dtx8jsfTDJ5H/+t+jP/x7kMkE2trj730Eu5y5Ymg4EP/175GA76vNRDRdXJqdHuNIdg303Q9hhXzZIGwxR/7qh5G/+m+Rv/ph9O//cfmo5QK7ObFnlIEhEDgzm50U5AIyjiBeN+K0w047Cn81TVivoaGFBcTjWi939X4UykBMJjgzk1s7Wbk8hQJpcGgYzaRWH5XtgObnl+WYLYCjkEQC8fmQWLRyFW6NY3dfL7N3lLH72m5PXOAtO3mgjD0zJNzyNd7agQfKOFDG2i1woIy122Vr99l+OmrPKCMNptNfP4Sxny7Arj2XPaAMBEeMFuOjgkcz8y/1e+mubeu95diOKSMUCc0z5+iz9EQ6EYqGeELe7PwMg82IJ2PReEQkFS1w2fSZqUQ6AaGQ2WZubmuemsn+RnrA99MCO6YMh8thdVira6vGJsdUWtVnxz8z28yd3R3dvV0Gk/7IZ0eUasXoxOjlq5dznUjfYN9/ZGWkwXQ4Fo4mosj39cjxzigDJdCZ+ZmmlsbLVy83tjSqtKqaumoYg/Um/cPHD/RGXUVVBUag4Vj4T2/8MRjJ/r71H1kZIAIOjw6NToyWlJfwBFz0e3nqeGeUkcwkL16+oNIoWRxWS1uzSqsqKSuGEFAkFRUWFeqNuqfPnyIYvOhZ/P2ffh+JR/alMpLpBJvLXuAtJDPJeDKm0Wt4Qt4CbyEDZVJASq6UKTXKWcZsKBpCcCQNplEC1Rq0z0ueg18/GvKddis7owwIheoaakfGhqtqKgeGB1Ra1YlTJ+ZZ8y3tLUqN0mA2nDxzkj5Lb+9qn56bzsXPqZmpBd7Cd9oW37Nxj88tkooqaypHx0d0Rt2J0ye4Am53X3dFVbnVYX3rnbfGJscm6BN37t2OJqIYiUXikdLyko6uDvh7eZh0Z5SRfU4zk/SH/PFUPJlJZmNGeYkv6IvEIwiOGMyGotKiYCSYu11yFywFpDLQqidA9+6AlEC5fM79R/dPnztdUlasM+rKq8pRAvUFfR9+/IHOqLt4+WIynYAx+M79O3qjLhwNPXryqLK6IqeS70HEO6aMledmdVjHJkaXx1aLbufQyDcP5qwsuW/SCI48ffaEucDk8BbqGut0Rt2TwgIIAY0W46efHzWYDcdPHQ+GA9FE9OKVixq95sat6+2d7Rko8/0MMnbL/5sgOLKy78zb3DdqWHkiCI70DfbVNdaVlpc0tzXrjLpTZ0+1dbRWVlcIxQKHy/H+h+/VNdZVVFfQRmhmq+ntd//S2NzQ2dM5x5xb2VYrbVKb3hUxg9pT2ivWQASMxCOJdCIDpnVGXVFpUTQeiafiKIE63c6z58/4At7sNBWDYQwOx8I5cgW+h3M8UMauWDpzeVxjk2PL1zsYCTa2NO7suOpAGbtCGcua2D2JrSkDxci9yIEINtECm1JGVg0oCaBkCiFjCBnZO0RRMomSAEZu920WKIFDJJEhiTRJ7i0yJAGRBErgLxmWXk4ZBApj6Wja5QqpzR6BwcnSOmY19mntHkFjn9U7WWY3fzGoCqecEJZCNykRhMQSEGzxJ8QmH1PppEts4wLz2N5hXGieltiYSofE7LcF40kYQb9tKehblYGiBJSCAgYnx+hmu+OSIKCJQsY4bEkg9r1CHLZGIUMI1LoTUpN3Qe/gJkE/SsJLfeK3B1iYwO3h1ATfyFT7Jfa01gsb/aglgFoD2F7BEkCNflTjhST2FEPpmRZZvAkQ2jB+fIsyEAIKJ206J9Mdl8RQSxJzJDFnEnOmsMW9Rc7tJOaMoxZPQmZwsoMJK4wD3yoOAEXVjvCk0KZygbYwYQvh9jDh2JvYw4Q9TFjDhMyRmRBYDe4YiK97Y2ykDISAQwmbwcUOgboEZk9gjgTm3CZJ1LkdKPEhgdnDkMHi5fljFpT4+j/M1oquEI7JzH6WNmgMoPYQvm+whXCjH2WpvDpXFFpHHBspI57xKy0zQUgbz8piu5pIYE5/2lTZ8Ky6sXhLFDV1VcQQ+5JGt+9MVhwa+3wi40GJtd92guCYfjEyLnIYA5g1jO8/DAF8lGexBZIIsUbkWE8ZKIxlzC6hJyGJo9Y4aqcCm9kr+fzUEYVGvjXOXz3lSxpi1PnjiktUFgaAfPU2vrxBezQDTYmsGg9mCRLbRx/A5W5ky6g8qIkKN1aeiDlIKFzwtNgeA9a4N9ZWBkog0ZRLbafHUOOSMqzb/xtFLGrrwunzJ7x+z9a4fO2cLSCPQObtO5OzEEVNKgc9ELOjqx6UgnFU6wgz1EFKrofJj4+LPSUD8uoRZc1WUDzt4Gq8+MrrSknaHCTpMp/BHUPw/HcQrq0MGAMtbpnROxPHTHHUQglRxKw0s06dO+7yurbGhatnzF5xGDJS4k8ctcQwszPOM7nEEJr//49JCBnlW8W2tCmAm7eN3oO00zUcS8YSIqybxxIinnfyhDbI5Me278xKC6YAzjYkmApnBslf6VlbGRkoJlCNuhL8rDIwMyVEEZPCxDh59pjT7dwa5784bfYKw7CBEn/imDmGmfyATGmZzUDxlW+FQwnUH083TWnUbtQcILePZhFsHJGxzRnTlqyZAmRhB5etTxh82PadybMgX0R659TRDJz3+/4aykAJNJ7xMSSdAVAew4yxbAtSQAQ2KkyME2c+tztt62FzWNfLsjtt56+cyioDMlDiz5IRUxBUSwyj8XQAJb65aRAccQYiNWNqjRc3+Ynto3Zk6obEDGNG7ycMm0fvJ560cxiamN6Dbt+ZPAtaD940JvXGwbwOZW1lhJOLM/yGMKKLoiaqCEMGuZFx/NRnFpt5TWbnZ548e6LVa9bMtdjMZy+fMHmEIVBPlUtR1BQENSIdLRz3Lj83lH3NIwabXf7KEZXGR+qpQOkAammSOX1G4yG1m0fjIR+3cebVMa0Ho8SfPCN1Q2JnJL2yBdZ+cgcl0GDMMcWpi6KGKGqkijCklxvnPz951GgxrkZr0B4/eexnr74yQZ9Ynbu0x3D20gmTRxACdVS5FEWNQVAj1A6G456V7QKhsNHpKR9WUqUMhR2ooUmntRn5IqHIBxea0kNMQ++0miH3y534qgKEfJF41MqdU0c17u9EGbVDIkf45ZQRiNmnOHURRBdB9FQRhnUy49znJ44aTPrVzLPmX/2XV8+cP1NQWLA612DS6026MxePG938EKilyqUIog+CKoF2YA1lODzlwwqVj9B58e0jswNVNOmkOi1z4nkwlcFL96pKW8baRgU1PSyxFc4rkNtcUkZM40a378xqCzVDInsotfLeWDdmBGL2SU5tCNGFED1VBGGd1DD76YlPtAbtav79keDjp45393a9/offSeSS1QW0Bs3pC8eMbn4A1FDlUgjR+wCVQNu/tjKGlCoPqaMCqQ2sosnGlRmxnZC8AP68YeRBWbfEikrs+BJ5BbKbYjvxsIUzq4qpFzFK/FlpROsht6AM7ZI4dJT8DUBaqXHm0+OHVVpVHkqN8vDRwxcvX3j89PGrv/h5Q1N9XoHc5ukLnxncXH9WGdS4FEJ0PkC5njLKhpQKN6Fx4dtHagWqBmXD8jTfQqxEYMFO3yhuoglW7lwzfa+JN6OMKZ3o9p3Js6B24dW0TccMTQjRUkUAUkuNM0ePfaxQK/LgCbiHjhwSigUKtaKmvubdD96VyiV5ZRRqxcnznxrcHD+opMqlEKL1AYr1lFFKU8rdhMqNbx+xFagYlA/I0mwzsbACjhk792Vl/YBg5c7VabaZuNPEoyvjcie2fWdWW6imCTfbm1CrDKXUSP/k849lClketBFadW2VRCaRKWTMBebd+3c5PE5eGZlCevLcUYN7gWplyAXavjV7k1KaUuYmVVlxbBeRBSgflPdJ0gwDznwBrKSdcexa2bjIP6dO97Hd83r0xQLZ8gwDfruRP6WIy53o9p3Js6B0E5tWRhBWUkgAUkqM9E8++0gsE+chkopEUtHyTqFEuJxemThx9ojew/aDcgq98gFS/jrKKKEppfnziNUzi5faIzSD5QOKHnFmVk++CDGlAh7VTf75yM33Tz4qaJib1qAvFviq/JdLypA5sNUzl+3vqRrcZMwIwgoKr0EAUkiMk4eOvi8Q8bfGsTOf6N0sapXhzXw/ygDK+hUdgsykmphajQodFieHRclJJbJGrpqYVBM3G3iT8pjUjm5fB3kW5IvEDivDD8rFhomPjrzH4XO2xMLnpw/p3EwfIKNQrxspY1ApcRJyJ759BCagtF/Ryk2PKcjxzTOmIG/U8ydkUakd3b4zqy1sVhk1QVi+FDYUlPz1gzKxYeLDT95hc1hbgMVhfnYqpwwpJf7kjHgB8Zq9icHhKR5Uip2knAr4JrC0X9W0kKbJya1xtY4/LotJ7Bgl/qw0InOSVYPiTY1AawKwjEL8oFRsGP/g0NvzrPktMffpiY90boYXkFDolRcQ8TW9q0egOWWInKTEQWwfrhEs7lfXstK9EmJrXKkTjMmiIhu2fWdWW6gclGxCGROcah8s9cEyqvBCUrFx7J0P3xgeHxoZH948tMPH3tW65zyAhCqXfLDMnVlPGd7iQaXQQUqogGOAivo1VYx0l4js3jxdIuJKrWBUEhNaMUr8yTOyWWVU+WAJhXghidJJv3bv5JUvT126eXKzXPny5J3C8zrvvAcUU+iVOyNYJ2Z4iwaVAjsppgKOHnzepymZTjZy8KYtcbFaOCyJCSwYJf7kGanYVG8ywanywVReAy8kNoeZfM3gFLdlnN04xtock9xmrnbAEmZ5QBGlyuDztT1r9SbeZwNKno0QUAHbAFbQdMeLWCe2yumimVFJlGfBKPEnz0jFwGbGGROcSh8sWhKHmJK/XkjsyvCsUZYxMGfwz26eOWuE5crwvRCVXrkz6yujX8m1kYJtw7eRCwaIxnXVDIhK25glbYzNUtbJbpnQTiviPAu+fX/yLPBtZMXA5sYZlT5YuCQOEVV/vZDQCwk94BbxgtnDqXImZ8ed4a0bM/qVXCvJpwKOCZvXpCbEgVG+Z4Tv3iyjAu+ULMrWQzwLQYk/eUY2rQwvJMhdy33815Xm8jXr9CZ9Ko6V5FGCheSasAUjyjZskQUjxjXj1Diz6ozK+zfZm/wHV0Zhn4pjIXn/Adi0MjwgzwPyqcUL8LcO1c54QP5iaoGn6V5zBFrYp2KbCS51cMzEdqDQk5WmOGaibLMxwwNyqcWdXDDKu/SiTr14K5jUfZ4MxS4tptg8Tdeaynjaq2SZCI4RpwSGEZ8woFuGbkBZJmo8WX06O6wMN8Bx+mbENfdjovmYhLVpRPPClifuGMsNcCjU6wbKeNKrZBhJNhWwDHgbP/B03lTGNpVvicfjmik9Rokzq42U9m1mnDHOqXSBCy6IOgCOwT4qaywk7QbSYd40doOwrcjsnVrMsCn0ypFmrhczCrLKIFhUMKdFKqYNs0FQlyYMm0eXJp5NqwcVGaYep8SfPCObVwaFsoAWFoEFjXlQVl9AWrSk3bhprDp+81Otc9TxfSrDQLKoYFoFFI2pZrLKwPSbR5fGn9LVXcLIvA6jxJ88I5tTxhinYhFgL4KU4QRYWWXUFZAmDWnRbRqTmt/0ROsccWSYFHplT81z1Z1rjjMe96pnDSRDTwF0BfhsREkPgOoUoUnhm0WdwgumVO380KwOp8SflUbm9WRx32ZWurLKAJkU4sww1KYBWc0jUqcgjapNo5fzGwu0ziFHep5Cr+ypufWU8ahHNaMn5qhgSgE+HVFO+EFFklBuHkWSeDylauOHZrQYJf7kGdlpZQAMtalfXv2A1EhInTwPD4Mu7G6V9nb4Fubysr7a1EgEDY81jiF7eu57VAaZ14hb2dQR4wrgybByxAeKk6RkBdIkIfCnFhYjC4tRURiSJoiVuctpcZJ8NKVu5YWnNbtCGeWLIINCnMBcVhmV90mlkFSLSc0K1OL2+1+WX78yXl16/7PDoEzwQm6upEogqH+odeaUQZlj9tQMV9OxZm/yqEdF15GzWgoYl4MFw6ohLyiIE6IXwK5XNV8orLxV13mnsWfW4n8x96vCgjjxYErdzAvRNRgl/qw0MqPddG9S7gTmKMSRmVWbeuWVd0k5l1QKXkAhaL51te95gXVq+PI7bySErBdyc4XlPGH9A41z0J6eodArW3J6PWU87FZN6sjp7aMlx2Tg42HVgAfkxgheDF+GH8VOPCrqFqi5EaRumvvbT07Ou+LLucsJbgy/N6Vu5oam1BgF/uSfEVG0yXFGuQOYoxB7Vhk9ioo7pIRNyjh5NF6/dPXjd0vPnyw+dwIUsvJys5sStqj2rsYxYE/PUOiVdQNldKknNeQ0FYxKwUdDqj43yIqS7G8gOBHs84fP2/lqdpRgB8DXDh2rovOy6W/KZMuzouTdSXUzJzilwijx50UjRFHv5kag5XZgjkJsmVmVqVtRdpsUzpEiZh7N1y72FxVEODPHf/srbU8rKWLlFSCF88KaOyrHgDU9TaFXluQ0Z53e5GGnakJN0qlgRAI+GFZ3u8D5CMFYASuMffaguJWvZkRwVgh+49y1wqE5RgRfWYYRIeYjxJ1JdRMnNKnEKPEnz0hRz+aUUWYHpu0gZdgydKWpS1F6i+TNkPz5PFq/uDBQ+DDOop//0281HQ15udlN3oyw6rbK0W9JT1HolSU1ydG0rznOuN+lGlORkypi+wyLwQdDmo5FcDpMzKxgPoQdvV/cxFXPhvF+tfOn73zSrXLOhvGVZXLp2xOahoXQhALbvjOrLTzfrDJswJQNmKQKa2ZKaepUlNwg2VPkwnQetNvXzv3+N/c/+EvfrSsIa40CJHtKVHlL5ei1pCeocskGTJpT4xxN25rKuNepGlWS41RAE0P3hjRtTnAySEytYDqIfvjl07tdo+UM2bu3nhRPcOlBfGWBXHoySNya0Nazw2NyjBJ/XjRCbF4ZGWqVMaE0tiuLrpGMUZI5kQc8O5qcGEhODKDzY3lZX20yxkQVN5SObkt6nEplJMfWUYbvXqdqWEmOUsGgCLxL0zQ7wJEgOfoNxFgQL2er7vbRH9DmGqW2MT82GiRWFPim8M0JbS0rNCrDKPHnRSPEs03GjFJbZtIGTFCFNT2uMLYpn31BzgyRsyObZmZIVH5Nae8yp8aocskGTJjXV8bdDvWQghihggEheGdQU28HBwME7UWGAvhQABsK4Hn7V24OBohr45oaZmhEhlLiz4tG8MLuzfyiNsYptWXGbQBlWDNjCmOr8ullcrKPpA9smqk+cekXCnunOTVCoVfm5Mh6MeNuh5qmIEeooF8IfjmoqbGDvX6yb/P0+skvxjXVzNCwFKPEnxeNEJtWhjUzSiGW9IjC2KIuuEiOdpJj3eRYz+YY7RSXXJbbO8ypYQq9MiWHFjStq8cZeofvTod6UE4OUUGvALo1qKmwgR0+snNLXBrTVjJCNClGiT8vGtm0MkqsmREKsaSHFYYmdcE5cqiNHN48Q62SoosKe5spOUShV+sqw5lVRr+MHKSCbj54Y0BTYgFavMRW8BAXxnTl86F+MUaJPy8aIZ52b2LWahvjFFsyw+bMEFWY0kMyYyP73qfeusfe+oLN4ql7zHh6QmZvNSQHqXLJnBkyJAcXNC1rxAyn73a7pk9KDlBBNw+8PqB9ZgbrPGT9ljg3qiufC/aLMEr8edEI8bRLag+99BvcxrklltSgNUMZ5vSgzN5C77w2WHK8r+jzvqJjm2Kg5PhU73XpYqsxOUChV6Zk/9rKcGSV0SMm+6mgkwfd7NfdEQeeqmJb48yAqmIu1CvCKPFnpZE+MVHQ9dIxIxhzTvGq9fFuU2aAQlTBzgVt9aTg2Ri3cLNMCp6ztVWKUIcx3U+hS/pE74J6jXGGcdF/t0PVJcR7xMT26eDBT4ftpxq5n1XNflq5SapmP6+e/6JNUjcX7abIn5Vn1CXEC3ukjlDypd7tF457ZwQtylCLKUPlZTCk+jWRblWwUxns2DydqkiXPtlLoSxMmX5ttJOj7Iom/CtfSg9jsNUTeNKt6ODDPSJi+3QK0PrZaNGgtbBX97Rn0zzrM5SPuVoXMt0ifPvOrLTQLSJauHD5oNQVTryUMuLJCF8xzrdXmzK9pkwfhRjTfVlSWyJNpSdLJ9Wr8LUKVaPxVHSlMhAc8YTC9WOKRlayS0hun04h2c5DW9lACyuzNVoX4A4Bvn1PVluono11z6kDsdi3KwMjsTSQ0ppF88oaY7pnSRy9+/KvMd3D0tSpDLw0mF75PnaUQKOJ2DRfWzHp6hCRnVQhJDu3DFU+vGinQ0SWj9oZYkMinVjZAmu/KRYjMQiF3D7nvKhL7m83ZXr2Kwp/6ySn0eG2QMgLX7FACTQNptUmWwVN1syB2gXkfqVpIVMzJDHYnQCUyfvwzxpvpMdIDMGReDIm03An+VXqcLsx3bX/0ETbZ8TVYiUzkois7EpyDQSjkC8UGGPJn/XrWjhoG5/cfzQtQM97FdN8ZTAayutK1o0ZGIFCCOj2LTL5wzPSSnW0TZ/u2k9ooh3zqhoGf9jldQIwkHe7ZDeXwobRamsf45WN2Js4aCuP3E80LSAlNOGXEdgAABs9SURBVEPftMi26EiD6ZWfd8m1xtoxAyMxlEBTQMrqMM3zaJP8KuFivT7ZYUjvfVIdYlfDhKBiltNvsRlSmeTqgJFrGgSDo4moUm/oGOcX9qmqpqNNXLyZS+598Ap6+Fm3tGdKoDWZ46n46oCxfsxY+kQliiPJTNJiNzE4Y/1T5ROiIpGrRhVu0sZbdIk2XaKdWrSJdm2iQ0u12ZyT2kSrKtIsctXQJUX9U6XzC6NmmzGxTqMshxAYgyPxiFqv75viFLTMPerRlU1FaxlgAxttYGOUU/8d2FzhJFrDBEunIo+61IUtsyNzXJ3JFEvGYGyNz+t9izKykQNHUpnkoscpUQimmIM0ej1ttozGeE5jPqOcfmZxw0RR+0zxIPM7sM94Tpsro9Hrpub7xHKe0+1IphPIOo2yrAws+9nzbOSw2Cxsgbh7jFHZNVvYzn7cxn3UxqGQh23ce62CSzWca/W8h5RaXnbycRvnWQe7snuud5zJFUutDlt8fVl8uzJy3QoIA9F4xOlyqHVKvmiBwaHPMSdmmePUMs0c76dPlbT20mboM5Tan2OOMxameCKWUqtwLNojsTAAA+t1It/I4utv+6I4kgbTwUjQarfIlAoWXzjL5tGZnCnGAlUMz/HLu2bKehjDczyqbK60Q2dyZthcNl8oV6msdmsoGsqA6Y1bYN1xxgsNRKAIjoAwmEwnwrGQP+Tf2mc1Nz7K4/e4/D65aXGIIVGanW6/d+Pym8r1B32haCieioMwkA0VRP5HKF843681sbwTXQoeGSgTS8aDkaAv6NtU7RsUdvl8CpNziCFjy01OX5Das15Zry/XAsl4BkzDWP739JbPdDnxcsr4uqVQHEFxBMERGIW+I0AUdkWSs2KjJw5AKExZLRicdX6TglhupuVE7vQRjALHIBTKoKjOFZ4SmpyhZAb5DlsVRiEk1wKrvky7fGp5ic0pI+/g72gTITBPND3G1bpjaYTEv6NadtYsSmBxEJaavXNScwSA0a/vvZ31amXtu1EZ2aU2EvMnAabC4k0A8P4SB0piCIEHktCs1KxxBpMIugtl8VIj0JU6ykvnel8k179gMLxELmIDMAC+uOSMkVgKyH7GDYAyyNJ8GMGRFJDK2cyGVigDIuDyUeiSOGgMmcUXhnEMI7JLLHkO7L1NAgNR2OQJD7GUFn8sgyEQBueWE1ACjSWieeeYAlIQCgFQBiXQzNJfEAGXlx9yubFkLO+o9NJIItc4eVkv32LbihkCsaC2obajq72ts622obahuaGotMjldWEk1tjSODg8mPv+mUavyQ39auprDCZ9d2+XzWGtbahVapRFJc8D4YBKqxoaHaqurers6eyn9WsN2kQ6AaGQzmjgiGVnr91lC2VWh32WMbfe5PvlT3gHS6Ik5g1HHj4ruXjrMV+uLix+Xt/UUFNfM8+cw0jMYDZ8fPgjiVySazSn24lgMH2WXt9UNzI2LFfJR8ZHooloV2+X0+202C0qrerx08fjU+PHTnwukorsi3YERxY9iyqtqryqfHJ60mQ1GcwGjV6ztVPeljIGhgaUasWNW9cvXbno9XuiieiVa1f0Jv08a/7VX/z8+s1rbZ1tBYUFr/36V2qdGsERm9NmdVhHx0fmWfM3b9/s6O5YdDs1es3tu19++vnRf3vz3z489OHhI4eOnzw2x5xLA6mh0aHOns5Dn3566cuCUxevlldXQii0tfPc8aMQEg9loI5x5qHjZzt6uienJx8/fRxNRCUycd9gXygaOnP+zE9/9tOa+prWjtbDRw+XV5bBGAzAgFAiNJoNV65daWhq0Bm13b1dGTDd1dN5597t1379q+Mnj/3ob//m/MVzh48cSoNpgVjQ2dP56bFPnzx7UlNX/ebbb8pV8q2d+7aU0dHdUVZRevLMyXMXz3EF3JKy4vsP75lt5rbONp6Ad+nKxRu3bpw6e4rBZoAIaHfaevq7/UH/4PBgR3fHsZPHBocHmWyGTCn78NCHb7/7l/c+fO+d997+4KP3v7h2ZXpueoG7MDk9OTk9eezkseu37/36D2/WtnSabDaUwLZ2qhiJ4TgCmtWe+XEfezqjVxBwBnFb/fPjPs5sSisl4AyBZGCXxceb9wnZcCyEv/RIfgOXUBIDMEzvCs1JzRy59i/vvXv1xtVJ+sSNL2+0trc+fvJYIBaIpKI55tzg8OC5i+fOXTxXUFjgC/rSYLqju0OmlPGEvAFa/83bN/sG+4bHhqPxSFVN1cnTJ37+zz87fur4D3/0wwuXzl+/dV2tU9Nn6ZPTk5euXLp97/bHn3xcXFbM4S3k/ZK8gasrs7aljMHhQb1Jf/P2zUNHDv329d88L3n+0eGPaMODZRWldY11tOFBg9kwODRQVlFaWl7icDk4fI5IKrp7/45MIZPIJXPMuQuXzkfjEaFYcO7CWS6fMzox2tnTefL0iX5avzfgtdgtA0MDb7z1RntXO18i6RiaERucELH12QqBQam2ikhXHaoTu57fgR1GaHYo1lCMGmXWwi9xiwaQcBZrnsN6GWLVRnRK/FsXSb9tToGSWAYnhEYvW+WIgojd5bx89XL/YN/U9ORPfvqT67euP3j8oKyybGRsuLq2qr6pnifkGUz6qtqqgsKCgaEBk9U0Mj7y+MkjiVwiVUhlSllFdYXZanK6nbdu3ywpLxFKhIVFhSVlxR98/IHVYXV5XRK55OSZk4ePHmYuMJUapcf/wuerV177jdPbUkZHd0dVbdWps6cuXrn46MkjFof16edHXV7XyNhwR1f7uYvnyipK+2n9dY11C7wFAAYEYoFcJf/o0Iel5SVlFaUPHt3/5OgnzAXmJ0cPX791vaS85Hnxs8KiwstXL+fC7K07t67dvPbg0f3S8pIvrn0xMcdiKux6VwTCtygOAoOSreXRqUEyHfbVFwNqMTg7lOhrJtNRe30xzp3ylj2E9bKsIAh0s6thqxsaIXF/IsNU2EVGTxrNzkGcbud7H7x788sbk/SJw0cOdXR3jE+Nz7PmbU5bZ09na3vL5auXewd6O7o7GprqA+GAy+uamBq/+eWN4tKisorSsorSM+fPsLnsmrrqQ598XNdQ+6SwoKm16ez5M2aryeP3DI8OHT56+Obtm9mWfP703fffiafiqx17mT3bUkbvQK9cKbt+6/rlq5cFYsGhTz4eGh3KPtuRii/wFm7dvrnoWQzHwu1d7VwBF8GRyuoKqUJ66MihyprKyprKf4+Znx37NBKPPCkskMgloxOjdQ11BrPhWdEzAAb0Jn1RadGd+3dyhS99cWmWMZeAEY7aobD4QHwrfQqBQZmWMsfDq6GuulBTGR7xQdMDnjvnPQMti3VFhFW9+PAqFnLjVEyCIAI3emJ0od4ZTi57a7FbLn9xuaOrfWp68v6j+3fv3zl55qTX74Ex2ONzPy9+PkDrD0VDKo3yeclzBEdGxoab25pv3b5ZXlWea4fzl85r9BqVVtXU0hiNR548exKKhlo7WiPxSCAcsDls77z/TklZcWVNZVHJ89/94XexZOxldLC6zNaVgRJoY3ODVC65defWxSsX2zvbLly+0NbRarFbJugT9Y11Lq/LYrfQZ6YeFjx0e12ReORZ8TONXlPXUIsSaCTbiQhv3b4VjoUFYsHw2PDT50/Lq8oLiwpHxoZzM7HGlsbW9hb6LJ0+Sy8uK2YuMDECSyIYU25WO4PQ5sWR7U1ayj1NFd7GsmhtIZEKg7O0QPXThF6BRHxkIrj49BbmsWWHF9sQB0JiSQSVWXwzIn0oAyErehw2l13XUNvS1jw7P3P2wtnrt67fuXdbKBGarKb6pvrJ6clQNDTHnGttb5mZnwER8M79O3KlbHk0al+0N7c12xxWm9M2OT3ZN9hXWl5SUFhQU1djshizKwIwcPzU8ZHxEfosfWh06J333t4ZZWh0ap6AyxPyWBwWT8iLJWMmq0lr0DpdjtzjMNF41Oa0uX1ulECzt4JWFY6FdUYdRmI2h3WWMatQK9w+N4PN0Bl1uV+EA+GA1qD1Bry5iZzWoLU5bTanTa6Su33upV/4sBSCCg0eocEFbFIcBAYlWssj08NExOd7dhsSMcGZwfhAG4lCGIEQKBDqaw4NtJLJEJEMJT3OTY9ACQwhMG8iQxcZlfZACkHzxss2p81sNc2z5n1B39jkmMvnCkdDIqnIF/SFY+Hsj1MI6HA57Iv23OoOT8hLpBMavQbBkUQ6scBbYHFYiXRCppSJpKJFzyIAAwAM2Jw2iVwCoRCMwQu8BbPNnK3IZp5jzIJrPpe0Qqyro0Vuz9ZjxnoWv4/9BJZB8XmFXWbxZjDs5dcQcRyOz4xEJTwShSClKNTXCkrYsYUZIjfSJFA8FowNtllqnju7GjNW3Vf7X6Idc5IFccwWTEwJ9I5wGt7GSPn7aMNvO6m9qYyls8rgmMTsFhvducHdS7UmgWEwgKEgRqB49jnoFI4AGPLN0344juJwBsnEESD51Tj021owVy9KYgkYEWgXOWpHMLUfVvT3sDIwEgNxTGRw8bSODIa/fOR4KQ29nCByphACi4DojMiosAcAnNhBTyg8tb2tjJw4ZFaf0OBOLU0LURKDsPzencL2ypmC8ex4ItuDkBiE4yZvdE5qMfuiy3MQymv8/g3ueWVgBAZimMIWmBMbkgiGEKjW5k4gBPqd/UKLkLjFGwqnAJTE0ijO0zrnZJZIBt5nvwnvfWUshX2IwNTOoEC3mIAxqXHRHMh8d8pIojhdoImCcCAJLKjsIoMrF66+/9v6O61xnygj163oXJEJvt4cSg+zVd/R1AAhMZnVKzD5da7IGFfnCCX2Uw+yUmr7RBkghnqiKX8KVDqjs0p3y6Q0AiIomR2WUksCQQbZWpY+NCOzB9MogOEIsYlp88qm3+Xp/aMMozvA1zrH+Mb6Kf3Fiuk5jVvvDRuohm3wXG9gVU4Yu9imZrqqY1Zt8sdjEAITOzk5+i5Etk+UgZFYBsUM/nQfb7GRbmygG/vYVrrYMU01w3zHIM89InIPi9w0oWeA7xrmWWgLep7eG0hB8DaeEPguru52bO4LZRBYAkIEei9D5VMsgkY/agnitiBuD1GPLWczjNuXsIVwSxDT+xChOT4rd5m8seyDiZtZC9m1hfeDMjIIylI4+ca4OYTbdg69Hx0V2Cy++P6IHHteGTCOqRwhhjpgChKWELaz6HzoCN/ii2eXOnZtMHhJx/a8MhIwMcI1Kt2IJUjsOOYgwTHERCY/hO35x9z3tjIQHDV54zSO3eQnzAF8N6BchEd4lhQEbflx/pe8p7/rYntbGSAK8zWOMXHA6CdMuwONB+uc1USSiY3/n/i7vq7bt7+3lZGBgBmhbkIR0vsIow/fDWg8eOuUwh+JfPsrGHb3WGRvKyMNZia5yglFSOcldgkqD94yIfcGQwfK2MlB+JIyFGPyoNpDaHYHchfefKCM7Xdm27SQixmjspDSjau+FRehchHqLaFyEd9uf8kB6SLWNKE4iBk7GTCyb7TN9iaqJWUQKvdGKF2E2kGoTZjahG8BlQlT2XBlVh/fgnQRP1DGDstiWRkj0pBikdgYmR0dmtBNT2hZc8YtwJwz9tMUUisq/7aKJE688SBmbLMv2P7huZgxLAnJnfjGCE2Zrl6BwxAP+8AtEPJBA/0SgT4jcxIbVyR2YA3jB73JTs+7lpShpklCUichWx+pA+fqUy3tCzZ9NOjObAmgp1vIUSckDnyDimROQujA6w+Usf2bfpsWvlKGOCRxEBuCL2hTza0sqzbqX0xvAd9iprOLz1bFxXZ8w4oIgf1AGTsdML4eZ6gHRCGRnRSvj8hGsDWpphaWSR3xONJbItPRyWcq40IrvkFFYjvJtxJ1Ywe9yU6LIxcz+oUhgZUQbgTOVCcbW1hGRdhlTa0iOdBDL3xcXfa8aX5KvCo3W37Rmm7vEDDkCYEF37AigmvBD5SxS+Ym6j5hiGcl+evDsxAMVaq+maWXBxctiTyc5tj1K/famgY0CodZ68/LzW06zcm2DuG8LM6zEBtUxLeSC5aDmLHTAWO5N+kVhHkWcgO4ZmJemaprYmslQYcxkYfdELt68W5TTZ9cYDNrQnm5uU27MdneLpiTJbhmYoOKeBaSbSZqRw96k50WR6436eWHuWZiAzgmfE6Rqm1ia0RBuy6Rh00buXDm5vtvf3r1wgPmlNyui+cVsOsSNl2itY0/I41zTPgGFXHNBMuE144qvcHwwe8mO9mn5JTRwwtzTCTXRKwHx0jMKpK1jQtKgd+qjr1I1KwOXb5wp6t1zKIOWdQRqzr6YoFseYs61toqmJbEF4z4erXk9jONeM2BMrY559z+4SkwM85Vd3FDbAOxIfi0LKsMBc9nVkbyMCmDl87d7mweMagCJmUwLze3aVJGWlr5dHGcpcc3rIhg6PHqEYXnIGZs/+pux0JOGZ3cMNNAstaHqSfoslRNw4KM4zPIonno5aHq0q7rl548vF3R1zanl4XzChhkUb0s2tzMnxQlmHpig4pYBnJWR1SPKA+UsZNdSfalxNmYoW3nhBl6ciN0xKQkVV3PkbC8WnE4H0lYLQooBT6lwKcWBvJzvy7f2CSYECXmdcRGFemzyqgaUR0oY1coo20hPKcj5tdnTkeMS1LVdQvieY9WGN4CGmG4oYE/LozPavENKprXEdNavGr4QBk7PTfJxYwlZZBzunWZ1RJj4lRVLUc461bxQltAyQvV1/NHBYlZLbFBRXM6clpLHChjhwPGcm/SuhCe1pIz6zOtIUZFWWXwptzyheAWkC0E6+oFo/wEXY1vUNGMlpzSEJUHMWM7g0dKjl2KGbpmVnhKTdI3Ah8WJitquJzxRSkjsAUkjEBdHX+YG59S4XQ1sUFdEyq8YuigN9kVvYmukRmeUJEboSSGBKmKah57ZFE0E9wCwplgTa1giBufVBIbVaQiR5VE+YEyKLnvt2MkFzMaGOExJTm+PmNKkiZIl7dIC55OPHo8sgUePx0vrhcM8JLjCmKDisaV5LCCKDtQxnYuKiXH5pRRNx8eURAbMygCm+iuoi7p0xZ+4SZ52sJ/1iGun7APCIFRGb5xRTQ5XkY76E12R29SNx8elpMj6zMsJ4ckWB8f6GDHOliRLdDOivbwMjQJOizbqKIROUmTEaU09cF6xg5PT3Ixo2Y2PCQlvxWahBiUEDQJvgUGJfiglKC9RC0DEqJk8EAZuyNmVM2GB6Tk4O6gT0IUHyiDkrHCdoykwMwk31BOD/VKyD7xrqBbdKCMnQ4YuSd35qTmkjF3t4jo2R108NGyIbU3dPB8xo7qA4ABudldPKDtEOBdQnI30MROt9I1gUhk+duZ2wmKO3js3v5feAiFHF5/w5i0bj7ZLiB3AUTZmJPO10aT8YM3q+zk9ATFkUgiOi9Sl9K0LRykjU/uIK08onomWj0o1Fmy363ZzleVdjBULFe9t2MGRmIADNgXnf3Twmc9qnom2MwlW3aCZi5RTQ8X9wrZEmUwmv260XIT79HEnlcGSqCJdEJnMvVP8Qo7+UU0ezk9VjWfqZoHvh8q5jKlE8GnvZryHvY8X7rodee+FLZHBbHs9p5XBkZiCI7EkjGj1TrLETbRGMUdjCet8wWtjO+BJ62Mp62M8q75nnGWQKZw+TxpML3XRxg5cewHZeTEkQZS3oBXb9KLpOIF3gJjgcVYYH73sDh8rkwpt9gtoWgIgIH9IQuMxPaJMpY+cIdmP4wGpKLxSDAS9If8/qDvuyYQ8gcjwXgylgHTcO77vzs6jV/uC7af2D/KWG4LlEARHPneyAaJbXzcddnt3ZbYh8rYbU28R/05UMZOrsfsZtEcKONAGWu3wIEy1m6X3Xw3fz++7UNlJDNJf8gfS8Yi8Uh2hrI0fYAxGCVQ+6I9HAuvbFkER+yLdggBE+lErrA/5M8tVaXBtMfvcfvckXgknopnv25PfvUFAgAGFj2LuQlRCkitNLhv0vtNGQiOdPV2tXe119RVX71xtauna4A2UFBY4HQ746n4R4c+vH3vdm1DbXVddXlVucfvARGwvKo8HAs3tzUXlRZV1lRev3WdwZrHSEwoEU7NTPUN9ArEAoVa0dXbhRJoMBxs62x7VvzsyKef1DXWjU6MPnj8AETAfSOI5RPZb8qAMbimvkalVT0vfnb0syO+oG/Rs/jg8QOzzVxQWHDqzMmyyjK1Tt3Q3HDzyxvhWFimkL7z3tuV1RVXr39x7cbVB4/uf3Tow8GhAQAGnhUV0oZpRz8/+sX1L27dvnXksyMypSyZSXoDXqVaUVxapNFrLlw6zxPyQPibL8svt+xeT+xDZVRUldOGaQ8eP3j73b88Kyo8e/7MnXu3jWYDa4E5OjF65vyZW7dvHj5yiDZCiyaioUjw7v0707PT9x/eq2+q7+nvuXbjKm2Exlxgvv6H3zldjuq66rHJsdn5mYrqinAsPD033TvQ29Dc8Mc3/njh0vkv79zq6evWm/T7ZulzWdD7UBl1jXVOt7OkvOSDj94/fvKYUqO8++BuP63/3MVz/369pQqp2+tyuByT05NXrl4RiAVHPz9aXFbc1dM5MDQwMDTQ1dvV29/z9PnTi1cu+oK+to5W1gJTIBY0tTZloAyMwWab+dadW6//8fWOrvaR8ZFAOLDcmvspsQ+VUVZR2trecvfB3SOfHWlsaezs7rjx5Y14MiYQC3oHet965626hjraCO15yXOtQWu2mq7fuu72uVs7WoViwfFTxytrKodGh/59gHnj1vWxidGa+pqq2qqKqvKqmspZxuzYxOiRz47cWRqs1DXWXbxyUSgW7CdBLJ/LflMGhEI19TWhaKi0ovToZ0e4Au6v/vWXAhEfJdBkJtnQ3NDU2gQiIIIjnd0dFrsFgIGi0iJvwPvFtSsmq+n2vdsz8zNqrSqZSd6++6XH566oKmewGbOM2fsP7yVS8TSYflTwsKWthc1ls7nswqLCA2XsjXl/Gky3d7XTZ6aqaqtOnjlZUl4yPDZc11ArkgjbOttEUhGEQiKJsKm1qbmtOQWkzFbToyePJugTfQN9NXU1Zy+cHRkfWeCyI/HIk8KC2vqaodEhAAZgDB4aHRoaHUIJtKK6oqCwoLmtuam16dadWzKFdPk+20+J/RYzlp7ViNoX7YFwwOVZ9If8KI4kM8lIPAKhX331DsZgCIWyP42SWDQRdXldwUgQhIEMlLE5bVaHddGzCMBAIBwIRoK5YhiJgQiYWwsJR0OJdAJCIQiFooloGkzvJ0Esn8t+U8byiR0kttkCB8rYG73kNi/zFg4/UMaBMtZugQNlrN0uW7jJ9tkhB8o4UMbaLfD/A9VB5K6bh06XAAAAAElFTkSuQmCC;" vertex="1" parent="1">
          <mxGeometry x="710" y="60" width="179" height="184" as="geometry" />
        </mxCell>
        <mxCell id="z2YyQgFQYphJJJYKpOAV-4" value="" style="shape=image;verticalLabelPosition=bottom;labelBackgroundColor=default;verticalAlign=top;aspect=fixed;imageAspect=0;image=data:image/png,iVBORw0KGgoAAAANSUhEUgAAAQ0AAAC3CAIAAACHVpz4AAAgAElEQVR4Ae29Z3Rkxbk2+v2/X7hnffenz/HxOdgYZ+NssA3YYGywDTYGg22CEwaTbYNNNgMMTM6aGY1mlHNupY4KnXPOWeqkVue0c9Vdu1vq0UgaTUsd1ECv9axe1btrv/XWs9+n0t6963+QkGygwUCDge0Z+B/b/9z4de8ZwBGSQHfsBiBIQFxx1uYjjSayZAYaOqn37jT1yuvZc80khV8R9Ne6wLmhEVTAX38KyudnTjfh8ej6g410iQw0dLITnQACdzrSb72TvP/XiT89mTl0BF8ObCYaczrS776XfOQPyT8/le3tI3LpzXmKR1CJJMeYwEP+4pENifitP0y/+PIGneDRFTwUuAIry+s7kOQvH8rse/eyKSyX+vNTsW9+j0Cylw9eS2yNnEUGGjopVSeYw57801+in7gh9vmvxm/9Yeyb34t+/Prkb39HYrkCmwSJIRxO8tePRj9xQ/TTX4p/+5bYV78d/Y9Pxr7xncyRY0QkXCS9mMDcruh1n4t+7LrUiy8TJFY8TkISVSpSTzydeuLp6Ke+EL/pttSf6XTqiafT7x0ksFzy14/Qbtx+VwGxG78Vv+UOYt3wLHnfg5m33ikaxJz2+M23pd74F+Z24R73FVjykjhSzNlIbMlAQycl6YSg8MRDj0Y/fn36n69iTgceDuEBP6pRZy9cLAYZqtPFvnpT9L9uSL/6Bmaz4kE/7l9Cpqfjt94Z/c9Pp156ZX0c0xeDwjMnTkX/41Oxz9wYveFL+JVCwpz27PkLmeMno5/4dOKhRzLnmjOnm+K335X46X1kXifpF17EwyEiEiYi4czho/Hv30kQKIEjeDKGJ2OJe36ZfuUNPBkj0gmSwrMXL0U/fn3sc1+JfeXbG5C4427c5dwyOBoHiww0dFKSTjCzKfqx6xK/eIBArxi3EGvTBmzRG/vazdFPfSHX3VtUToFlzOWI/+hn0eu/iPAFRd5JSBKpRPLh38e+/K3UX56N/vsnacltmHlDErOYov/1mezFVhIQRCaVfPQPiZ8/QFJ48tePpF9+rTgYy5w9F//+jwgCRQWC+O13x2+/O3rd52Jf+Fr89ruTv3sckUpiX/l2+sWXc929G5D8/Z9jN36roZP112XLdEMnJekEVatonfz8AYLcaj5N4Zmmc9F//2Tq5deLsbuebkQojP7XDbFv30JkksXjuMsZ+8q3k4/9CVUqov/92eRDjxDpy7/S2QCRGxiMfuIGhDdL6yqdSNz/G3qkB8mr6QQPBZDpGYQxEbvhy6nH/kSnmczUk8/EvvsDzOXEc2nMt1R0gIRk5tCR2Fdvwpe86w820psZaOikJJ0QSCb21ZujH/9Utq2dSMY3NPwEkk098Uzsus8hHM5miukQz6YSP78/+rHrUKVyNQMgsqeboh+/HhGLCBxJ/PKh2Fe+jVnM608nkEzqqediX7uZyC9SEfFI4u570y+9UtBJ6qln6dGdw4Y7bOm398dvo8ddhdMxoyF23ecyb+wjSQyzmOPfviVz5ixJ4bmu7vh3vo8vLRZLybzzXvzrN2+zilDM+RFPNHRSkk5ISOY4HHr6cd1nkw//PjfOIInL024iEU3c+0DsszdiRsPW8URi6Rdfjn7sutzYeCEDvrIc+9pN9GSDwul+o7cv+okbMs0txdMJAqUnJF+7GeHxULE41z+QOXoi9vmvIix2QSf0PP6Ouwu4Yh4PiOzF1ujHr4/fflde1TFkZoZAs0QqHrv1h8k/PrF+ySvzxlvxb3x3yzWGoieNBAnJhk5K1UlhDSr+43vo5ayPXZd8/C+411PoWIhwKPHDn8S+8HXc7do6qgCReXs/rZOe3kKG3OhY9D8/nT3dVPiKp+LRz3+VDtnC/IfCs1090f/8dPrNt+np/umm2Ge+HPvi15J/fBKPR3HfUvKp59LvHSiO8bJd3YlfP7ranxBo8i/P0uty3/hu7PovZk6eJnIZEhDZru7of30GmZpGlQp6cp9fFE7/89X4t24hErGt3W4sHK8x0NDJDnRCj6Di0dzISOKue6P/+en4t25BZpgkhROR5cSP74l9/iuYzbp1wFF4+vV/RT92HZLvTwgcSf3ludhnvoxwuXRLn0f6pXyHMzRMWwAEMjmV3n+AiNKryUQ8itltuNtFpJPZru7k7x7HV5aJeKRYFpFJ4Wv3T3C/L37PLxO335V+9Y1cZ1fsxm8hXC6+spz42S+TTz+PWa2xb34323SOzC9Dp154MX7TrUQmVTTVSGzJQEMnO9NJgUQCyWQOHY1+4ob47XfhAT+RTiYefDj2qS8gYvGWLBNoNvnI7+n5iUJOQhKzWmLf+A59+vd/lLjrngLi3/xevpt6isjS9yXxlRBms2AO2wak3zuY+PG9Gw6ufvW48Gw68eDDqVffTNx7P33/hMJRmZSIhHODQ7Gvfwf3LRIEmvrHq/Ef30PrCpKpp56L3/x9Yu0W0JbONw42xl27EcmqVLKp+O13Rf/9kwiXR+Jo+s23ox+/Pnvm3IYpfiEzZrPGPntj7MZvESl6wJNtbqFXz+78SeLnD1zGz34Zu+HL9Dzb46ZXok430QOn9fj6d6LXfzH68euj//7J6H99JvbVm6749RvfTdz7AD2c++/PIjPM5C/W7jNSOGY2xb/1vczBI/jKMr4cwpz22I3fopehKTz1xyfj3/1BcfzWkMTVGGj0J7uXSuK+h+gpx8wMPUwSCqMfuy721ZswLx3l60Hk0sk//Dn68etzzBl6EIVmE/c9FPvcVzC3k0jELiO6knzi6eh/fhqZmKT7k+UgZjauR7azK/aFryce+E38m9+Lfe4r6Xffx0yG9Rkwhw2Vy5OP/oHIZYr344lYhH5E4OPXx793R+JHP6Xv3992Z/RTX6AdMJmSj/wh/oMfr/e2kd6SgYZOrojpLTkiIYkIhJkTpzGNhr4FnozjK8sIb5a+vf21m1fnJIBIHzwS/dTnYzd/H5lh4r4lIh7FwyFUrUr99aXof3wq+eenC8MbVK+L3vCl5O8fLy7jFgtFFXL67vs99xefhSn8hIdDtEi+d0e2tT3bcjH5iweRhYX4D3+SPdeM+xbX92AEjhTm6Jd1guUyx04kf//n1N/+kX79X5nDx7KtbdnmlvidP82NjiZ//WjiZ/cVHWgkrsZAQyel6YTDpVeQbvxW4o67Ez/9ReLOn8S++PXof382c66ZWHs4ip60HDgc/e/P0sOnW3+YuOvexB13x778TXop+Ymn8WD+SUdAJP/6Ej1C6+jc4pKQePJXv6VXpSSr8xwCR1C5LPGLX8Vuug1hswk0W9AJSdITD/oxljt/kuvrp29fXnkvv6gTugfLpYlsipZlMQ+B4kuLeHQl8fNfJX/z2BaeXNklNjI0dFKSTohkItvekXzmhcS998dvvTP+01+kXn4NFYmKz62sRhIgUKUi/ea+xM8fiN92Z+Lunydf+HtuZobAV+8AEulE+vV/pV58uTAJ2Rx/OS4v9exfc9PTeHQF4fKSf3oy+okbko/+ATMZC1G+qpN8HOPBQOqll2OfuTF+yx3pt95FZmeLM/L1OrlcCokRqTiBZOjFLgJF5bLYV29K73//coaGPK7CQEMnJemEjiRAFMKLfnyLQLeb+1I4nQFHSHxTNtoITqPYtG+4MPkM9E3G8xein/x84t77s+2d9BMAa9nW64TuK7AcMjeXev7vsZtuTf31peKTL1vqBM/PVZK/ezz1zAupp5+Pf+/22Je+SStwzXgjcTUGGjopWSe1DSY8HkVUSiK78c5G9lJr8oHfbrycgMAj4fV/dEk++HDmnfc2ZsNyyd/+Lv7tW2Nf/Frsy99MPvx7RCrd2CXWtpobPazX0hs6qVOdXC2AcP8SptNd7dficfrh/4Cv+LWRKJOBhk4+YDop83o3Tt8dAw2dNHTSYODaDDR0cm2OdtcCNc76MDHQ0ElDJw0Grs1AQyfX5ujD1C426rI7Bho6aeikwcC1GWjo5Noc7a4Fapz1YWKgdJ0QJLzyPZw7vSUESLKInZ67g/xl+7mDshoa+4AyUAiSHYTKjnRy+VUjBCRRSKUJMo5g0SwSuSYySHQNkUwJ+a9pcC1DNIvEECyJ4jmSxABJQJykUZ6kdyaVVboJSGGQypJkAsWjOfTanKxVoRo5Yzk0geBZmhOKgNReNe0EJHFI5fKcxPaak2gWjSNYGidQ2isiHyelhsqOdEIHBAEJDFIpkrQtJzhqbx9Xd4khOT/ML+DcCP8KDPPPrf1UzFPZxIVRYQ9bM8o3y2zL/kQuR1HEKgU1kwqtTBySWZJ0R1J8g39g1tA+JWseEWyJylZ/a2sjgs5pxdCsQWDwe6KpDEELuPZSwQGZo4A/kZVYg0Nzxs5p5fkRwdYOVzlI6EJH+G2Tsn6ujqv22kKJFE5isNCqlhQnpeuE7mEJSGRJcjGSmde4RhZM0wrfgiUpdeWUi5hqiYZyKxR+qtKnchEV2NKzhsiY0MYQWlWOcCyL4aCW4wECpYhAEhGafCN8M0PinjcnxM6scglTXwVVoqJoVrmEiRzZeWOMIXaNLpjFZl8ohWKgplLBABnJYEpHiCG0jokcc4aYyJFRLqJFJ2ucUC5hEleWb0lNy5eG5kwLusWlWBYh6ZAupQXZmU4wQDmCyVG+SWCJmYO4M0w5V4Arcm24I6CIUvLvKI9zBTjClD1MaReRcYmbq3IlUZzY2dhpd7qiO1gMkP4EMimxc3Qrej9mK5mTHdVxx5lXgHMF2MOk3o+xVL4piTWUQvBacEIziUMyhlLzag9T4dP6UFuYLDFOdlzNEmJvvc08J5QpiC+YIqN8szucxkprUnegE4wigwlkSuKU2BK2MHCtUO51cK1QewrgWoHOFWBepqaVS2LTUgojqy8VHAP4cgZlKd1c/Yo1DBx7TMIWl8C5QtlWIE8b4qrccQSvQU9LQDKRwxd0SzMyjymUb0nrixY6dO0rlMASnxJb/fEcTl27lSxVJwQg4zl8RmJha0KWZbr9pjuTMCjCEQb1AHsYqL1IL0dvXooiJEGU1lqU0vNuzkMAIkOQQpOPIXGZgmQ9VH9LH+xhYAgQQ/NWudWfIarefCAkafRGetg6rQ+31UdUbKKFcoQpyzKYUS7x1J40Rlyzpy1VJyhJWv2JY9087RJmD8N8wdSm4utCKpZlwFSFGHxdLIsSV/s7VPkjEEBgJBGI5zpnFFJ3zl6nAbF6RazLUGRNtU2qQgm0lOZzc6NQ4hGcImI5YlLiENuSdAdbv6DsYaDyoj0sjTecQKlrzFJK0gkBiDSKctXu7lmHOUjZl6F9GeRB2ZfrDtZlIHchXTMKevRJFJaJr92xlhgHxWwEwHMYrrD6e9h6nZ+01R8P6y+NbRlol8iL00aDO4wSGH0jq/yWYisLKIF5wskOtknrI6whsN6HekvbliljkBqYNc2qHRkM337oUZpOKDyeyQ7N6timnDkIbKF6h95Ptk4q9UtxhP5j+uXbPhUMDoLCkyg+I3MMLzhMAWALkXVOizEILrGtIq0riyLktZrPXRIFiByGmDzLzZMGfQBY6z5OLEEwLnT1cXTxHIpvy0lJOsFIbCWR7JxWCBdJUxBaQqDOYQqCSxMqhTOSQXNX/Sf6Vs1h6fFBACKWRYbmjWNCtzkILCGqzjkxhOBFtnlOYUnlMlX6ry9OEelcTmVZPDuuNQahte7jxBwCDJGnfUq1ksphV+5ntiESStIJSqChaLyVIZX4SUMQmq8AMAcpcxDUFYwBcHFcKbMtp5Fq6QSn8Egq28fVjYu8plVCSiFhA3uwNryZgkCX1wlHZkxm01XTCZ7KpqUGR9O4RrcDTkrhrSp5TEEwLnJfYiiWk+kK6SQSu8QQi5ZInR8aaQAaAWAMUMYAmQeVT9fFp95PtYwrpNZQVXWyksr2crRjQk+ehwIV16o+zVuBwDUaaQKrDkOA0gRgC8vMlhqT2VT1dJLMpCR6x5kxtSYADavhUfXa7ZpAQ4AaE+Z1kqiQToKRyKVxkWCR1Pih3g/yoPR+ai0N8unCkb3/1Pqo5rHq6ySZ6WFrRoQeHc3J+lqTev+W2MDYehrXn175tM5PqQPwAtPMlhqqrROxzn56VKXyQx0dJ5WvSwVt6vzUsMB1cUKxXGGdeEm1D+p8YB2gjj6y4eD6DHuQ1iyB82PyqvcnyUw3WzMs8Go3MkDpfOSVoHQ+ah1pteZE6wNKH2yulU5OjaqUPqi9Ik5qXeVS2Nb6wDDfXVmdRC+Oi/keUr0ENYugzqFeBOerPe4isZU1ndQ5GwX3FEvwfG10orWfHFXLPwhxolmCQ5XWSezimITvIVUfhPqrqq8Teg0wr5MhvkdNNxxwK9RRg0LrZKYm4y6t/eSIRr4E87TUEQNbNmdV0cmCm1R5gdpL1TmUXup8lecnV+jEC9VXRZ1wBWSL8Bytk6rP48V5ncgWYf2HisoLBqvQn0jnXaTCA5Qeqs4h91DnRxVSaxXXhYs6GVxwK2lOtsHe06XwUBIvPDttqYlOHCeHNRIvrP9QUXiogfkKz09iF8ekcy5S7oFKD1BUBG5KaMkIzRm5m6qMwTWvZB5QK51oBxc8SpoTOizKhMxF8E3peUNy3pAUWrIKTyVpyeukBv1JWqx1nBjWiL1QXjYha3xSEjtWoEVkzVWWlqroZNZJSt1QXiEIjKkn/n7gqX8cFhgScjeUraF8+zIXOFeb/oSl7Z/3lO9w3gKYEi8+8vRbD/75tYef2vfXf52d1SzL3aBCxqHYA5uma6YTrchTqTgBs5qVY60zjz27/9Fn3337xMCcLl5BWvor3p9cGJNwHaTEBaUukAeU0ukdQ+aCMheUO6khjvH/+4/Pf+lbd7SNiiQuIHHBAnZhc8MpYic4Wyud9M15pPkaFep1zc8Nrq77Sg2w9d/98YNHWka7J+X3/+7v/3j3gtCCrMuwY6qL50pcUOiGTVM1GncdH9IK3PTVLDqwy4STYgjdjz333ovvXOieUg9yTWf7+INzTokT7NLglS5JXLB3butxFwGIZCYZDAez+Z3KS31uJRCJXRiTsO2k0AnFTpAHFNPpHUPihBIHlNiJt451f+brd9z9wO+eeOl9gRUtx+YGN0QOcGakJvMTlrZ31k3XqGRscLX4VeKkBli62372aPe0SmhOPPPykceefXfOmClmKCchckK+C56pkU7sx4c0/J0HxuYKLpiRF95s+tlvX5iW+cQOQuKkhHZCaCc259z1kZ5Zz5b3TxKp+Jmzpx/93SNM9gxO4SXrJLqqE4EDihygDECRA4rtgG/OPPinl9841Pry/nM33fkQQ+gVO6kyzF7hksBO1UYnXSxtN88tLIuQVc/FDrKfqfvOjx5898zQqU72fY+8cLKdKbSiFeFE6AALTnh6sjb9if3YoJrvhOXTMqOM/Pj+J9443CmyYxXhYbORbt7W/cmif/H+B+//4pe/cPTEUQRHdqQTKdNK8u1QaAdlAArtUGgje9mmW+767bTA3jOp+Nw3f3Tg7LDAggrt1A4t563RLhVB+yawU6eHlTVY7+piabsKOrHT+r8G7FCUx1XqSPbNaL/2vZ/99onXnvzH4Xt/+9yhZsacIX2VzDu7BAI7mHfA0xM10snRQfWCo8w4oSs4JvTdctcjJ9uYIjuZ56ECNjfw2cXzXJxQbn5uJYtk2Dz2iVPHtQYtAYid6WTGQi7YoYAOxDXYgGBngAIb4JtyT/7j8Ne++9MzbRPHWsZvvv2XP/v1U0zFisBK0daKxrdP0OXCTaD9WbBRp4dUNdNJngG6Xttig6uXM/PtgG8HAhvZO6O97acPd4zLBMbEWyd6v3Tr/YOzjm1tXjZyzWxzdnhqwsKW1OL+yZEB9awd8q9ByLWdn5As3/HzPx04Nyq04vkKXpPka9tcTxTfBrq4nouMLXRCvw2DwnEKL/wldgc6aR6TTlnIuXwULtioNYAFG9wZrNTwnPPGm3/y6DP73mkae6dp/NnXTtz43XtaRhR8K75mtmh/m8RVi563glNDSomlis8LF+6f0P0J1823ggXrDknYRBrfRnVP0/OTdoZSaEUuDIs/+bW7OyZ1C9arVrN02udtkGeDJ2mdmGrwHOThAQ3PCufL4cQKF6yQrUk//PS+Bx5/ja2O8i3EgpXMA1SEkzx7oJPjbhlXhCr1HGQgGmselU6aSJ6VmreSa6DmrWDesjPMmYj3z09+6sZb+zmWeQsxbyHY6pXv3/v4829dWDCja5aLRVwtQW1drhXMW8GshTo1VIt5fBdL28nxLBQYyBdNE7JLkJ1Tult+8vDFQQFbEXzuzaZb7vnziMC3W2tXuDFnBVwrPMGwsqXmautEpLMf6tdwrXDOcoUPO66IBS6YyfYJzTfufOT1Iz1sZYitjrSMaXq4njlLPvB2yfNlr+asoJ3japmQLydSlfn/SSBS1AmYo6VSQFEhcN5SKrgG5NWjg8++eZalTsxbyHkrNWtC3jo19vy+i/O0TorGt03Qobm5xFUKaqyTvGLhjuNgw2W2UENz7l//Zd8f/37k6dfPPfPG+c5p86wRK9dsvpTZWukkkUmJdPaD/RoOrZMyOFm9voBnQC+OqV94q+Wp15qee+vivqbJUWGoznUimzCSHDPklQuKqUXYOoRnptZAsvUoU5vNfwVl24dcU+36kw62e9ZcAZ95ZsA1ETPqzJQqNaVKs7S5WTPJq4xl+pKxLfD4uJUtre64q6gTlqXcOJldDTPAM5MsHVKgha1D80FSrvG1GANtLHfLVvP4Xf7vNxCJnR+VjxlItglyTaDOwTGCk4O1We/StbHcPJqTeqeFaYbHxi010YnjQL+GaYacuo8Trgm0sTyV1snYqk44JljnYBvBiVrppJXlqXM2Cu7ldVKb/sTxfr92htbJBwCtTE/LhGrzuvDu+5PmUfmojmQaIMsA6hxMPXl8sDbzeN1FlptloOqcEJYBThvh0VErW1KDebzz/T7tpBEy6z5OWAZwiemugk605IweMusdgNbJQK10wnQx9RRTD/KoX3KmDPDIqK2WOvlAhMqlmUrr5PyofEhNTungdN1jSksdq5VOWmZc0zpqWgfyqF9yGHp4aMTGoteFkwSFbhhXVOQrTuFJer3L+V6vlqGHH4RQARemXRXuT86NyvtV5LgGTmjABP1ZBWjhREWgoY7112gef2HaPakFlXG7InW/ipExLTw4XCOd7O/Vjl3FjboialILmqeqoJM+JTmmAeMaKg8wroHj9NciYP7Irj+LdspNMNTU0RrpRN885WbQDKyvdbn+r6O0YqZGL+ukuu/vEumc+3u0oxrI2BgeFatLpfhhaMD5yUrr5OyovFdJjqjBmJoaoz/hGsCVX4vHd5EoGKfyRez6E4yqyCN9telP9GenXFdWvyJV2HXdtz5xVA2G1fC9oUJ/UnWdvNOjG9bAMVonhSa1dp87jZyzk5Wen5wdVfTQOlmLfhUcU62liwfrIzGqIg/XTCeTBZ2sbzjqjpZRNRzK64RZi+dWnO9064brIxLWmvKrXRHQVA2ddMrJIRUcUdY7hpXU4T6V1Bqu3ntT156D1DdNuoaVYEQFRpSgbpkZVsIBFdw/ZKN1kql6f/J2t25ABYfrPk5GlODMRMXHXWPKNikxoIBDmzCogJXCZuM7PZL3hDzcq5RYl1NIrkpbBa29b8VwiuEaUICdOlnj/IMK2KeE7wzamFJLMlPF93AX1rv2den66p6TITpowWlGZXUSjbVMqs/OpvrkYEAOB6/EgBz2VwibjW8o65pf++WwV0oc7KHfL5xCstXUSWpoznBixNInpa7p1R5mKFydHhl4u9/KklqrrROJwfVOj75HRpV/KatKGk2LDJwYc7ZOKiv2vHAoFu/l6A6NOHskZK8UbEaPDFQEmy3v9Ei3FLTys0f7ZGp7IINkq7T/CU7h0WRyRmw+0q/pEhM7dbLG+XtkoFNM7OvRzqkc1X6uXmn2HuzTdEmwGtdxp8X1SEGXhDoyaB7iacKJZAWeq8cIdCURZ8vtr5yfbRegXRLYJYHdeRTSq59S2FU+8savMLvDIx0ScIq5fHZIYvMG8/sEVWWPNZzCE+mU3Og62CW8NJ8rx+HanHthNrW/Q6yy+lL0/idYRW4sbjCCU3gqmzK7/U2jqotzsS4JVZuq7bqUVgFysEchUNnildEJiSXSSY3Ffbxn7tSUv0NMdYohDQnsFIMOMawrXFpA3+tRj85plkLLOQyp0l6E9J6VubTVs9TKkB4bcbSLyAIJBWbqipAOMWwTEoeGLB2TUsdSMINkq6QTAhBZNOsNBEdm1fu7VW1CrKMQJ2VGiAR0SCofY+1icGpi6dyIzOT0JjMpvPz9tOj6I1mPb2lGoDrSp7jAS7SLQLsYtolBm5jKA7bRX3cKsPNTrlFEq4A4NbF4dlCoNNkj8ShGVOUBjUI7iuCILxSalRmO9QjPzCy3i0CbCLaJYLvoGk5WvNbbGaRdAk3M0LE+oVhjDK6EERzZ0A9U8CtGoJFYRKY1nexdODHmbhWS7WKYD5VCtOzuilP5SKsoqyJwjpc43CNlinRLgUAOzW6/d1JJ/48nIYniyEpsRW+x9U5LDvfIm5jLFxfwS0LQKqoXXBSSzXPpI8O2E71CjljjXlpKVW3jqEJgYQQaS8bNTtcoV3a0R3xqcqllAbkkpFqFVNm0wLItgEtCcElAtcwjxxnew90ixpzc5nIl0ontG84yNVMYerm8XpZQfbJXdGzM2TyXvSSgKhQqZdMipGlpEWCnpoMHuqW9M1K91R5JRFEC2X69p1SdEBSezqYCywGZ2tAzIXi/fX5/t/74uL+JFW9iJ5o4u8cZTuoMJ1WOhSZO4vTMysEhxzudshO9szPzMrPDEU1EEaxai8KFYMIpPIfmQivLGoN5hCU63DH7bpfqyKjnDCtWrM5ZTqKA4pESEskznHRT+ZwwY0dGvbRLXXMjHJHWbK3RhHsAACAASURBVAlHw9XmhAAEiiOReMRos0/Oyo53z77dIT805DrDjJRQ8W2iKJmPk/QZTrIcO2fZ8WPj/rd7dO93LvROCmVagz8UzCAZnLrGptCl6oSEJEZiqWxqMeBTaHVjbMHZXtb+lpnXz7FePcd69Szr1bPMXeCVs6znjrP/1jT3ym4t5Aud2XeBebRtpmOUxxPJzDZbOBrOXqsnLbPhJCFJAAKn8AySCSwHtAbj9JyoZZDz/iXm6+eZr5ylsQtCXj3LfPks59mTvL+eZO3aQqHcN8+zDrUyLw5xZubFOpMpuEwHxPaji/I5KdCSRbPhaNhotXAE0vZR7uF25pvNzNfoONklJ6+cZb14iv3kUc4/z3J3beTVs8w3zjHfv8Q818ca5wqUesNSYCmZucZKV4GTHeiEbioINJVN+UN+o9UskMkmeAsDU7O9DO6u0c2Y3d8y0TQs7mHwdm2kb4I7yppnLwgVGrXT44zEIzk0e80WoiIxUWg+Mrl0MBy0OmwSpWp6Tjg4M9czwe1h0NhFpTon5ve3sY93Tu/u9EKJfRPc4Zl55rxAolBaHbblyHIGyWAktv3oolKc4CSWQ7Mr0bDD7VBo1KwF4TBzrm9y95e4h8Fr6mX98/R4+8TC7mmZ4A5Oz07N8oUymclqDiwHUpkUil9jxLVjnRSaCoxAM7l0JB5ZCixZHTa9yajWaXcNpc7QOsqbkdlUOt2ujWgNOpPN4vI4g+FgIhVHSqt5pWKC7lVILItkYsmYL+i3uxwGi0lj2H115HpT+6RkhCVQlUGsRq8zWEwOt8MX9MWSsVo2HAViCUDksFwinQgsB5wep9Fq1pbBiUqnm16QHe5gSXSWXdOi0ev0JqPNYVvyL0XjkSyaxQi0xIZjB/1Jsf44haMEmkUyiVQ8Go+sxFZ2jeVYdGxepVuKh2PRXRuJxCPxZCydTSFYrvSaV0onq7RQOEagWTSbzCRjiWikDFqCseSkxCJQW8JlEBuJR2LJWDKTzCKZPeMEEBiB5gqcJGPlcBKORVRWd/OoyBdNlkFLJJqIJtOJLJpF8wopUSQkJHesk2J4FdpRjMQwAsUIFN0VcgTOkhpd8QxCYLuzUDgLIzH6FZeQKLq3JwmaEwrH85zsujoZguJpHEqrG9kVpcVy8QIn4MPACUJgVl+4bVqaxKliBXeRwAi0+CrUHUXI7nWyo2KulhmHFEdu8iazOKzKXfOrlVvPxxEI5vVOjcNLNDhZYwCHpD0Y7WBKMwDuCS17rhPAUZi8qeyeVL4+1YLSOnFpGzpZEwk9MYZUQSfZhk7qM2pr71VDJ5s5b+ik0Z9sHHA2dNLQyeWYKAy0cLiqk8L8hD4ILufZzNeH+0ih+vn5yeVx10d8RErQgy563OXIz08K467CwVoGwx7MTwhI5ggigeA4RWIAsPPzExyQCEnE0hkcULWsf52URUASpYgkgqIUVdQJTh+kIqkMttdrVnvFEg7IJIrlSApf00kGQAxQiRyCkER+ebNGq3l7o5NQMstVOWJZtKgTlKIc/siCwpijwF5dlT0sl4BkEkXFOvtSNJ2DcF7v0ji8KKQWo2kGX5vCqvJ3kT2s79WLJkh6cX81+nMErrT57IEoAihnvj9JAxjOoHy1NZJFPvw6SeLktMQkMy9mqHx/ksyuZLBpkcG9nMA+qv1JjiTEBjdX6Yjj5JzepXYspknAVdg0nmiO+uj0sQQJ8VWdABKjSIN3ZXxOHc5ijmC0nSlNACgx+/had4ZYl3PdytjVFVjWeH4P+hP6mShALaeRcb5hBSNYCoszmVM6g7NqRw6Aj+xwHIdkDCMmRCbbSoar9ygdi85wiim10C9HqX4cVCm8yjRLADKFkyypTWEPWQOxthmZN01MCs3+BFrj8fle6ATQk3WUosSmRZ7aPS51yJZSo3yTN5LC4Edx0FUMJhRSWnd4XOYdUyzO6T0Mvs64GPlIiqTQV+AkIAhAeSKZCaFJ4oidZcinFItS01KOrPV6z57phARkKJk73T97ckzXMe8VmkM5kvrIdiYFqRCQjKNkN9dwdEzfMqNnSW1JrEbz1KJW6yNxWSckILMUtaD3XGSa3uoQDizYI1mcyDe1a0thhQWx1c8q+b9DnQCSonAKR0gsQ6LpMoHksiZH5M0TjI4JTSyWJtAMUbbNMl3a29MJNI0jWa8vtr+ZfbqTFwglCbQCPO9tpXZVeopEi0jjaDoUTjZ1zb16ctrsWMGRHInQsUdshZKLy1A4QlFEifchStYJrWACEBgeDYc0Chtn2jg1bJwcKg8jGsbkpSPNoxf7DRNjxskR4+TwGsq0/ME9fUQzMdFxqr331EXtxLhhcthQLskfXCoue66bGB9r7jr1frN8jGGcGDFOXP5pNxE4NWTnzYR0KjwRAQRWypurStcJAbBsatHlYE7YJ8eW5lg+Ac9fNnyC+UWh0CsU+gSz/suogOXyfdsrC0vCOa9ItCgS+ISzPiGvyPP69Gbf6F/rDJud3PURn2B2Scj3iMRLwvkiITu15hOsUSTgLc0yrRNDdvZkxu+hCJSkrjG+LVknJIoEFxU9rUmFkLSbgNsOvc4KYNEBFythp1RnXBXwudSyyqjXopOmZT0zm4+sd6P4a70l1jtZTroQJ4uuVVrWM1O62VVy6BgAbhtpN8alfOvUGBYNk3Svst3CcUk6of9WgWV9onnvSA9wmKHHXjF47dBbvjUH9GyJDZZt0FM/2ODbVl/XM1Mgav2R9Veh+Gu9JdY7WU56c712Z61gZ+1cym60jg14JQsklquATuiZezphGO3HZHPQYYROC3Saoatu4DTnXbJs+jRf6acJuoz1AdN27NHVqRtu6+cqV9wTpxk6TO7pUf1oH55JEtsOvUrqTzACTcXCit5WUieFdj10mGi1OAwNNBj4IDNghHajZ3pU09eKJla2fxNNSTpBCTS+EpJ1tZAaETSroUUHrQ2UywBh0qxI5gN8ToDPCQq4Oa0MWHWoQRkSzgb43KRSBCw6zKgKCnh+Og83JheQFk2D+UoyYNG6J4eU3S252PL2L+gpWSfhoKzjAqnkQ6MCGtW1hQYateugqW3pVaksMKp9C9y/P3T/M/f99OVf37/v97/VDfdmdQrm+dOvPvLQK7/5VcdbryWUYiuTcc83vvyXe+76x69/+ebvH3awJj4Eda9mFXYaKio3Y0DZReukAu+rp/uTgk7k81AvgwZlraCChgLU0FBE8aCqVm5Uur56JdQrXZzpp3/xs7n2C4EFzjKfk1WJOc1Nf//NA+rRPv8cyzI+mJAuqEf7P/l//zfjzHHPHOu9p/7c/OqLQK/I13pHdV/P2Ic+XYwT9VrwFKu8/joqoIGGZ7xP1XUhF62cTuQdF0gpD2rEUCutFWRQuz1q5knFC5K5mBN/vf9ew0gfpZNBnZTUSlpefemxH9+xNMuktDKglQKtRDPc++n/+39E7RdQrbT5tX+c+ftza8wXaSk6JoHa9Sgel16Lw6KpD31iPSerXHlGeiqsE0VHMynmQJUQqkUNlM2A2DUz/sTdP+x++w3RxSZN14WcdFbW2fLQ92468vzTprEBTCEAapFmsOv6f/vf51/+2+Txg8/f97PZC01r5YqhuoDitRBC9XoUjzcS2zHgGe5SV7Y/UbQ3kwImlC9AhaCB8hjgAwXfOTXy+ztuO/rMkwNvv846tj8jYGPS+blzJ/945w8e+8H3ht/flxHNqfs7P/l//uc7j/+u41+vvvzr+7v3vUrI+VDBh4qF/GfxQhQOrv8s/tRIbMMA3zvYoe6s6LhL0XaeXJiEEh6Uzq/DHJQ2sGMGgHTWyRj6689/quvrIGQLlGwe5GkkJXP+mbGTzz559xc/s3DhjKKn9YZ/+5/8C2eysoXZ8yf/cNtNKQEXSGfhKnZcbuNiXcnArLevVVNZnSjbzpNzk1DEhaK5yxDPQjGvgV0w4Bzr/9u9dxt62yjJHLxM4ywlmQ3MjP/pzttaX39J3n3xhn/7f4TnT2LSeU1v2yPf+XpsngkahFeGATp0K6yTRDioajtPcschnwUF3HXgQAG7gR0ywAECrmuk99m772CdPuwa7/OO9aXYDO35U8LTR5xj/YLmM8/c9QPBuROKzpbP/L//a+j9fZax/tPP/+W9h3+F8FlQ2CC8IgxwoYDt7WmpZH+SCAeVredI1gicm4Lz01cHE86Xj5mr29+m6A/QTzNwnhWZHLr4zOPnn/59xwtPdL/wpLW1KTzWN/nWKx0v/OXSc08sHHsvw51cGul58/57mp78XevzT/b984XFwU44P5MHM//5Aapynbrq7bxQWZ0EVK1nyZkhyGVA3sTVMQl5FcE2RXwIfqIpArxJnMPA2KM4exRnjVF5YgnuOM4ex9kMkjtRyINxxjH6yDjBYYCN3BapYEDelihmaCS2ZGDS23FO09lcsfsniXBA1dpETvZB1jBkjzZQIQZGIHsEsgoYpdM01tHLGoWsdV/X/3RFunDilp+lnP4ByVMqGzuojrf1jKazORMLV+p+fEDd2kSOd8HpATgz2EAlGZgehAVsJpY+PlTJsjYX8QE6cjWWdlmFATgz4L10Ul1JnawEdb1tyfYmyOiBEw3UjIFeONF7mXBGD83/9mhcnRIZYPQARo/j/FHtQGe6Yv1JdNnCnlQdfAsfaoPjXQ3UkIHu1bLGumApaFydEhkY68KG2zWnD1rmWKlEpALjLozEksmYS6OcP3vCfvZQtusc3neBqBguEn0tlbNWQcf20FSRk5YGOZdjo/8i0X/x8tfyIjDddc5y9pCs47zHokulEji53ctpS3quHiexdC695HWp57iCljOSI+/IDr4pP1ABSA++NfvuvoUD70gP/muDTeWBN5UH3lRUopSKuFozI9KDb83tf3t+/1vSg2/JDr65gZbt3Sjkr5PP7V3d0a+yg29KDu3j7X9X8P7b0oNv7ejcrTMf+pfo2Lv81iadgOf3ebLX2jG8JJ3QO2LjSDQecTisMhGfMzU2NdI3MdhbJsYH+/r7R9883HaseXhsYGB8sJdRts0yXaqH04cHhvcd73n/RMfwwAhjh5wU8tfJZwXJZAz29vaNvn647/S5/pGBkfItTw33c6YYMonA6bLFU3GUQLd/O1FJOqE3/qLwHJqNxCPuRbfepFdqlDKlTKaQ7hYymULGlyqbB2efPzr69iXe1JxcolDs1tqu3aivE6UKqVCu6JoSPn9i8pWmyUGWWPSR50SmkEoVsgWZqnlU8NSxmXcushk8qUQhl+4+9uiLrlQrjRajZ9EdTURL2Ui9VJ0UNo9HCTSVTUXjkXBkObQSCoaDu4Z/Oay0LB5umzw/oeua9wzydC5/OBAuy+aunamTEwPhkNEdPDMsOjVhvDSj6ZwQmD2BOvFtD93wL68orf5Tw7ILbEffrGVkVuUKrATLCJVQOLS8shxLxlLZFIoj2/ckhRex7kAnBangFI6R9B7WCI6UATSB4Gy5TeVaYUhs6kBmdMFg9EbSOF6GzXL82ftzcziawnCh3sPW+hlKD9/onRYZpRZfBiuT6r2vWnnXFI1mcZbEsmBdmVR5zYHktNhsXopmcWzXZlGc3sZ9R3tk70wn5b7kuPD6ZEChFLAGE1NiUwwnWQqzM5kz+aLTEmuaAh/J17PTb1jDALUUzzKEJm88x9O7VY5FXyI3JTKGEQr9SO4JUwg2DFAWf2JKZAogBEvr8SXSeu/KlMgQyWG1fGt7bXWS336RAFQcJfo5SpN3JQdgYV/sBE4ypSaje/mjGRMEJLMEwZEZBEZ6e6DCflo5CixonbMGX4bc7lWF5TZedby5SmGbsUmhTr8YSQLI1noCiXQKJyf5GrUrSMDabZ9Uc53kpRLN5BTWpSSKF/cxRQHli6RUFjcCPopboBCQTGGYzrkYTuUK+85pHV4MkqE0wtfaMwT+IRbDNlUjIBlNZ3R2TwIlMpDWSTCRxgHwRdPmxeXC7g7bnF7Bn/ZGJxhF5iiKACQO1vb7BSROUchHeNxF7+RKkTi8vI8pAUkMkvQuntu++raC0VCHpjBAoiSJA6qoE5oWQGEURb/ptFbM7I1OCLC6WWuxP6nlWLMOo2G9S5v2j8fpLQtrGBPrndn79Nqcdr1OaK8KhHyYdbK6Izg95m7oZHMgNnSymRMCXtGffFR0UiSioZMiFcXEJp3k93yqVcNZdKOuElfVSa0WIfZi3LWubg2dbA7HTTr5iC52rWdmC52si6L1OauUbuik7qJwo04+sjOTdUr4qOsEg4CjMHtTOXoeX5yZbUis4+uqrcWHaFiylU5qd6PgqgyXchWqloeAVBZCTn5deE+WfMrqTwh6Il4WUAhYCosnlcMARWwFHJRkv5ZL6dWOpIZONjNMQCq3phN83TrQ5pxVOrJznQCyENAYoJI4Ec4igXRuKZXdHRZT2QGBWRmILyazvqtge8u+VDaUQWMIliNpRa32S1Vr2La4DGu93+XtzGmKdo8cBHN6l9rhxS8boe817QZ7EVJXUATWbe6+uyrkzyrcP+FoPf5EGgUklsfOCVmlkaRb5HyolBwnO9YJQd8OAxGEMHijXJVzaE7fzVK1Tclap+Q7h+zSlOz4gOgcQ7XzcwvFydqnFf083bjAJDYseiLpDEFTcMWlKpmLXZ61phMMkGmCDKYwsy+u84QVtsDuILUHOzm64QWdfLcWVPaAzr1i8ScCSSxD0lG1y6qVTx0gUbo9JZdiiMkX1brCCvsuaPHLbX6xPdTK1nM1brktUECRXqUtUETx4OaEyh40LEbtwWQ4Q2RJarVVLa2OO9FJXtlZgrQFE9NS+4TUM6cPyh0JrSdj8OWM/uwuYPBnDb7crk83+rP6pZzCmRRboyzl0qTYITH7oxkMB/mbtaVRUG4M0bRQWRK4l5OzKte40M4QuxlSL0PuntgVGHLPsMQ1InXu2sKEzM2QeMcl7jGhfU7j9q6k6Zv6tWGjWAr9sAWVximrL8aWO8aFznGJhyHz7ooTF0PuGpd7hiSeMal7QrYFpmTuKZl7UrYt5zLPuMQ7LnKPCW1C/WIwgSCgVFpK1gkgCYpCSGD2xQZm9RJ70rJMOVco9ypI98quUTBS3ukR4FgBhgAxJXHxFM5ELr/PcbXb0XxPglMgi1NaZ7iXrZk3hM0h0hYG9ghw7CnsK8C2AkxBgqsNDfIMZl88W9ueFgdkAiXEJn8/zyCyxiwh0r5SEVqgI7I9rsq8PQLsK8AaBno/Pinxjsyb3StphAKlDEB2oBOMpPwxZELslDlS1jAtEledwbFCmYIkVxPga71prKT6l9WZFHoSHGjs4WmpR+3J2pbJtYaj2ILsZcIVoWzLlNyZYco9xsUYQtKTnLKqXOwutk0QgEzjlNjsZyoWdYuII0yHSuWYAe6Vq6GkUpwrwLJMim0JptTlDGVWHxXbtkal6gQHZCxLTgpMXM2ydRk4wsARpuoSQLOI9rANRk8EI/J3sretfzlBQ1AESlHO5dTgrEnppqPBWZewh4HCk+vnGQKJHFqQSlX/0ALIHEEZFhOjfKsxQNQnLY4wZQsDgSUxzresZAiMusYjlaXqBCVJ01LyVK9At4jbl6F9GdQtLCHAVq8wFgyxDFbF5pMeiJKJHM4Qmdm68FrbUWhB6uvTHgbmEDWt8E2IzDGEoDmpZq+Ck0Qonu2YUgrMcdtqk1pfhORbeWAPA2OQHOE7FrSLWSxPy9Wb1JJ0QgAig2EchbtvftEcALZQXcMSAnIX2j2jdoezGFm1f27kn/e2+2NdM0rVEm6jGw6qbmFbBgo3emFS4wolt98AupwOtvDP8ByOa53BlnG5MVTXnNiXKdsymDfEernm5UR2e1pK0glOYolsdnBWzzahpiC0hkCdw+CnWidVBm88i6FlXvirnU63HSixoHEPzJqMfirfdlC2UJ3CGgL6ALjItCjMSzkMIQBxtXqVeRynCPrNBwrnpHTJEoJ1S0jBMWsIKBfJDo7F6Q8jOLJN3UvSCUZiK4lk57RC4CGNQWipb5iD0BgAlyaUSsdKGs2V8jaNbQi62k8EIBI5bEJkGeE7TcF6bzisIWAMgUts84LKnkayBFWtbhaniJU0Miq0LZgSllC9N6mWENAGYSvLYnQtZdHsNs1HSTpBCTQUi7UyxGIfaQhAUwDUOQx+0DKukNmW00i1dIJTeDSd7efpx0QeUxCY6x76ILzINnNlplQ2XT2doAQWTGT7Z80yR7b+aTEFgTYELzItGqs7nctUQCfBSPTSuFi0ROr80OAHdQ6dj9aJ1Bqqnk7oPjaV7eVoxoQegx8Y6xsGP9AG4AWWmSM1JrOpqurEH0v3cAwyZ67OOTHmw1gdgC3TZrXFVSmdRC6Ni4VLpMYHdD6qzqFZAhfGqq+TZKaHrRkRenR+oK9v6PxAHYDNTDNbaqi2TnzRVDfbIHHk9LttT2tDpsEH9D6gCsAL05YK6iR2aUwi8JLqD4BOgGYJnK+JTrrZmmGBW1v3DYfWRyn98DytE30NdNLFNojtOW19h4p+idIuAYWP1onK7KxUfxK7OCbhe0jVEtQugTqHehGcr8G4K5lZ0wnQ1XdM1F4nIlonsJ7HHdXSScuYZMFNqhahZhHUOVQ11MkQ362ue0I0i0CxBM/P1Kg/6WTpBbZcnQeJdhGoF4F8CTZPmyvWnwQisZZxyZybVCxCVd1D6QXnx5RSaxXXu+h5fL4/GeJ7VF6g9kL1Yl1DvgjPzVhqMz8p6ERNB2Jdc6JahLJFeL6SOonGWsalc25SvgiVda8ThRecH62pTlTeum4+lItQuqqTqq93+aKpTpaeb82pFqk6b1KVi1C8CM9NVbA/yetk1kXKvFDhAWVC6QF5wLVEuQY3+CPzgPOjitr0JwN894bSy/laJETpocqxs/lciReenTazq78uXNSJwluxy6r0UAUoKkqL3AvE3irohOckpR4od5cFmZviaaMDbOMg1zLItUwKvRJbTu4GZZpdf7rUDc7VSif9C2552Q3HWlhTMicmcyAyR07mQORucu14BQJO4qmpThYsuUo5L3eTUicideRoOHMVpEXuASJaJ5Vb7wpEYxfGJBw7KXJBiROUA5Ed3Xd64Obb7/vn22ffONj+97fOvXaoc2TeKXGQUieQlme84JjYSTXVRicsTd+8W+aClQA1r4+9cqD1xXfOv3qo9V/He8eFXqkLVMIylLqg0A2bpiy16k8Mc+ZcRTyXucCkeOm5N8/8870Lrx5qffv04Iw8KKsQLbI8LZXXCdtOCp1QXBaAyIa9fqTrZw8+zlMFpHaUo1x+cd/5+x57cVoWlDopiROWD5EDNA3XYtzVxdJ0z7nFtLbLpAWKndSUZPGH9z95tJ01yneNCRfnjNnyqL7CJYELnqmVTjpYBq4xVxHnJU6qg6G47d4/to4rRvmecZGPb0YqYlnshCInXHDBs5MV7k+kbBspcECRA5QDoRV/7VDXT371BEcVFjsoiZ2cFLhuvfvR4+0csZ0QO0D5ENrBmeFazONpncy6RbTPVwTlri4kNSX23PXQ013TGokTkzhJsZMSO8GuTG10RuSEfCc8M1mj/oTWiSEnqkDbQTcfHQzpjx/4C1PqlziIitMy74RNkxWdx18Yk7JWdQJFtFp2CYEVf+1w909+9QRbtUJHmB0Ijal7Hv7rP99vk9gIkX2XZtf7I7CD08OqGszju1jaLp5b6AAie1ltR77dISfFnh/+8vFjrZOj8zaGaFFoQctpj9afK3SABSc8XTOdMA0cfZampQIg28elt93zWMeYeHTeMSn2CSpKy7wDnpmotE6YFnLBDoV2UA74FvTVfH/CUoWFdkpko/jG1C8ee/HVQ11iKy60AaENrmJjQZTQviWu9McG+TZwukb9SV4ndkjLu1xQkyLPt+988Ke/ef7hZ997fl8rRxWn5VeuWdoxgR3O2+GpiVr1J7ROcsJdN3lXVJlqG5d+7tt3/+qPrzzy7Hsvvd/FrBwtQgecq4ZOps3knA0u2EAZoBbM6CsHO+9+4AmmIsy3UXwrMbbguuXux0608wQWYsEK17C+FGrBRi3YyKuAusIfK5y3gtNDtRl3abu4br4VCKywTAitFEPo+dGv/nJhSMrRpLi6HN9ClmmzeDrfCmdteZ1ITJV/vmvtDWYkJFEC80VTHUwDU5ctll5egmwdk95+3xNDs3aOJs2jaaHKM3j5SvFtNC1nGKZK3o9vHpVOmkgeHYXlAMwZaZ385IHHmbLgghkdF/n/9s7Fh57417gouGChrmUczFs3Y6M/sxZwitZJOI0gVfoveOF+fBdL28n1rAm7qPDdJPhWalzg/vGDT7dNaPlWasEKKmK2YGTeCrlWeIJhZUvMNdKJNsu/3OTthpC16lOXRqR3/PIphshfaI8qZJZ2iaalCjqRTxpJngXOmcsCz4i+cqj3yzf/5K9vNf/zQNfv/nrk2TeaB2fdsyZizgzKNF44fdYMTg2p8jqp1v+0ijrp4LjnLNScBZSJeQs5xnff+cDTF4ZlPF2ao8vOGvGKWJ6zgFkL4FjgiXErW1oFnRTeoZ5/CUOxP5nRZObN5XIyZwHzFrJlRPaDXz4zKgrOm6l5M5w3wzKpXn86xwJPj1dwfhKJNY/KJ4wk1wxnywPPRPbzvO+cGX/33My755hn+mQsVXLORJVpdv3pPFPtdNLOds+aqVkzKBvkuChwz6P//MUfXnv4uYOPvnDs/IimQpZp39gWeKx6Oll7U0lBJ+1Mw5QmUzYhBUrJ9mnjb549PC5ZyRsshF/5bNMWeGbAssBT1dAJxwR5JsCjP8sB4JkorglwaVMFlGNt47lcEzg5WKP1rja2i0czDssG4BqxMVFweN47vOAdXlicUSUrZBlyzZBlrrFOshVyHrD0uTFZlGMkymZ44zXimiHTDE9WXCdjepJthBwjyANy6HQ9gmWkTgzV5j6jtpXt4tCChxUC3XasuPKxZwAACNNJREFUQ2XMckx0QNSyP5lQpytHS4GQylCx/jJxTHCmSjphGSG77sEygOMDtdGJ7hLLzTIBlgmyK4I8t+tbn1W2yzPOMsFpEzw6ZmVVaX5SGHeB1fWudqZhXJVmm0BlOCmv7tv4wDLBKRM8MWZRmSv0//hAJHZ+VD6qJWf0kFn3mNGB4wPFcVdV3qi7No/XtTDdM0Zq2ghmDBUA0wBYV4JZCbMzBjBphEeqrxMsvy7czjSMKtMVIaS6Row0LZXXyZCanNLB6VWAaV2dYkpLHusvrndVWyeuaQM1bQDT+spgRg82oCKWJwzw8GjV+5M1nRhHFOlpPVURz6tnZEoPGAZ4fNRc4f5kQE1OaOFk3WNCQx3rL95nrIpO8ML/GVm6CzOuKR2Y0sE6B0MPD4/YqjzuIjAC9UVTbUzjsDxd/7RM6iBDV2mdnBuV96vIcS1clYoGTtYrJjTU0cs6qco7QnESiyQz3Sx987R7Ugvqv+0Y18KDw1XWCSRQAvFFU61M46Aszah7Wia0cEwLj41UtD85OyrvU5JjGjhe/1BTR6qsk7X5if78lGtcA8Y1kFHHGNfAMQ08UEOdDEjS4xpQG04m1PBquKYDIxp4tNI6UfQoyBE1HFODOseoijx8eX5Slf6kqJOzk84xNVXnhIypwbAavj9Ug/6EHne1zhj7xema0TKuAuMqwNiEMdU1AnVUDYbU8MiwWVnB9a6mUUWXnBxSwRFl/YM63Fecxzd0AgoB8V7VdbK6LlxjnYzldVJQy/rPUnQyqIaHK6mTaKxpVNEhJweUcKj+oSAP9Raeg6z28136sxOuUSWo/7ZjUAXfG7Ixq3r/ZO154dZpY68oU0tORpVwS2zvw7ASDqjg4WFLxfqTYCR2gaFq4aN9cthf9+iTEYd66fuMmaq9rz4/7kp3s/VnGK4hORhSwDpHnwK+O2itjU7amMYuQarOCRlSwEEF7FPAQ0N5nWTTFXhffSgWb5/RnpwK90hBrwwW0SeD9YZeGewUoYd75QpbsKrvq48k04OzphMjtj4pqDcSNvvTLQP7+q0smaXyz9WvPQRZ+P+JP5bqYpua2eHNPlTjSL8MDuTRv/NQ7JXDDhk4MGhWmSuxrwNGoOF4fFxgfrtD3SkieqSwWwq78p/dUthTZ+iSwvPc2MkBidEdyCDZKu0ThJFYNJmaEVuODOi7xGSPFPbWNzpExDvd+jmVvco6QZdjiZF587FhJ92k1jcnPVJwiZ87NKDT2bwVeA83HROppETvfOcir5mb7JLALgnsXEPha/18touIQ0PWzmm52x/KotXSCU7h8XRKanQf6pZcWsjVW2Ox3p/efEPWMps80CFSWxZT1d3/BI0k4rMKy78uijpF+Ho36jINzkwFTw/JbV5fBil7nyCCwtO5tN3t7ZuRHRmytgrwDjHszKNDDOsEnauegHPs6OEu4bzSEoqsoES19mfEKTyVTVk9vksMxbFRV6eYqp+WIu8J6JKAokvtIuLwoLWDIXEuBbbfYO1q++yVeJzeyjOd0Fhdx3qFpyZ8net8KDpTP4k2AXaoVzvCUy6FQjkst00dS9p3joQkgiPBcEiiNp4bkhwfdV5cQNqEoE0I20R1gXYRbBfCdgF5jhU92qcc4SosLnciXcW9bQkKz2E5/3JoVmY81iduYq20Cal2EaA92Rog/+vuPq9ms3B8vc3LOTuKbgjJMzPBEwNSgdIYXFlGcaRKY1F6v18KzyAZj88/xdce7VM2zybaRdRVCLns6p5kaBXgJ8fdZ4fFCoM1Eo9u36SWqhOCwpOZpNPjYQtVp3rm3m6TnmJGLsxjlwRUq3DvcYlPNM9mjw6797cudE8K1QbzciScw3LbrGBs03iU8hMB6GeZYsm42eEc5kgPdolPTYcu8rFWEawftIvAJT52YmLpUCefMaewu92JdAInsVIquLs8BCBQHFmJrWhNtq5JyYFO6Vl2tFVItIpA/dDSKiRb5tGjI87j3XyWUONaWkxl09i2tJSqExIQCJ6LxiNmu50jkDcP8vZf4u7vkB3oNx4YMOdhOTCwVzAf6NW+c0lwpIMzMCOSa/W+oD+NpLffEXx3cVA8iwAEQeFZNBsML6sMpoEZ0fuXuIf6dMcZ/lPs1Glu5jQve5qXPUUjUzYKdrb83Nr4aW7mFCt5jOE70Kc53Dk7zBZrzZZwNIxUs+0okFMYpfuCAYna2DkuONC2cHjAfGIyeJqTOs3LbIOyWdqaivVmT3MzJ1nxI2Pe/V2K412zk/Nyk90eiUdQ/Bp7hZesE0jiFI7iSCQesTntEoVigjPXPsI908s+1rXHONnDPT/A6Zuc5QpEWqPBF/Slc2mMQKs3ulhVCyBwEssgGX/IrzUYmDzR+QHe2y2sF0/NvHB85vnjM8/tHZ4/PvPSKdbbF9ktw7yZObHWaAwsBzNIpqqdSZEWjECTmaTXt6hQacdZgtO93DeaWX87OV2g5fk8OZs/a0DXCyeY/zjNfO8Su22Ux+VLTDa67chhuWvSsgOdFEafCJaLJ+O+wJLZZpZrNAtSKU8g4vKFe4g5kVgkV2iNBqfHGY4s10gkazcNcBLP5NKhcNBsswrl8hne/Mgkq390qnd0cg/RNzY1NMmamV0QKxQWhy20Esrk0nQ0gKo8xVPsZotdSkEqvqDPYDYtSKQMNm+AMdO797RMD0+z2fN8mUpldzlokaDZa4qEhOTOdEJLJT8uzyKZWDK2HFle8i96ljyeRbd7j+BZdC/6vIGQfyW2kswkkULbUJNoKAYHPadHs9FE1Bf02Z02vVGn1qqUGiUN9RoKX2v1qdKq9Ead3Wnzh/zxVDxbWjQUa1SRBJbvbCOxFa/Pa7VbdAbtKie1ImFzcWqt2mDSOz3OQCiQSCdK6UkKVOxYJ/Rp+aE5RmIIlssimUwdAMFyKI7gFF69ifv2oVNsPpLpxEpsJRwNL0eW9xDhaDgSjyTTiQySQQl0b2jJxwlKoOlcOp6KR+KReqAlmoims6ksmsVIjKDwEjvY/x8L43ySL0mi6QAAAABJRU5ErkJggg==;" vertex="1" parent="1">
          <mxGeometry x="400" y="281.5" width="269" height="183" as="geometry" />
        </mxCell>
        <mxCell id="z2YyQgFQYphJJJYKpOAV-5" value="" style="shape=image;verticalLabelPosition=bottom;labelBackgroundColor=default;verticalAlign=top;aspect=fixed;imageAspect=0;image=data:image/png,iVBORw0KGgoAAAANSUhEUgAAAjwAAAELCAIAAABS+stFAAAgAElEQVR4Aey9d5Ac1d3367rv+9Z7q+4/975PXd+q9wGDeSREEhkTTTDgALYBY4LBJhp4HsDYYAwYjBDKEQkFUE4rrTZpc46zaXLcyTnnmZ7pHE6HWz0jDavVSkir3dXObld9a6qnp/v06e/0OZ8+p3/n9A9gDC4jITiCEihKoDiFkwxJszTDMYAHgAeswJ5bxc1olqYAhVM4jMGZXCaRTkQT0XA0HIqEJEkOXLwD4Vg4loglM8lsPovgCE7hFKDO/yo92zVcvHoZjqFZmmRIjMQQHMmj+RySy8LZbF6S5MBcdACCoTyahzEYJVCCJqalLPwAp/AyEkETBE2QDEkB6oKIVawLStwiGRKncARHxDKfz6ahdBpKp7IpSZIDF+NAGkpnchkIhnJIrkgskiEvnljjr94StwiawEgMIzGUQBEckSQ5MNccKDYwMBIrtjGKxCoWh7PdnJ3P+h9QgCo7FXE1tboA8KBY7ClAFYt9scyXUXNTyupcdqDYGYCRWPG+snRrdT6l8Xu3Gd/eogBFMqQkyYG570CpjXHxxGIF9gcMx5SjiqX3fHoFz6wIxnOLZEiCJsqorSllde47UOoMKJasqV2lZ163xTWlK79470WztCTJgTnuQKkgTEtZ+EGpDJTjwtkK9veuL55sqclVdm1NKcNz3IFSA2taSumE67lUVMvxdlPK8wJ0oHTFTriSp/a1LKE1tVOdsFeJWwvwGpJO+aIcKARWnDuF6S2lEy7d4tfSIaQFyYG578Ck1/DUVv5garvNj73m/j8t5VB0gMIprRYAquQG7XZSDhtg6dIawANSp8X27hu/ZkaWOQZZsQp5929MOPS96Z9ZTGibNXfPQ9jGzWf+dJ5rAJyjevtov7e0fTEb1NgYdqSCQfLfmytpA8mB2XSgdKFO18KChhYrsLP550nHmpoDREtL9uob8cMVpd3ht97NP/sCgyOlNYAH6Ko10IO/GL9GXAYU0d6B7d0/XqRcDnhAqdV4Vc05xKQSE1PjAWUxQ3fcC937EB3wnfnr+DWTFlFaq8leuQRbvnKSXwHFUvgkYunxG9PmMejmO/G9+8evZAGFvP4WdPVSanDwtPXfNw5E2lhyoOwcWOjQKrs/bMFlmAe5Rx+H7nkQJOPoyjXEgUOswCJvvQs/+yIgUEqpgF96DcA5VmDh3z+P/NdfJvgDSBx+8ZXs5YvHC122Qkzkk8+yV15zDtF264TUWEDlf/N09rJFuXsehF98Bf7juUQNDJR2BxhCWy201UJWVWevWIK+/4/i1+InyKZZlsa+XAUtveNMEZXHS+mwAjsptGi7DbrlrvyvnhCTkkAlOTCvHZCgxUqFfM46AEgcW7UWuvZmSjYIsun8r59CP/hoPLTI5pbsFUuYTArgKHT1UnzrtgnnIkLrhZehW++mvR4mEaOGhqBrbkaXfSkm8tE/oauuo4ZHzhS2fGX2skVMPDo+NYAh6D//lb1sUfayRfmHfgE//fykyj/ymAjIyxaRDY2l3SmlIvujq0UVfhI/i19/JG5JHK9mWRr96NPsZYvgP76KvPFfRcHPv5T90dX4QZHTJU0KLWL/wewVS+DX3qJksklF63QsoEqJSAuSA+XrgASt76qD8v0X52fOeUAcqchedR363gcshZ8bWpRcnv3R1fArb2AbNhWFf7sb5DJFaOXuuA+gebGZYrVA193yHbQWL53UOmzD5uwVS1iaHP8rvm1n9qrrcj99BLr25vwjjzEuJ8hDE0Qb9Ln7Hs5etgh55Q2AiEcsSmxpWcy0xYxt2JS9fDG28aviV/zQ4eyPrhbxdgpaTDDAMmRRtNWSveq674cWD/K//p1I06uug66+cVLBv38BIGJ7VJLkQLk7IEFLKsZz1AFKo4aW3i52eaWS4tPHQksL+duHLEMib7wNP/MCgHNkQ2P2iquZTBLbtCX7o6uhG38C3fQT6OqlYmPo0ceZUOA8oQXgHJOMg3wWYDAT8Od+9sv8w78qlW2AI/je/WJT5uk/gFwW37kr++Nr4Zf/LALm1PxhgMAomSx338+yVy5B/vI+y0zWrOEBtn5T9rJFVF9/MXGyqSn742vItrYStEA0Ujou7XSUoMW4nKcaZ1cXW3vi16uuI5ua8X0Hsldeg366jDhw6Ezhm7dA19+af+L3AINLKUsLkgPl64AErTlaZZfvJTVdOc8/8XT+8aeYcBBgMNncwgR8+V8/lbv9XviPr+ZuuQu64Xb4hZfzv/h19vLFTMAHP/sidNvdtFZDGw3I+x9mL1tE6/UsRZwntMjGpvwvfpN/8hn49y/kfvpw9spr8F17Tp4ID9DPl4uUevoPTDgorqQJfO8B6Nqbc/c/Quw/yNIkPWZC3vgv6NpboFvuIo4cBfnspCYACodfeUPseAz4ihsQhyugRddTPT3fCy0RlgcP4wcPo1+ugq66DnnjbfHr4QqytQ26/rb8E8+AXGbSgzI+T+72e/NPPQdIbNINpJWSA+XlgAQtCVpz1AF8335Kq2EFlurpga6+EXnrXeTVN3N33T9e0I13iA2X4WHo1rtzd94PcITlAfr3j6HrbimWwyK0slddl3/ymfzTz+d/+VsxDqL0TOtU9yBtMuXufiB35/25O3+af+gX+O69gCJOpkAT+SefhZ96FuTGoYgHZG8vdO3NYlDGzx8Xozl+dDX89POM/ySNJq0FmEAAWnIj/IeXSr9iX++AltwohvyVugd9XkBgRdFjplJLq7QLWd+QvWzRyehBlkY+/jR7+eLi8zMmFET/8U9KoShtLPaIuhzQrXfDv/8DYE7r7Ry/jbQsOVBGDkjQmqNVdhldQzOVVbqADR7Af3oNWnq72BdHEyyJjxdtteDbd2JrN2QvX5y7414xdo5j4D++mv/lb4u5KkILuvpG9KNP0c++QN5+L3vVtWdCS9yYIQGBAgxhOWbCGTGx6PgHVCxFiOHyW7fnH/rlyZ66yxZBV12HfvIvsqubicdKfYbj0wEYDP/hT9DipbTRcHJ9ka83/YQ2GUvQgl94CXn1zaLgZ188MxAD/csHIrR27hKzypDohx/Dr70JCl6JjwCvWIKtXDM+A7TNCt1yF/zcH888r/HZk5YlB8rFAQlaErTmtAOUTCbW0Xv2iY+1cAQk4xOVh3JLb8898hh0851iQ4el8z//NfLXvxdL4Pd0D/74WuLg4bOJ8bhPFmMesCwNSJw2GLC166Gb7xRZdfni7BVLkLfepa1mceW1t4gPmQrrc/c/gn70T6LyOK3XM5mkSAuWxtZsyF62CP30c5YHxIFD2MbN6LIvoWtuzt33MEjGS9DK3XFv7q4HTuq2e8RzHxc9CAgUWnS92Ly76SfIm++IKfPgZFggx0D3PJhbegeg8PG1Dz1mgm76CfzCy+NXSsuSA+XrgAStOV1ll++FNS05Z8LB3P2P5G6/t/gQCN+2o9SyKS2g//qC7OoiOzqg62+ldVoWUNCNd+CHK4oZODe0xPbZfT+D/uN6aMmN4oFOCbr1rlLMOlFdjb73fv6xJ4udgdC1t+Qffwr96FN8yzZs0xZaqz15oHSSbGvHlq+Cn/tj7o57S9kTo+0NemzzFmjx0vxjTxb7D7H1Gwv9mT/N//b3xIl62jxGKRTY5i35Rx8HqUTJOiYUgJ/+A9naWlqDf7s7e8USMSTkd89B19+G/Om1cY/HjmSvWILv3ccE/eOHiNF6PbT0duTVN0uJSAuSA2XtgAQtCVpz1QGOQT/7osCVh5lImBVYJhqmVKoJYgJ+sbXBkNnFN5AtLbTblb18MW0xF4vluaEFLbqBiUfhZ1/MP/AogKGSsC9WiOESQb/4RK0QTJ978FFs+SpqeBhkUgCFWZYWny1deQ2+8avTyj/HiH2MuSztsBHHKtF/fILv3styDFFxLP/kM6WnYoDEAJQBOTFYEeSz8B9eEoPyYUjshOTGvc6UYwp9gCcDEUEmlbvv4fwjj4lU3rVHBNjli+BnXmBpAsSjuft+lv/ZL5loGFu3Abr2FuYU/Gi1WsTbGcOuT8u2FAovOVA+DkjQmqtVdvlcQzNU/ZHt7dCiG6AbbsvddxJa5z5Q/tHHsS1fY5u25G6/txRKd/KZ1s130goFbTKRDU3QkhtPe6bFMuhny8QQxAKixE5ICs/deX/+0cdLhwOpJBMKMgHfeIkjri5bhG36avzK8cuAGBetByh2/Ndxf64Iraeeg5beLk7gNG79mctETW32P67H9+w9OY0Tx2BbtxH7DrAcg+/em73yGqLiqIh2vzd32z3wn14rJkjJ5eLQtL99eGaC0hrJgXJ0QIKWBK056QBNiIO0nngG/ejTErQYnwf546vjJTZ0ivEaAott3Az/4aX8Tx+BX3ylFN5dhJY4hOumn0A33wndcHv28sWnQUtgycYmcVqKU4+OyO7uQqTDt6XyDHLZ/K9/l7v7wfGCrr81e9ki6MY7xq8cv0xpxNDHovBde/JPPTu5fvM0dM3N2SuvyT/x+8k3eOpZbNMWliFzP/91/tHHaYPhu7kHOUaMH0Hh3O33Ii++ctIKQKGffJb98bVkd4/YUhQnAbkJ/eSzUmakBcmBsnZAgtacrLJPVXZlfW1dZObRT/5FKeT4+o0laNFGQyFK8L78w7/KP/yr7I+vRV56XWzB8IDlgRgmd/WNYutnw+ZS+BwgMPgPL0FLbycbm8jOLnzvfmjx0gnQAtk0dN0tYlA7LM5wkX/ymdytd9PmsVL+AZpH//FP5K13vtPrb0E33CbOfPHqm9+tLG7w5tu5ex4UB4qVogQFFvt6ezHPEz5PxnQUpobKXr4od/cDEzYofsVWrqU16uyiG6iBgQnTOIF0En7h5ezipWLgotfDuF20w06cqBdnhHr1DZYmqP4BMXjyC3G6RUmSA/PAAQlaUkmeow6IT4B4gK/f9B20DHqxE+zIUZBOgXQqd/eDRWgRjU20ywGgTP4Xv8lecbUYjnGqggZoXhwvfOdPi0HhZ5vGiThaKUYx7NpDHKsUJ4765+eTT2lxKlkmEoJu/EnuwZ+zp0/BLh4XUOjfxNHN48dsic+uCnke/0kNDeV/9sv8g7/I3ftQ9j+uz//qifzjT9JGw/htTi4jeTG6fdkKgCMToEUcOVqYGuNacfjanffnbr+30KAUgZr9j+vJvj6yuwdadAO2Zn3JE2lBcqCsHZCgNUer7LK+qqYx8+OhRQ0NiRVxW1sx/dy9P4Of/5M4SOvH11K9vUwkLM77d8US2mQqZaAw+dPvcvc8VAxwOBu0WB7kn3wme8USaOntubsfLE4bX0pk4gKFo2+/l71iSbH/7cxfkdf/U4TW2SdcByRO9fVBN/0k/+unmFCw+EyLNhmhW+7KPfo4bbWIcw+eAmRpARTmQpwALdphz93zYP7xp5D3P8TWrMf37CMbGqjhYVqvy935U/iFV8j2dnGE8ldfl9KRFiQHytoBCVoStOa0A+OhRVQchZbcRA0NieESJJ675a7sohvEafc+/pSJRZH//Au05Mbsj65G3nqnFNTABP25+x4WG2QFBpwVWgIrNrauvCZ7xRLi6LFzFGlAYNjKNWLn2yt/ZtmJw5DFjBEo/NyL2csXTz6rOg9oo/HkGOf3PmBikfGBGLTTAb/4KnT9behny2ibbdJsTIAWywNxJtxTUyB+twvH0GMmQOJkY6PYiPz21KxUZ7Dwu12knyQHysEBCVpzusqWKpTvoMXSyJvvQLfcxRRe2kvJZNCiG8Tq+JtdrMASh46Is6ev24hv2CxOa9TUVLROHKW0+AZ889aTX88yyzsTDkK33yOOFy4MGSYamybBQKHrD/nn59nLF0M33EY7HZP+OwDO5R76Re6Wuyf+ygOAwmLP4eWLxVj53XuLG4yHVoF5mIi0whtM4FffoD2u4hO7UmoTofV9tQy+d5845qytvZSCtCA5UNYOSNCSoDWnHShBi2xthW68A3ntrWILBuQh5M23ib0HWJokOzuhm+/MP/wrJhJiaQJ+6lnx0dfRSpah8LUbxQ5Dp12c45ylxVkKr75RnOio+D6txUtBOoF/vUOcmeKuB8imJrLuRO72e6DFNyDv/4MaHCyFrYNUkqipzT36ePbyxfknnikFWQA4RyuVtE5H26yMz0vbrMXXmmArVo+vF8iOTuRvH0LX31acHp4aHipNqjQBWuJehYkNkZdeL7b8cj/7Jb53X2n7c0BL7HVUKKjRUdpoYNwuxumgenrFuaauWCKOZvs+vEkbSA6UhQMStOZ0lV0W19CMZrIELfFtkDfcVhxlXDwiIFCRQ1oNdM1N4nQYLmdxPa1RQ0tuyt3zEG3QZxcvhZ98FmAw8uY7YpDCUjHkvfguYPElkIuXwi//OXvFktyd94tPwnjAcgztsOUe/LkYzn71UmzFakAT2Nr1udvvzV51nTgP0yefgUyqdMq0y5m7837o2puh62+Flt4uxsH/6GpxZiYYKm3DCqz49pDLF+fueYjs7i6B8ORZnGWcFsBR2mgQZ4X/j+upkeFSaueCFpyDn34eWnKjON/8DbeJWnSDGOL4/oeTNxznMMaAwJapSv+UtDBDDkjQkqA1px0gdu2Bn32RScRAMk7brWcWAyYWyT/1HNXVPf4nqrMTW71OfIfI19vJ3l6xyfXNLvjlP4tviVy/qYgNbOPm/M9/zdis+Fdbi7GFpRQACuM7voF/95wY+M4x8EuvidMJ/uOftEFf2qa4AOAc+uEnyOtvwa+8Ab/0Ovz6W9iXq2ivZ+JmGELJ5ZOEGgosyEPwi6/k7nqgNOBs4r6x796wJc7a7rDlH3mMOFY5YTPxK8dgm7bAL70Gv/Ay/Nwf4RdfERuju/eKU3jMYT6V8gYEjhE4mucpjic4Huc4nC0zESxHcWL+aZ5nBA4IXOnspIXpckCC1pyusqfrby7fdEAuK7auAH2OUxAndz/jXfLiBEiFp1Anf2JpkQrjovIAlBFTLrSuJkmcB2KLqhDgAJJx8U1aZ8sDx4iHYEgx+uOMbEyS8gR+sDTj99IO+3k2hgCFMz5vaUaoiekDWnzLszhdPSyy+YwZ6yduPyEzl+grEFhG4EiBRzjBn6W07uSoNdxv8HWqHJ1Ke/nI0afzyK1hjSvhSeJZWiB4QeQWL1Uy0+mABK3pdHNu1ghSriQH5rIDjMBRHJejgC2S7VA7awddFd22g52WfR3mPa2mclLb2L5288FOy5Fua/WAs03pNviSWRyQrNiCBJfohmAu//VTy5sELQlakgOSA5fMAYbnMJYPQeSAMVAnszQMO3sMMbkbVftJfQSMxVlzopxkiAC1n1R40P6xZIvcc0JmaVe63AkUARwt8BK3pkapCXtJ0LpkxXXCPyF9lRxYWA7wLOA5nBX8GaJN7qgbtA/ZMo4U58sIvmzZy5sVnClO6co3jnjqZRZbNIcAnpG4NR3NTQlaErQkByQHLoEDgGcJlg9kiNZRW6vCpw8Q7jTvS/P+NDc/5EvznjRviYEubbh+0GILZzBWYAR+Yd2aTAelJjgmQesSFNcJ/4H0VXJgATpAcWwMpjpUrroBmynCuNO8N835Upwvxc4XFU+Hs8XZNnWwXjYWzTMEK8z5/xqwwrRrOqtZCVrT6eacvxylk5UcmBMOAB6gDDdqjx9q02j9uCsleFK8J8V55508Kc6d4k0R+nivuU8fSGGAGf+ezxloiFx0LcSwAj1OJCtckMbvW1we917T6ThfCVpzogxf9HUmnYXkQDk5QAE6hTJHu4ztupgjXSQWX+DW/Px0poR+C/TVkS57JI8zDJiLQfCAFRhWoFiBYASUEWBGyDNCjhYytJAuqLSQooXxyozbJssIucK+CCOgQMAKwKMLTbdpuz4laE2blRJ4JAckB87HAYYDMEXr3fF9zVptGDhSgjvJu5PcPJYrJRgiYOuxvn6dJ4PRNDv71c5JJgGRSTjDoxSHkCCH0xBGZRAyDRPJLBpOQt541hlMmPxxvT+mdYcV9sCgPSCzB2S2wGBBA7bABIk/ndpsyBtV+eM6f1wfSo7Fs84k5M3hMZhIIlQapbM4gEg2T3EII2CMmBMSiK065oKoJkFr9q8e6YiSAwvXAcADEoAkylR2qqr6HWNxzpkU3PNdrqRgifHNcv/RdlUgSxYaW9PcaXbG7YL4XAoIjCieBjxJcwhGJ/NkKIu5k7AlkNK6I6NWb7/R2a2xtilMjaqxZo21VWdrNzq7Ta4eo6t7zNNr9ctOafDUQmlNaeHUT76BMVevydVjcvUYHF06W7vW2qoYa1Kam7T2dqO72xaQeWPKUFqfRh1Z3JsnIwTIMjwKeLKY1VMAKz5Um7yYSNCa3JczrgBpM8kByYFpcADwAKOZAERvOtzRrAha47wjIbgS/PyWM8Hb4oLSg++o6rfHcYSimZmdrASwAl1oVCEEm8nh4WTeE0qO2f2jOnuXwtQ0aqhXW5r0zjarv8cR7HdHZb7kSDCjjEDaWF6fRC0pzJbCbFnClaf8FyJfBnelMHsKsyUQczRniEBaf0ruTQw5owO2YO+Yp1Nnb1Vbmkb0J5TmFoOzzx1SRTPWDOKDqSjJZQs9itQpdE1+vUnQmtwXCVqSA5IDM+EAzTJ5knImqc+3n+jWx21xwbkAoOVKiGw2x/hNh7uMQTSHkfQUZvw63ygGBggUw6MwGY1mbc6wXOfoHDXWK8eazJ4+d1QRyhgSsDWF2kUm0V6E8aOsH+eCOBfCuTDORXAuinMxnIsRXILgEuSFiOASOBcv7B4tJBXGuTDGBVDggxlfjnJncWcKtcdylkBKbw8N652do4YTyrFGo6vLG1el8m4CZAroKnYbTlI/S9CaxJSZKKtSmpIDkgPihL8sDeGkJUp8sOH4gCltjwuOOO+Mc/NejjhvTQjrD3ZqfHAWxWcMWgDwJAYykazN4h1UmVs1tjZXbCgG67KkNU97EBDE2RjBJQkudbrOXCNuQF6gTk+zdIjk6UdM4lwC5aIw8GdpR4oYC0FKi79bZWnUWtvdIWUW9VNsrhAVMkn9LEFrElOkykVyQHJghhygAJ1FCWMIe2/dsYGxjC0u2BeMzAlh3YFOlRtKI9gMQQvwJEKl3BG13tnuCA9GIBNE+hAmhHMR4mTLqQinNMFdcqUKLTmxWYax4TztT+POQFpl9vXoHB2RtIUEk7+dQIKWBC3JAcmB2XOAAnQGwXUB5C9rj/Wb0tYYb1swGouL0JI7M2l4hqAFKDYfTBiVpqZQVoOwXoyP4XwS51LlIT6O8SGIsdkjvaPG+iwamfTJnwSt2SuuM3TrKiUrOVBGDpyEll+EVq8xbY7ylii3EGSO8qaYsHZ/h9yZniFoMRyN0DGjq2tQU5lETQgXwPgozsdFbpWBEriI2FCOtQfzQ21Du6MZJ0kToPB6oPFXuAQtCVqSA5IDs+dAEVpaH/zu2soeY2YsKpgXjIxRYc3+zpmDFgWIDOpXmU809X1t9DaFc8oM5UBACOWiBcVQLoZxcVFsHGMTl1RxlIujnJilgqIoF4GBL02YPem+UdvBup6NvqgRxRGGnfguPQlas1dcx98sSMuSAwvTgQnQMkWEsQUjQ2QGoQV4QNB4IucaNVYNaA+MBZpVjhNGf7srMRTOa9OEJc+6Ed6P8kGMi2DiY6Qiuib9nC6eTZp4HGNjBYiGED6A8D6IdiSwsSCktkf7de4mlavKlmhoGPjK4dfk0TwtQWth1hTSWUsOzBEHJGjNUEsLcAxGotGMfVBbqbBUJ0mdLzus9zbKTIfl1kq9p8ES6nCnBsM5TRKzZCk3wgURPoTw4ckUQbgIwkUvQhGEj0yWclg8KBdMk/YYagxAcke8z+RvUbtODFuODVuOmUPtIWQwBUabZdttXlUOzlFnjA2QWlpSS0tyQHJg9hwYD61uQ8YYFkxhfiHIGOb14ZlsaRWgFUlZZZpKubkuw1hStDlO6sLYiCPZafQ3ym2Vo9bjKnudztVk8LSO+TvskV5vetifVYTy6jhmSJGmLGuDRDkh4IJYd4715FjvBcoDAXdhdwfE2rLAmsANUVQXzKn8mVFXfNAS6jb523WeZo2rQWmvGTYfVTurx0It7kxvFJcnKH0K6DJA1SLbaXUroXyWYsgJ91sStGavuE6wXvoqObAAHTgTWsYQv0A0C9AKJS0yzbFRS22asaQZW+HTnKRMCdIQw3WB3Kgr2WuNthmD9RpPldpTqXJVqpyVKudxtbNK5TyudFSqnNUGf5Mx0GIKtFkjXc5k//nLkeg3hzqNgTZjoEXnOaFyVIkJimlWqlzHxWO5K9Xu4xpP1VikyRbr8GQGIogiTugSpDFJj6UZc5qxpoEhxaqbZTstboUELYlPkgOSA5fYgfHQ6iq0tBYIsYyh2WhpjYNWAQCMVcTASVkKVDClgSENtCmgjpKjfnjAm+1zpbrt8Q5zuM3ob9L7GzXuOrWrTuWsUdiPj1qPnr/ktkqlo1rtqlW7arXuOoOv0eBvskbb7YlOd6bHB/WF0KE4JU8DTRro0sCYZkwZxpxhLJnvMmlNA32KVTbJtpslaC3Au1rplCUH5poD46HVqU/rQ4I+uFCkDQlr9nfN6DOtU9CqTtFjKdp8VjGm1AR9t70pimkiqCqCKoLwsA/qP3/5cwNhZCSCKiKoMk5oU7RJzMaEAzGmwvqz5w3okkAhQesS313OtYpDyo/kwKVyYDy0OvRpXUgQubUwpAkJq2cDWkdHLdUp2lhgQ5EQU/g0pmhDipmSaMNFHZ3RJoG8SbZNamlJ3JIckBy49A6Mg9bxdl1GG+R1C0PaIK8OCqv3zdQ4rWL0YKGlNS3QKnLOWMDPFD6ngMlTuzAaEVoDErTOd4LkS1+qL9UtsHRcyYFZcGAitAKCdrakC/D6AKcPsIYAowuw2gA/a4cuHqgMoXUKJGJH32xJhNaoBC0JRZIDkgNzwoHx0GrTZjR+YbbE6/xsnz6xbFPFZ+v2t8v9Wj83W4MA0ScAACAASURBVIc+eY6qwPS0tIDAAoEDAjf+JuO0lpa5Kknpk5SxHJWg1QlmpFH2tdktl6IH50ShHX+dScuSAwvNgfHQatWk1T5+dqTxcRovdaBOdtXSe3+05LYNu+pUbkozW0cvnqPSz6/ed7GBGEDgCABQwFG8wAh86foZD60Rc1WC1sVpfXlKGWOGG2VbJWhJxJIckBy49A6UoPXO2uPNmrTSJ6hmSZzCgby/bMuPr7t9yU13P/Pq37s0UbWPna2jC0qfoPALBWhNfZZ3IHAUx7ujaZUzFkVonOVFbvFik+s0aFmOJ2htXORWGYqRx5ghCVqXvqyWboikBcmBhezAadBSZxReYVbEK9xM64j3Jw/97vGnX3rupXcX3/rwwUa50k0pvdysZEA8TblXWL2v++JeTcJRPO9P5usH9I2DRr07kUJpghdogWc4gBFoMRBjxFKZoNXxKUobp7SOxECX4kjr8IHW4f2tI/s6FId03vY4aUhS+gStFYlI6cyh7jZxA3GbtpEDg8aaEKJOiM07XZzWTPXo6rgIrUEJWhK0JAckB+aEA+Oh1aROzw4wlF5+2IZu2td8xfX3fbH+2y837f/hVbf9a8OBQTNUbtBiWYHDARfLYwM697EOdafKZYtAEMWSLI+QeDBpHdAcvThoqaO4uqZzxwOP3fi7P/7s1b/89tX3fvP63574eNWfG/v22qP9CUqEVhTTfluxYskt//7Uiw+99u4TL/3n40+++NOjTVt9kKLQMzllZKrjzGgMSNCSQgclByQHLqUDYtRAQSwJmDRCaP3IO2urmlTpUY8gn3kpPFynKvL0qx9dd+cvj7fKK9vUS+957OHfvnSiz670ALmHn4U8yD3CqEdYta9r1JlNwTgF6FOelMw5/wWeEoQMyThicLfaUduj7dW4XQksjQNf0tmvOTZsroxTqtiUlKBEaB2s3XDvo0v3HtusdXZoXe3DxrqNu/7x5/efXLHlPa2rLU7pIqh63fYP/+2y//ntoXVae5dMW/fy27/56WPX92urEpQuTqmndnRxL2YkysikltacuMdcyJ1C0rkvTAeK9TLD84wg0IJACQLK8nEUqPzE22trGlXpETc/OvNSuMGBEyM/uv6nv33h3X5tcGgs9eJbH/3b5ddu3tsid1FyNzcLeRh1C8NuYcW+3mEnHIcZDHCkIFyMcEFABSHN8GpvqrLPdqjD2GMIGIPOXm3VkKVyysyIU6ooqjpQu/6hx29t7D2cIA1xEUK6EKyqat9+/2NLl29615+TRxDN2u0f/vDK/1nbvieGGcOwtqJp65Lbf1jZ+nWC1E356OKO9HCUHpCgJUFLckByYFYdKOCKp3ieYHmUYXMUSBNMDKf9eUoXIhq12T+vrqtXZkfcwiwAQ+6k3vvsq//r/130/udfNfabW4Ycn67a/sMrrnv1vZXDVljuArOQhxE3P+gWPtrevu2E5ni3tmFA2zSov3jVDxmrBqw7m41/3972968b9rW2nRg8PGg+HiUVU1OMVIYR5YGadQ89fktDz/4YqY6RyhipjJIqW2TgzQ9+/+hTt8ktDSFYvXb7Bz+88n/UtH8bRXXu9Mi6b/5x+4M/bpHtixOaqLj9FDMQpQYjVL8ErVktrgvznlo6a8mBkgMMz8EkncijgWTeFkxrHZEho69d4agdtG1vUH9xcOizA8oXl9fWKaFhlzDi4mdS3IiL7dTEf/bbl/+ff7/24SdeeeqVj5569eOfP/X6/3fVTbf89MmGAeeog5rJDJw8u2EXP+AWPv6290C/t9MQHLQGh23hi5fMHumyxI7Lo2ur9R/saD/Q1dc4WjloroySo1OVPITK99eseejxmxt69hXwU0xKEUbVm3Z/svTu/13TsTOU16zZ9sG/Xf7fdhxcqbA2V3Vsf/jJW/72rz8ZfR0FwsmnevTRKCWLUH2Nsi1SyLvELckByYFZcgADnNETqWwbOdQ8XNWlbpIZO+TWTo2vXhFcV6V+fX3Lx/tVL39ZW6fMDrmEGRY37KTW7m6+/q7H/vr51u0VfduOj247PrqjcuivX+y89o5ffvHV0SErNuTiZzgbwqBLGHAJX+7rH3ShEQTALIcJ/FQlYIKoHCeEcHrYkz3S76gadI86UmL3oKZ62FwRJUemqtECtFY/9PiNDT17oqT8VDqjMUJ9oG7dzfddfrBuUyCvXr3tg//z//4/Hv71XX948/EnXnjgZ7+99WDtRkd8oNDGmvLRRyLUQITqlaA1S2W1dKcpLUgOLGQHSJ6PwZQ9hjiTqA8iQjDlz9Mqb+5Yn+3bVsvyo7pvusNvramtU2RkTn5wJjXk4PqMmd+99vGN9z9V22cddpCDTm7QyQ85ufoh312PPv/Ar19tV0YHHWDQIa6fUQ04uZWFkPcUjBUCMdjC3BYX/MkIPCkIWZI1BzOtcktVj37QGvVDFESQwaR9QFMxbD4SIYcj1FQUJUdC6Mj+mlPQouSn0hmNEqr9tWtvf+jHFY1bA3nV6m3v/69//x+bv13Wq6puHz78wbKX7/vl9Qfq1kYIZZQcObXXFPIwEKF7GmVfmd2j0owYErokByQHZsMBcQwsL1asuCBgvJCmOKUnXdNvaVa4m9XhnS2Wej389tqaOkVa5hQGHTMnfsjBHmk1LL33ySdf+aRLlxpyglOH4/vGkBf/64t/+/GdO44NDlrpQQd/6qeZyk8JWmkYo894i/x53uWAQsi7J5Hv0/uqew2dKrsnieQZVnx2SGKhpGVAUzE0dihCDoepqShCDgeR4X01qx58fGlD754IOVpMJ0KN+vOjq7b/7c5H/qNZtjcAK1Zv++sPr/zv1W3fRjB1GBvVuJrueviaN95/KozKIwVoTS0DYaq/AK3NErRmo6ye52UnbSY5MO8dYASeFgSCF8J5qlPlqu03yR3RIEI3jzgqeiwDbuqdtdUn5GmZXZhhcUfabW99vGNLxXC/hZQ5+O8OZ2N2VStefv+rvQ0GmZX5bv0MZckh9Du4FXu7LmZwcWFGDM4Zip3okbcrzGOBdJpgCJ4/ObiYFAcXD2gqZGOHQuRgiJRNQWFyKIgM7a1e+cDjS+u7d4fJkRA5GCaHQsSowd/+0juP/fbFu1WuhgA8snr7ewVo7Qih8ggxEkYUT//x4d+/8lAgPyJuP6WjF/bqDVNdDQMStC7lIBWJl5IDC8uBIrFwjven0fp+fWW31hzM5lg+mMdre/WD5qjCT72ztqp2NDVgF2ZaMjs7ZAcyOyez8+OPJbPzg3YweOon2cznpACti5oRo9iE9UaTWrs/TTBkYSBBcebc0jROp6A1FWIVmDEYRAYL0LqpvntvBFeEiZEwPurODOw89vkvfn/L9iOf+ZFBPzy4attffnjlf69p3RlGlGF81JkYeOBXS//09i/8iMi5i4BWjwSthVVfzPtbeOkE57gDjMBTvJClgMETaxgwdCrt/gyBsmLUgMaTPNFvdCdJtR9/Z21VzWiyz8bPqPpt/HiNP9b49cXl8b/OyLKdXbG352JaWqzAFuzlCU5sXY2f6H0ctI7Ixg4GiYEg0T8FhQiZH5HtqVlx1yPX7Dy8ethcN2yubpPv/3jty39699GvD31iDDWHiEEfLFu1/d3/ddl/+3rvsmFTba+24rP1bzzw+LX7alcE8eEpH13MMNkdIjullpbELckByYGZd4AXq1SSF+IIPWT0VXepR6zRJEbTPM/wfAxjq3v0srFwHAFaH/LO2uqa0VSfne+zCQtDfJ+du3hoFW5ZOPb095KMnzB3QHNENnYgSPQFpiof0nesfeN9j13z2PN3P/fWQ8++9cDz//nQe8ueaxraZU91BomBANHvRfq3Vfxz8W0/fOzZnzz35kPPvvnA71+//2jLemuiI0DIAkT/lI8eIDqDREfDwCbpmdbMl1ipB1JyYGE7AHiO4AR3Em2VO451KMb86TwtYgwIHMnx9jD0TVWHJ0MmEVrrg0VojaQXBq5OUXnaoDVJbXZ6S+vARTCjz4/3mRMtXdp9bcpdrapvW1XfdGh3q/x1flwWEIkl4tBP9OsjDW3KXaJU37apd8ksR9xwb2GDiyFWX4DsDJBtDQMbze4RKXpwkn96jve0SNmTHCgLB4DA0YIAM7zRm6rp1bfK7cEchbIn+6+AwGEMMLlCvYqxLMmnEKoIrerhdLdFWEiahu7Bs10Pp0Nrf4Do8ZMXqV4/WVTPuIUJaZa2KW05YYMpfG0PkK31sg0StCRiSQ5IDky/A0DgCl2CfByhh8eC1b3GQZMvjlDk6a8opFg2lUfTMIEzXBrBi9CqGlpo0Jqu7sFJ/sfx0Bow7fMTXT6iozzV6ida6mUbxqSW1tnuUKT1kgOSA1NzoNDA4nFO8KWxlmFLXb/eFEhDJEvxp8UIsDzL8hzDcYDjSMBkCtB6e2115VCq08x3moUFI/bLiw7EONs/NQ5ahwdMe/0isdrKU81+olmC1iQ3Jmf776X1kgOSA+fjgBh+LQgw4FzxfE2PunFwzJNGiEIDa3xU28mkRG6JKr1PqwitDjPfYRYWhvgO86xAS1vu0GryE00StCRoSQ5IDkynA8W49gRGj1qClR1ymdEbzlEEL0yCq9ODU8ZBq+bYYKrNxC8kgdloaWkPD4zt8eFtXry1LEU0+YjGetl6qXtwOkvs+dyHSttIDsxXBxhB7BIMZPEutau6V2vwpzMkmDBs6GznPh5aFbJUq4lvNQkLQ3yriVk+C92D2kMDpl1evMWDN5WnGrx4Q71snQQtCVqSA5IDF+8ARws8wnCmQKZmwNwyYnXHIYwVGIE/c+TQpNwaD60jsmSriVsYxBIKeJ4laPWZdnnwZjfRWJ464SHqT0jQmrT8SCslByQHzt+B4kOsDAkUttCRVkWvzh9DAMWfL66KBxoPrcMDyWYj32wUFob4ZiPzxd7ei5wR42z/13eBGNpD8wJaa6WW1sXfY0opSA4sUAdAYfYglOVDENGrc9XLTCpHFCIAPSFK8PTHV5NWr+Ohdag/2WTgmwzCwhDfZGC+2DPT0LIOaI70mXa5sUYXXl+eqvXgdfWy9dI4rQVa3UxacUgrJQfO34HiSCyEFaxhqLJD0TpidsZyKOABz7M8d/7pFLccB63aQ/3pJr2wgGQAMw2tcMou01T2GXe5kBMuvK4c5cZr3XBdo0yaxuk87gEvtPhJ20sOzHsHxJFYPJ+lgNoVq+xQdKvtIYggxAYWL4awX3ixmgCtRp2wgKSfaWhh0ZRXYWzpkH+rjxxzwDUuvKhaFz73VSNmEqu1QdVy5/724V12ryYHQ9QZLx77wRQuO2kXyQHJgXnvAFOY6oLghHAO79G6a3t1Kkc4TYDziWs/hzlFaOl8+XfW1hzsS9drhYL4eu18l46v181s9yBB44lMZMwu7xw60jz09YBlpzZyYCxTYUeqXVidC6t1YjVOrHqOqcaFibLljxuTR5SBfd367U0D24Y0DZ6ANY/kz3xbpgStqdwtnqNMSj9JDswDB0DhFY4Iwzuj+eahsfpBszWch4EYOvi9I7HOffoFaKE6f+69DXX7epIntPwJrXBCN/9Vdxq00DPr4nP79r2/Ah6QDJnJpd0++6imu6lnX23X5pqe1W3qr4Ycu9SB/Yb4obFshR055kArRWGVTlHHZ13ioYt5sMFHTekjuuhBpW+fzPZt08jGmp51dV3bOmXHDWZ5KOpHMJhh6QnnLkFLgpbkgOTAaQ4UZ7/NA0Flj9b0jXWqHSEIJ1jx9SITqo8pfC1Cy+DPfvx1466OcK2aq9UIC0JavlpFLN/bp3Cm0/D0Q4sVWBpQMJqPJiJWh2lY0dfeU1vbsu94y9bjbeuPd66sH1rVrlvXa9005NmiCOzUxHYb0vtt+aNO9LgL+04Fkh1zYtMgF1b5XcrocQdSac4d1if3aaK7Rn3bB51bus0bWpRr6/pXV3asOt66saZ5Z0P7kW5Zk1o34vY5U9kkQeGAYyZcZhK0TiuuE9yRvkoOLCwHeBbwPCUIcZTp0biOtStHrNE8J9DFmIspPcSaYCAF6CyCmgOZFbvbtjd7q9RstUaoUc9/Vam5Q4PQ6oMDKlcyDSPT3tISfeYBQRMQDIVjYZvTptapBoZ723vrGtsPVTfvONqw6UjD2oMNK440f1nVuerEwLoWxcZu/ZYe49Z+67YRzzdy3zfq8G51ZJchtdeY3mtK77Hk9jvRw0700HnKgR4yQ/uM6b3G9D5dfLc2sksd2j3q3Tnk2NE3trXbuKVdu6lhZF1t35rK9pWHG788XL/ySMO6Y41balt3NXVUdPc3jygGDWN6j9+TSCcQHDmzmcUKrAQtCVqSA5IDBQd4cb52hOEcMbhNbmuUjYmz39IsLcZccFMLu5hALFYQ5x7Moag9mNxVK9tUYz6qBMfVwnHVPFelSjimBFsaXNuqRw2eeBaBZwRaAstwDE7hOSQXT8V9QZ/VYdEZVXKVrH+os6u/qa2nrrG9sq7lYHXT7qqmHcebt1Q2bzjatPpoy6rjHWuqulbV9q6uHVjZNLq2SbGmSb66Rbm6Tb22Tb3m/LS2Vb22WbmmSb6mWb6ucXh1Xf+q2t41VR2rK9tWVTStPNq85ljLxuPNW6uadtY276tvrWjqqGrrOdE90DI42qNQDxvNOofbHowE09kUjMEkQ7I8OPMSkqAlVViSAwvdASBwYlw7L8CMoPemKzuUXUpbCCJQVnyn+5m1xsWsoVkaxhBfONo6ZFx1WHF4hKhUC/Nex9TC4VHqs91DRzsMdn8sh85MS6vQ2Co+3EJJFIKhZDoRigTdPpfVYTGaDRq9Sq4aGRzp6xvs6Opvbu+ra+mqbOo4cqL1QE3rnurmXdXN3xxv3l7VvK2yeeuxpq8qGjcfbthwuH79ealhw5GGjRUNm481bTne/HVV8/bq5h3VzTtrW/bUteytbzvQ2Hmktbuqo6++R9baP9Q9LB9UquU6g2bManS47b6ANxKPpLKpPJrHKZwC1Jkdg8ULT4LWQq+wLqYCkvadBw4Uh2FRvJBAqGGT/1iHatQcSuEUJRQnZ5rmAsKwNEqgkXhMYXJuPjbydZP/mJI9phLmt44q+W+6Uv/c3tapsPsjMRhD6DPiC6bxWgI8oFmaZEicxGAMzuayqUwymogGw0Gv3+Nw260Oi8li0JnUar1crh4aVgwMyXsHRrr7hjp7Ze09A21d/c0dvQ1tPfWt3XXNHTVNHdXnVnNHTXNnbWv3ibae+o7exu7+lp6Btr7B9v7hTtloz6C8b1Q5oNAMawwKw5jWbDPanFanx+kL+MLRUDwZS2dTEAyhOFLEFcMxk7axihZJ0JrmMjmNV56UlOTATDvAFN44jHOCN5Frl9sqO9VjgWyOEl9DfJFRgmfLOSg8d0llU2NO79F27cqDI/sHchUKrkLBVyiEeSr+4BC+9ph+T71CafbEUkmMxCZ9WnM206a4ngeAY2hAkTSBUzhKoHk0D+WzaSidzCRjyVg4Fg5GAr6g1+Nzu7wuu8tuc1gtdvOYdcxkMepNOp1Bq9GrVVqlUqP4PinVOpVWr9EbtQaT3mQxWWxmq91ic1odbofL6/T43L6gLxQJRuOReCqeyqYyuUwOycEYjJEYQeEkQzIsLbauJusSHO+ABC0JWpIDC9QBIHAkL0AUZ/AmGgYMHQq7HyJQUIgSvPCpLsZXK+da5gEFqBwMeYLBPqV5e9XwxmrTfhlS4Na8hBZ/cJj8qt79VeVw++iYzRvIQBmSJsH3Vc3n8vCCxnTzAPCAYWmGpWlAUYAiCgzDCBTB4DySyyG5bD6bgTLpbDqVSSbTiVgyFk1Ew7FwOBoKRoL+sN8f8vuCvnPIH/IHwoFgJBiOhsLRUDQRTaTiyUwymUmmoXQml4HyWRFRaB7FEYzE8AKlKIakCxkDhUx+L66KnkjQWqAV1rQViQsqP9LGc8GBwssYiy8dTuKgT+et7NKMWEJxlJz4xuGZyW2xhzCWjBttzqYB7eajsg3VY3sH4CMK/rBCOCyfF1II4rkohAPD1KYT7rWHh6s7VZoxeygWgdGZisI4z0INOAZwDFMQzdIUoEiGJGmCpAmCwgkKx0gMJVAERxAMhjE4j+ZFIedUYRsYgxEMRnEEJVC8kJTYhCqkTDIkBSgRUYXjFvMwNXJL0JKgJTmwkBwQicUBnid4wZ/F2uTWyg6lwZfOM8K0x1ycrQ4FHEMyJARD/lBAZbTUdik3V/StqdBsaY3tGWL2j3AHR/mDo0L56sAov3+U2zvMbO/Krq4cW3uo/0jL8LDG5PL50lAan2zs0dm8mo31PBCbOAUVWzwiV1iaPiWq0D47n8/SLmJHX6HxJGKppGm6B5KgtZAqrGm6aGajIElZnRkHgMAzgpAjWXMwWy8zdSrs7ngeBdMfJXiui6TQW4URaCqTcvm8o1pjXdfotsr+FQcHV1QYNtZ5d3SkvunOftMNlaW6sts7Uhsb/KsqzV8eGtl8tL+ybVim0lpdzngqjuAzG4JxLttn5oqa/SNK0JKgJTmwIBwoxLXzNC9kcG7EEtldNzBo8CaQmYoS/J66jAc0oBAcSaQTDq9boTO19MkP1vd9dbhzxe7OT7Z3/P3r9g++7ixH/X1rxyfbOpZ927HhYNee2t6GnpFhjd7qdEQTURjNU2cZe/Q9ds0X3kzLaUrQWhAV1rRcK1Ii5etA8QkWxgmBDNolt9Z0a4zBDEQBmhfE+dovRZ0IOIYCFIzByXTS7fPqTGMDo6rG7qGKpoHdNX3bK3u/Ptaztdz09bGebZU931b3Hm7or+8c6h1WqA1Gh8cdS8bzaJ6kibONPbokf0GZHlSClgQtyYF57QDPFomVZ3hzKFPbq20aHHMnEIwrPsSatqkuplADFrmFEmg6mwpGgjanXWs0Dio13UPK9v6Rlt7hpp6h8lJzz1Bb/0jXoFwmV6l0BovdGgj5k5kkgiMisYpPdy7FLcIU/p05u4sErXldYUnFY8E7IM4lyAtJjFHYInW9ugG9J5Qjce5iJ2ufrhpNHEjE0hiJ5ZBcIp0IRkIur9vqsJmsZsOYUWcylJf0JqPRMma2W50eVyAciCfjUB7CSOwc8ztMl5MLJx0JWhK0JAfmrQOMwJOckMTY5lFbTa/B4I1BFDs7ce0XUIcW4jIoQGEklkfzmVwmmU7Ek/FoIhqJhctL0Xgklogl0okMlM6jeYxASZo49/wOF2DUgr8DK3olQWveVlhSYVjIDhQnZ0IAZ43kq3v1DTKjPZIjeIHhBVbg5pwzhX4zpjB9w6mhr+JQIXHET3mJQItDlEiaoAFVjPyec26XOfwkaEnQkhyYbw6IDSxeSGGMyhGu6zd26/2hLI6zvBhzMXNTXUxTVfjd0NfCXAnFqRzK6bMwdFcKuJg5VEvQmm8V1sxdK1LKc9+BYgML54RwnurVOKu6VCpHOCt2Cc7UXIIz6ElpUGp5LUwTvGfQ2DLPoQQtCVqSA/PEgSKxUJa3R6CGfm3DgN4ezcGAZYS5EnYhVcSSAxfvgASteVJhXfylIKVQ1g4U52tHGEHtiNT2aNtGzJE8jfMz8nqRsjZKyny5OyBBS4KW5EDZO8AIPMEJ4RzZq/XU9xuV9nCaYIhy7BIs856rcudBWeRfglbZV1hlcZ1JmZw5B4rE8iSR2n5DVb/ZHs4hDCd1Cc6c4VLKl9YBCVoStCQHytcBjuL5HM3qvYmaXm270u7PEjh7yWZmurR1mXT0BeKABK3yrbCknC9gBwqTM5GCEMlTMoO3uls9Yo0kMPrkwGF+ATsjdTDOdwckaEnFW3KgnBwAgjiXICPwOCe4Ekib3FbVqTAH0jmKpS7R1LcL5AZfOs054oAErXKqsObIRSNl41I5UMQVJQg5hte541Wdyk6FNZLDMZZnyp1YhdZh4f0p3Hz6vFSXyjw+7jyHFuBB8e3OxVdKEzRxcpIYEsNOl/hy6MKvJE1QgDr5TmgezOP/Xjq18nKgSCyCFxIoNWjyHetQDxp9SZQhhfKPay+8T5kRxHdREjyPAg5hWJhhYZrN06CMBDMswrAo4HCOpwr/C5iDk2aVef/hfIMW4AFVeLlcBkrHkjGP36MzaBUq+dDoUFNL04nGEycaT1QcO/LN7m927tpZ0je7vzl05GBtfe2JxhONzQ39g/1ylVyjUzs9zmg8ks6mEAwmGVJ8s0CZ/99S/svUgeLrRVBW8KSQdoX9RL/B6Etnybk3++2UCoh4drwAM3wEpsZCuT6Dv13pahi2VfcZj/foy0VVPYb6QUub0tmr82m9mSBE5SiO5gtTZ8352bPKqFzMC2jxgGJIlEDzaD6VTdmcttaO1u3fbP/gw/eff+G519547a2333rnvXc+/fzTz5d/vmz55+s2rtv57Y4d33ynnd/u2PjVxi9WfPH58s//9cW/3nv/vbfefuvPb77+7PPP/OWv727eurm+8YTJbEplkjk4hxIoJQFsSnVTGRWMOZXVIrFgINij8JHW0aYRhy+LkBwPeA6U/x8BBI7khTTBqZ3xvQ3Du5vUR/tdNaPhBnW8xRBrNUbLR7EGdax2NHxc5t3XYthTPyozBlIoSxTiOaUm13SVqTKGFuABTmKhSFBn1DW1NO4/uH/dhrUf/OODv37w1+Url2/dvvXI0cMt7S19sj7ZsGxYPqw1aPRGnd6os9gtbp97gmwOq8GkL24wqhyVDcsGBvvbu9orKit2fLN95ZqVxZRXrlm5a8+uhuYGjU7tD/oQHGEXavOLE1hOABwPOJ6Z7yqeJhDPd9YhAXjxbj2BUSPW8JGWEZneG4UpqjgzU/lHCTICjzCcMw63jDqresd69BGFM2cM05Y4Z08JrqzghspHWcGREqxxzhRh1B60zxCrHbBW9ZrNoXyeYmlemkxregIIyg9agAc0oMLRkEIlrz1Rs3nr5o8//Xj5ii++3r71aGVFZ0+nUqM0mo12l90f8scS0VgyFkvG4qn4x6sZdwAAIABJREFUBam4VywZC4QDDrfDZDGptKre/p6q2qod3+5YvnL5hx9/uH7T+srqyuHRIV/AS7P0wuk8FG/xeUZgKYHCQDqa99oyDlPMpIkYlPNP8TFNxj6W99iYVFSgcKHQITdd94znTqf0EMufwTsUthP9epM/DRW6BM+9Y7n8WiAWbw5k62XmVlVA68ddKd6X5v2Zspcvw7tTvDFEdhtTdTKbzp2ASMAUuwpn/b6nXK6H88xn2UAL8ICkiXgqrtQoa+qqt+3c9uXK5StWrTh4+ECfrM9kMdlddm/AG4lHLghOF7RxNBH1h/xFhg2ODB49fnTN+jVffLlsy7YtFccqZMMyf8hPFN/5Nn+vy0KnFC3QGMjEY1q5t6vJXn/MVnvEdPyg/ti++SfT8YP22gpHfaW3symqkYN0TKAwnmM4YQYfcAKBZQSOEvgczVmCUN3AWNuo1RWDUCCGKszFF2Jd+AUPBA5lOHsUrus39Rii5ijjTvO+DO9Lc/55IV+G92Z4e5KTWVInBq0GdxxlxE6J86yapc3O5kB5QAtwTCIVP15d+eWqL5ct/3zl6hUHDh8YGBqwu+yBcCCaiF4Qe6Zl42giGowEXR7niGLk2PGjq1avXLb88y9WfLH/4D5f0EcDal42vErEgj02c+sJS0NVpK8N1gwTRiXtMNFu8zyUw0iZVIhmJNLfYamvGmuuy7ssAoWK3BJfmTE9PR7jy2exgUWKce3ssMl/tE3er/fGEZrgisSa/iOOP/qsLVOc4M/iNb2GFqXPHGfdad6T5rxpdn6J86RFbvWaEse7tUGIxoAAZuCamdK/BljxxguwAjNbKh3xom745jq0cAoPRYItbS1rN6xZserLbTu+bu1otdotwUiw8Gbrk71/pd682V5IRCPxSDga8vjcvf09e/bvWbHqy1VrV1XXVbu9LpRAxTdtX/hN6NzcpUgsnoBjJo2tpc7b0Uhb9ULAJYQ8QtgjhL1CZD4q7BVPMOQRAm7aavB1NFoaa6J6FYfDBW5NM0KKxMJYPpInu5TWuj6D0hGHaI4SyvCFWGe/8gEHEJrvMwYPtWuNEcaVEjxp3pPi5qPEfkJrnK3qtzWPOOIwTYMZude5wEqjyCoSCDgQMCCgjIAwPExzeYrLE2z2pEAGZ9IXJAJkivuSbJbm8jSXZwQECGjhKDgrEKxAFxg5dW7NXWjhFB6MBLt6Ojd+tWH9xnXHqo4p1QqPzx0q4SoRFR9ZzRmFoyFf0KczaGtO1Hy1dfPqtatq62vtLnsOyc0PdHE8I5BIzmUxNVTHZd2s2yoEPULYt4AU9LAea3ywx9xYk3OYi/2EF1hZnB1yPCvGXIhdgrw5CJ3o07WOmMUXYs2DgcOn0wtwLMWAeJ461K7rNWccacGT4ue3nGlhyImsP9A+5k9jNDMTDfSzXIcTGlI04KmCSBLAGJ2CyXCOCGQwdwq1x3JjwZQukNQ4w8OO0JAjNGTx9xtd3QV1mVyd51BxM5O7xxaQFfd1R0cDSXUwpUsi1jTqzOLePBFEqRjOZCgWBTwJeOoUwEpNvbOXjnGX0FyEFs3SyXRiYGhg2ZfLPvzo7xWVFRq9JhgOROORslAoEjSY9HUNdcuWf/7xPz9qaG4IRUMUQ57lqjqv/+nS78sDniHZZMTWciLU1cx6bEJoIeGqxOaQj/M6Q92trqYakIzwDFHoJJz6bWPpnwUCzwgCRHFKZ/xoh6pP74vCpJj6PBudyrM0x+YJRmkN7WvV6SPAmRLcSd6d5OaxnCnBEOV21Ax3qRxplKa5abhgSlfO2ReKxKJYsTmFUByE0okcHs6gwQTk8UWNNt+oztalNDUN6Wr6lBWD2kq5qUYxVqdzNupcTXp3i8nfbot02yJd9kiXPfw9ErcMdxu9rTpXk87VpLHXK8ZqR401/cqKAfWxEcMJtaV1zNnnDCj98bEk7MtiQZiM4UyK5vOFdhh5ni2wuQUtwAOUQFUa5dZtWz5b9tnBIwdHlaNunzscC5ediq2uuvraL1d9uXbD2sFhWTaXKd8mF8fSLALF1COmqkOMWSME3GIza2Eq4GEseuPh3VH1KAtneZYSuTXuTvBCl09GCXJ8NE90ab3VPTqVPQKRhSDpeTcoFfAswYA4DA41j9TKnJY450wIrgQ/v+VMCpa40KYKHW5RBDIkzjAzOVTm5JMqIFAMj+N0Jg27wym9Mzxo8rSrrPWjppoRY43G1jzm6XFFRr0xdTBliOWtSdiRQp1p1AURnhzpzZHePO1HQOCkmABybgFxgxzlg0gvRHqzuCeNulKIK563RyBzIKX3xJT2gMzg7FRZm4YN1fKxWq29yeLv8cblkexYFg2QABZbgSefsRXPYpJ7+rkCLcADwINoPFLfVL9s+bJde3eJnYF+TygaKjtcjc+wL+gzmAxHKyuWfbnscMUhj8/NsPSFVmqXfHvAA44hsJBHX1cZ6KgXvFbxUVbAvVDlEnz2SEej8ugBNOAWaPxioFUYOCzgvGAL5+r6DTV9ekcURgpRgvOtjVXgOsMBjGJ8WWbd/rZWVcga5xcEtBK8PS6oveS2yn5rFENIeibvXxlWIBgezqIBX0Rr8QxqrR0KY6Pa2mwL9frTo3FUlybHsrQtz7gRJoiCCMbGCS5FcukZEs4lMTaKghAC/HnaDdH2FGGK5DWexPCYt0tlblSMNevsXXbfaChpRsgoEJBCz+Hk94JzAlqABwRN2F32/Yf2r9+4rqWt2ea0BSPB8bV/+S6HoiGX19XT37N125btO7eptaqyG5LMcAyHwymTpn/3Nlg1JPjsQsBZ4JZrgX76HKRB1bJhZcakEfA8N9Vwm+JkEFmKU9sj9QPGTpUjBGHF2W/nJbFYgWU4ABO0I0F9tqO+UxezxXlHQnCK4qdXE5pu05v4hacmOBKCOcZvOtytDyI5nKRn6uaVoTksT0Q9Yc2Yu8fgbLf6+gIpbRKxQ5QvzwRRNoRxEZyP4nwM5+IElywoTXAzrVTxWDgXFw/NR1EugoBQng5kCU8sb/HEFGOeLr2jzeLpj6QtOJMtPPSaky2t4myBKq3q8+Wff7P7G5VW5Q/5g5HgPJM/5DdZTBXHjnz6+aedPR0kTVzy9tP5ZoAHYusQgWKjss4t6xmzVoSWzyH4nQtXPqfgsdV+/o+EfICDMyygztfMU72IxYnMSUGIo2zbyNixtlG1I5Kl58lcgudwgwIMhBLmKPHBxqq+sbQtLtjjgmNm5IzzpzRThzjPnNsLp2lOCOsPdmq8+SyK0xd+zZzD1dJPDI/niOiYe1Dv+P/Zew/oOI4z3/eFe98N763v8dk9+3bvvXvX8u7a67Bey7bstWTL8lq2rGBJlmwqUaIYxJyDmDMSI0iQAEkEAkTOwOScc855MDnnPD2p+72eASEwiKRIgIjn/M+cnpnuqurq7vr1V/XVVwSbnx/O6pJFa5lSvnQpcKeC6dIcanph/KmSJ1VyxAsmX0JhdDL4CoTZLU7no/edODTHllYBLMSSUQqdUneurv3WTZlSZnPaFhmupp+O3qgfHBk8c65uHDkWiobue0mm7r/5slEO7ZiPBBwUHPrMadCggiZ0sCz6pasJPWTWDR3e42aQihF/Ppf5SkMUlViCiULJ4I0hWaphikRlD8fy8CpZi9XAmrqZgUIunMzIHanttT1UZagCrUqbPuOfCluWpw5qnPkZT/kxEtR6IZUPqruJ55sioURqNqCVL+UzhbDZJeTIR9xxSbJkLds03jToL+NqDhH10KwDcCFhC8wZKxjNfgZd3BeM2+8baWguoVUAC4l0gkDCn68/P44c0xm0VofV5rQtbhknjHgS/uKlC2OI0XAsPJtd2/exrKfajkffqMQiAYJeKx6JqjsBmbWT0Kqga8l+mrXDh/c4abh8yPuVoFWJaB7OloQm/xBVRhTqbeFUsrioJg4/4O4CCrlQIi2xJbfV9lAUQY0H1HpKs6Rhonz1tlM4tkHlzGk9oMYDaTzQLOX10GQ1HlDphepu4niGUDA+K9DKFYE44JYasARumyPKixXMadCbBn1l+ctUCKTBeahK2Xxp0JsquUI5lTFAQDGuOgPaDJC+t4WcM2gVwEI8FacxqBcvXcASsCaLaXGzavrZTdgmGCz6uQtnkRhkMBK896o84Jl/+n9VRhyzAbcFN4aqOw6ZNcvQgmsAhtZuOwULBDw5IP2IllYBgpdZ8sQAmszageazVM5ABqgsvPT0r+yc5DgJLWtiW20PWR5Qu0ua2VKxdYDyrz9/tab+FpFrUjoAtRssa/ZyfFDKajeo8EC1bTiuIThL0ALymVDCwleNIKiXBdohg4fmScgjOUOyZE2VHKmSO1XypUr++SRfquQtF8yeKE0EMxpnVKS0oxiq1mHSObNLlswk7x38mxtowa7t6QSdST9waH+FWFaHdUmpwq2DRw6Oo8bjyVjhcUfyn0K7U4FWxu+awI4ia45BRhVk0iwLMqlHDu+yk9GA3/Uo0CqHEwQzIGTyRRAcbTdBonZEYrlibgl0CU6/SyvQElviW2t7SfKQ0gUqXaXZkNpVbO0n/enD9WgCp+5SB4apVTnzs5HRI6cJylxQTRt+lqAFr3qRS3kjBrasnyXvNvrJAsMAV9cjs4wavWRnVBDMaBNFe7LkSpbc0+RJliryJkuwyhTxporeVNH3RConVUnzdhaeaflWyuCM5Sy+pNIW5mhcWIl5iKvpllgG7AkSkt6gt4piiShwz+DfHECr4nkhU8qOnjg6ODygM+ostoklKNOEEUfEnaw6yeGx5/MKk9Ohhao5BukVkEG5LEiveHRoFeCQ+HD0W9mEr5/Ax/B01kg2XYIKcPTbmenFXSjp3AUtxaxBS+UqtPQTPl6zJZ3Nj2Oo5xq7CHyz3J57ZMbMOEpnGVqlfBpIuUM6hriXpx4M5GTuNN/gJ4hNw1xNr0A3KDGOySaQOhfZFuS44sJgVhEr6uIlY7xkjpcs8ZItXrLHS45kyVU2fTyT9JrC2Ffb8KRgNLoSJUc5ZUs5F2OsaIgWNN6U1BHlm/0MtR0vNSOFhhGutp+j6VHYEdYo3QtwAkUeit6oMQkisfC9YRmeNrTghUWKOZvT1tDYcL3lutagnbCalyCxKqdsNBu6e7trz9ZqdOrsfA2ZsQyt+xBar4T0iuFDOx/F0irAS8hD7niOIZ8YJovZKpsnns3CqystOWIVoeI90IKUrlmRylVs6SN+vGZLEYQS6SyWwj51vgXL0sus2bJ5NyuZPvhcZtfSKuVT2aQzoKGLeriqoVBeFcyrAoDcl5E44hxTgKRyIsXmQZGxX2joFxn7Bfp+gX5QNoFQ2rA6N8XoY1pCXEdU7I7LglltGNCXZYjkvprCgKFyrD+tdsVkjqjYHGAZvDSti6C0ocWmEYF+QGAYEBoHRMZ+kWlAahnRerDmEM2VFPiy0kBOGSxIA0UBkn5VbeLND2jBrwPp+ob6qprTUrlkwmpe4lKo5Jca6vcf2g/Hy5itqRtP9C5/N7R0ctjYWuLSKSCdfPjgQ6BV9msHsyDkTuZGKOJeNFvrCsfhicPQ4lhe5DHMu+nQIsqCcieomB0pncXm3gq04MVcklmAzBTuOXoezzUrncVZyvSByUJS52x2D5ah5fCr6aIejnooCENLU5Y6WFAGC7JgQRIsCN1pji1GnwhRdB68yomRTIyJjMMcTT9L1cOQd1LEN8miNgznGprdhGE3kYStLGX3o4up6MLzm9HsJjS7Cce9Tha1USTtTDiFHp52QGwakVuRaifWGCBbInRHgunN8gN5UbAgDRbk5QKr4QIXZIGiAEG/opoP0IL90PJZvoi/c8/O4dEho9lgtpiWuIwTRiKFuGPXdiKZkAbS83Bw6w5oVR+FNFJIK18WpJE+GFp5CHYIjGSLSltwmCLBcjVmXzxVgvKLK177V+XWndAKyZ2Q3AHOhhSO6dAqFqFSOl9CEhjnm3pQDJ3MmpuNTB+c5hxBSxPMq8tIUJXppfziM6/wpEWuJN8WY1miDFOIrA8QtD6s0jWucI4qnKNy+7DEMvgVZB2UO0bKx46p3AidH2sIECbCVGuU4Yhz3CmBLysJ5hVfFACmqXKybHAhy5SFLS3+fIFWvpQPhAMXLl24cOmCVCG9a8H7JftVpVO13mypqjlttVuA+bcQ1zRojaCqj0AaCaSVzppkkPYBuivfyp53/fi0vsLQ2vFl3YP5spegP5lnKh1dWAFLaXPHgCwI5Zdkl+B0sM0dtIpFEIylM+M4WtXFm2iWQWZ72tyaO2hVTK57PyswUwYLikBBHijIypIG8pJAXhTIi3w5oSfL+woC+P7ygeXDxYGCNJCXla0oBcyqvLKMz9twmjQE7ykVDC3evIAW3PYBaQ6PvXvvLgwObTAbjBPG2ZXZYJzKxWyAc5z6OttZf8X0mWzGvgP7RsZHkpnkfDO27oGWGNJKZlrSklZa0MnyOvkDVNTKQJiXcO4ltdjDJFmIqJxSOL0wJa3MQcG4qNipPaf/O5PbGvGXQSsPgekSZAulsVzdEEUmtgQjQAGAB7FK05vvpbk9HVp4aVDmAGX2WZHcXmzuIZXHtKaPHZZC8eQYhlJVfxPNMkosgMxemqUC3J2sA5Q4nlr34GAgpwzkVI+qvCrwhZSB/AyqnPKjlySnCuQl/gIXQWuY++7BfDHnC3iv3Wg6fPSQUq0wlCkye58qrQqFQTZdbxRJRTqjDk/EXShPCJu9HJ8kZa1Be+b8mVPVp6wO61yuegyvqVq6q22dDi109RFIJYKlnkGJi2oxt7vt5qnDzccOfbkO9p85bSWhS+Xcc3Ie7trlw5+8z751o6gWV8pTVIujEt7JNStbDu3NqyXQ7d9ntLS3T1wlGrmfpZWHwHgBVNpD/UTxOEtr8ifSxVJ+GVe3nSSnQwsnDUockHR2JLOXbvSQVq7eUgRBeP0qWKUiWCqAYCie6hnGHT97kyz2SO3gLBXg3mRFDqi6jTBbLu9fjGl1c9QDgZw8kFMsSOVF8wJalYaPL+Jv27G1b6BXb9Q9SRP/KMeKZeJjJ46+8OILBBJerVNfvHThRz959vzFc49y7Jftg8aha87UMNgMvUn/Zfs89u9YAnb7ru1kGnnORrbKixBmiyUAXu3xi5fTKWhZsCPoqiOQUjjJrQq9ZuITUAhrNqxe+8qvL+/ccmXX1vvq9LpVH734c8K1y3kFXICCQqBBDu1d8fb63/87t6u1oBSCKlFMwGw9cfjDXz2PbjhfUJbhOhPFu//5KoXToQUvUwCVABAMZgtcrbMPzyeLja54PgMuqhWHn9w6nAatPqwkJLZDkhkWKLHDktqK13qIK1dvLoLwCvfxZDKby3v8oc6+kdbu0frrA++vOzhKNUhspZkuwP3PSGyHhHaounXW5mndAa3+QF4ayMsXpoT+AgdBv6wycefSezBfzCXTif9/Jd/3PnxPLBXpTfrZlkgqOnj4wI+f+xGOgNUatHgi7lJDPY6Afex8dWVj6Cc//TG8HrFB+9jpfNmBSrVi977dNzvaoonobMQle5TmBigUdVa30R0NZYuVARjY/60cgz/jd1mwI5iqw5BCMMNSCjMKYfXGNTWbP7NT8TE+I85nuKl4BwUX5TMSAmaMz3BScOzu9k1vvoq6ciEnF+Sl3BCLZCdjRi7Wfvq7ly7u3GzCI5wUHK7p0s+e+V81Wzfo0KNeGi7JZ4BwaYUzXODbNTB8YLudjM763UAukwNLqSJoD2fRHO04QykxucOZwpL1a3/AzXY3tGyQeHYksZWu9RA/Wr25AEK+YKS1o5tC5yq05g3bDpw839Y2QLvWQ6MrIpLZyf2+J/X0oKXq8+ck/px0QSrP9+XZ4/RLcwwtoACEoqGrTVc2bN6gM2hnQ3KVXCQRCsUCqVyi1WsEYsHBwwd+9NyPsHiMzqBVaVViqUilVU1lrVArKvtLZGKNTl35XVn+UaFWSOQSoVggFAuUaoXOoNXqNWKZeP/Bz//pn/+praNNKBaoNMqppGZqo+5cXXVtlS/oy+YycxJLFyiWROqJ5gECnq/3pgqpEuz/lgdLmVxmElqnD0MK/owrKxecXr/601f+vbfqeIzHSArZrQf3XN6xyc+mFlTihIBxadv6I6tXfvLyr5AN5wGZwIYZqfrk/U9e+Lc//+wnv/yHb/z62//4x+d+/NZzP/7Nd779zH/9L6/+6/dXvvDzT1/4t5GqY0kebcZLeztB3siBbXYyJuP3ZHK5ZBHUexO3UOwRssTsi2dgn4ulbmNVItnf1ds8HVoYcUhkhWZJYmuxsZv44eot0WTu2OmLG7btX/HROpPVe66h9fMTDTx1QDKRkViLYis4SwW4N1mBDapufdLuwQJUrEylKJRjqRRu97sWpllabHWvLyfy5sSPIV9O7K8IkPgBiS/3haZSm9wHkATK8pf3LGNS7HusTKdSLm9wvXnGHEMLflUH0i6P89iJo+cvntPqNTMrhUo+Oj6yY9f2Vas/WfPZmgOHDhApRJ6AW4EWBodWa1VDo0N/fPftnr5urV6j0alJFOLRE0dXr/30k9WfrFqzqqGxQSgRanTqS1cu/fJXvzhx6viuvbtWrVn1+9deOXbiGJvLksqlZ87VPf/L57/+V19//c3XN2/bPDQyOLNnodVrunq7tu3YanVYU9lUvpSfeuaf2kYOBEPpvGzCj2JrBwhCnsbujKYTBSiZy6f97gnsKOb0YUjGnWHJeRkpr3rDmh0r3jm3bSO+8ZJibGDTG79rP3X06t7tThpBixh8/+c/OrVx7epXX0Y1nAekvCSXqhjsYrZfp7ffoLU3kztajq379I0f//DGiSOUjhZaezOj/Qb75nUbdjQvZkMy3gwX+HYNDB/YbiPjkoGgL5blaWzDFAlZOuGMZDNFKA/Cc4MeYHAs+r8KUCldLMRzxUpkxfI9DM8XvANaoqDQAs6SxJZSUy/t1T+tu9DYc/BU09Hqxr//p2cHx/A9Q6if/OK13/1xTX0bkqmOiiylWSrAPclCAitU3UrkPkHA3HIXdMkVjFh84QhQzEKwP2qlbvMzCy1AGgDkAUB5W3I/IPPlJF5YMJn8OXEAkAaz8mBWEcgq/YDi9g6PQ8o7oJXneuYcWvliLpVJWuyWnbt3dPd2zXhbPzI+8vIrL7/3wYq+gV4cEdfT14NAI5hsBgytnzyLxqGVakVbR9u3v/vtxmuNWr2GwaJ/vGrlex+sGBodGkeN79y942fP/+zajSaFSn7o6KH//F//06tvvNrT143CorZu3/Kj537UcPWySqOkM2lbd2x95h+fqW+oJ5AJQolwxk8ES8B9/OkqrckUS6eBUjEPwWNLT1FQDoKyEJQsQa5EjmcI9hClgzS1wBz2JPJxn9+ERaBOHYaknBmWjJuVcGo2rD6zfdPw+dqDK98/tm7VpjdfNZCxxz796Napo11Vx3a+/er4lQub33oN3XAOkHBAGbcg4+fkfACWIKUQ3ao6turlX3H7uzIKESAX5uSCgoxflHFBGXeGS/vF6XOHDuw0kkgWkwfL0fUSJDyDL5ittNFQATazKq0J7NjyZVrE6MpDoDMUZ6tttnA6XYJvrXy5HrLlKO9iS3xLbR9KFORbIMFsCewj6lasP7a/ph3Ltp652ve1v3zm3Q/WSlSmA8fO/vMPf/m9n73SPMQSWgoCCzhrZbjj7HgzAa1MscSRG3vxAprcPuFPJPLwXPU8VMqVCqlssjy5uPsJLS1fVqJ2kIeJ1/tQV/tQV/pQV4ZwTVzVqDcr8eWkXtj2EvsAscyM6UM19KEa4d3QV7DsDnuMXwbbk3FrPkArVwDiqbjOqNuwaT0Ki5rZtl6lUX5+YN+zP362d6BXrpRpdGq5UiZTSCctrZ88i8KipqB19dpVlUbZ0Njw03977nz9eblSplQrOrtvPfezn6zf+BlfyDt45OD/87X/+9jJY2KpWK1VoXHo5/7tuY2bN2j1GpVGeezE0W9/99u9A70qrWpmzwK2//QaJpf9xw9WCrVWd6IQLkAxcG4UBaFwCXLnQWUoMy51tpMNAyyzRG6XI7GI08ch6cxjICPh1K7/9PKebRYievf7f/rJ3/+P8zs2xaX88Yt16199eeW//7Kv+phsqHv726+hLp/NSth5CScj5WakvLSUl5LyYzLBzdNHP375RWZve1LGT0th0y0j5QESTvELxswwa0Ep/9bBw/h+9CCS30NWSZwJX66UAKE0CGVAKDspMAtOCoBnbsHdrdM13eFlkQEMhlY4hmDIBkhivt7rTxXLXabgdGghRSHeBMSfLYEsPYAVekmyiMAEnL02+Bd/9Q+vv7u6sW347JXubftOffP7Pz9+qZdvzvEnSrNWhi/OjjcBcS1PamkVoVIOAoNpQGIJotjqEYqEKjFbQpl4EcqWSslsahJaql4vIPTCPYRfWb6c2JMW9aIvvfDKdz/e9Ic9J1btOfHJ7uMfbzv0wbWeKukEzgtIfTmxOyVoaD/yje/+zUfrX999/NMtB9//7bs/qW89ZAwwy9z6yvlOFdWT58yxpQWHx81no/GISqP8dM2ndBZdrVPPoJgc5pt/fPPdP78jlAinJwsTqGxpobAohUpesbSuNl2RyMQ7du/4X9/4u3f+/M6mrZs2bd30/kfvP/OPz/z5vT8x2YwDhw987etfa+9sV6gVap2aL+L/4sUX3vvwPZVWpVQrjlag1d+j0iin5zVD2xqBTL5izZaGLmwHRtBNFPaQRXOobor4FlnaQpCe6uGvrkOcbsT1Xro5droKkvAgMXsmJWFnROza9asadm+NCZjVW9b/8H/+vwN1pwEZ30ZE7XznD7/94fekgz1G5PCut15DXzrjoWBGq47Ufbaqtqzqzz49uX71ipd+8dwzf7fpnT9Urf+05vZfZ9d9Iuq4lufTIcmMFhg+fU5RKrx+9ExdTXtVE7abYsCITCSJkSwxUCRGkdETj2szAAAgAElEQVQtn/DKLV65xVORwuIxuMOuSNoVSU3JHUmFkkAWtkLuINlsf72v7V62C+FwiLd1f+uw7DX+qFHBABD0xgGq3N6OlY4y1EZvLAtB6UIxmMiILIkttf0IQZBrBmdPPDNYkcCcP9M0+N/+9jtbPq87Vd/TPsK+eH3gH37w4umrQ1xTjmsuzV4ZpqfMMYNV8JjW46ynNc1Yh3tfMiXQn8oJDJ5BuqaTICNJLc5oLprN2QI6mqiHBUNL4HkseQGhOym4OVT34qv/2o+5PhFhT0SZahf5WtfpTza9ufvYKp5m3AuIXUlB7dXdf/X3/7FrrMEc5MptxI2fv//DF/4ez+nyZaUeQPh4ucNH5djuHH0ux7QKpXy2DC2FSv7J6k8YbIZKq5pB4Un4l37z0spVK8Uy8fRkuQLugUP7f/STZ1EYlFwpa21v/dZ3vnWl8YpALNiwecM3//GZtevXHj957PjJY8dOHD109FBbe6tQIjxw+MB/+/rXOro65Cq5Sqvii/gvvPjCm398U6lRylXyKWgpNcrpec3UtkgqXfHxmpsDaCRNhOOqiAINSTg3Igq1RKEOLzCOcy03cNo9TaTqK+ODl5oRp05CIg4kYs2sMkJWzWer6ndt0SKHNr/5+9/94DsHP/xzgEvToke3vPXaC9/6Jrrhgmqkb8fbr6Hq64JULOPyme4Du7oP7O46sLvj4J66Tet+8U/P/PB//PWhTz5oP7i3s/x794HdPQd26fvaC3waJJ7hAkMidlEsaDl25vTxaxc7qP00I5prxHM1FWE5KgxLiWFPlwLFlCMZsrs0TpOOUsSj1Ds0Rpfi+Vqy2HiXWCo7X+8RGLxT4hu8InNA60lrvXdI78vYollX8g65k1lvCvBn8oFMLjhNoWw+AhRiubuVLJQyRXC6ssVSrggW4KlO90fatIYV3iEPlbIgFM1DKmcMw9UNkMQMlc0azrpieaE1VYZWiGOGuLMvfhlaX/vbf9534tIYWd6D4q1Ys+fVFRt7sAqeufgUClDJogwteEwrEE8Bhdxd1fXgrzkIzBZLGVjwRUkWSpFc0Zsp6kM5nMx7i6hpxSiwYofArMMLBpiqPk+W734sebJ8V4J/c6ju168/O0Zqc2eFcDoZoTXMHSO1vPLOzz4/tcYYoDsTgtoru//6G/9xEHvNlRTbYvybw2e/8+O/HcA0ejOSx8t68iiA5QJocw+tcDQkV8nXfrYWiUHOVBNfSYfNZb3y2iuvvfEqT8ibnvIUtJAYpEwpa7nZUoGWRCbed2Df93/w/WvN18QyseS2ZEqZQq24C1o8Ie/5Xz7/5tt/UKjkU9Dq6etWqBXT85qpbQab+e6KFVyxxBUIRtPZVL6QLsyBUoViolCM5ou2CMDSeLuJ8l6KRiA2y0bG0CePQEIWJGTMpETMtIBZ9dmqkxvXNB3YteOt3988fmDjq/+OuHS2v+7Utrdf2/mnt3e/8wfM1fqtb72Krq8D+PQ8lwJwyACHnOVQwgzSyNnqFc8/9+lvf9W8f7efik9zKAAseIcinzaTRf3ixJmgiNt56NhA88CNTuIwXa/1Au4E4EtkfYmsPZiwBmKWaZrwx/TusMruv0syi5dvcHL1Dq7eOSWO3slQuahyx10iiCbQPD2Ke4fG2dohqmKIKp+uQbK0C8O9hWbfQn2hTjR7gMhHseSwmF8Iy1HSpEaW3HyXZCa3xhaYkhbe9pvdUWeoYiwmXZEv5E1kvUlgunxJIJDOh7KlQLbkSZf0wRxJGWjFyttxCqo6TDVkN9UMjQvCTwlapsKZpqG/+Kt//MlLb/9x1Z5X39v6by+vOHKmhSBw801PD1qsCehkK5Wuj9siQDhbihWgWAEKA6VwdlLBTMGXzE1VozuWvl3JKXswqbVPXg611S/Ru9gKC0NuoSpsGLH9Ola99xp516WxxtHxQWoHQ9XnznIfV3xngt82WFuGVqs7Kyinw/NkhQYfc/vBlb9641+YskFnXFTTsOev//4/DWGa3UmZ0cc+Vb/zZy9/C8PucGdF7izvcXPnugGGC6DOMbQyuUyoDK2NWzZ293YpNcoZlFwl37x103e+98/dvV0SmVipUYqlIpFUxOay9h/8/NkfP4tAI6QKaUtb87e+862Gqw0KtaLpRtN3v//dffv3iqQipUYpU0g5fI5IIpSr5FPQkpWHu3gC7vO/fP4Pb70hV8rkKvnJqpPf+d4/t9+6CQ+GzehZVFLDErAffPSBWCYJhIOZXLbs9V4qO6E9vc9K0LwIUDR6k6NUWQ+Wy9c67OFMxBc2YxGYEwchIX1mBQrpaQHj1NqP//yr59974bmu4/u9VGzfqYMHV7x18tMPBmqOC7pvfvizZ+s2f7bu9/+OvliX408VgJHj0xW9HXve+n3tuo/pbU3H338Hd6E2SieURMwyq6b2nI0N5sCBvQocWSA0tI7QUXyjM5lPgxAA3UfZsofLXZ8ZCMpAUBqCkncqAULRAhgCSnfJn855Epm75IqlrMGYNRidLksgYnT79S7fXVJbfEKNTaCxThdLbiLy1DiOcrqwbPkwgdeHYU9XL4bdPkZt6sVf7cHcpW4suxfPm64+An+cqcAJjTihESs0oYS2EZ6rmWA81Ezd20S6gjWvrRoc44fZJohjAmdbPGO+rnHoa3/znXW7a24MslqGOGt3Vf/r82+cahjkGgCuqTTbBeCYQLYJZJqhwzeoA1wPRenmGXxCk59v9JOlZrzQgBca8UIjgqUaIAkr1diD47aNUabq+Xo/rhPJ6C1fkX4sZ4wsxLIVWI4KzVWPcYx9bNupLs6eS8PdJAKa18tU9ZSZwXFnH0M8R5LXNljz69d/OEZqLVs/lUR4rqToUtvR7/30b3qQlx1xYU3Dnr/8n//XldYqjhx5a/jCT3/9L0fObla7yGXOPUa+tw+BoUWZY2hl89lwLKzSqnbv233h0oUZb+6HR4feePP1V994te5sbdONpouXL46Mj9CYtDK0fohATYfWZaVGSWVQ129c/8Ivn6+uq2660dTQ2HDh0gU0Dv1l0HrjrTdkCqlSregd6P31b15a+9maphtNZBp5xk+ku7dr3fp1MoU0GA5k5mKqVh4CEwXQ6I2QRfoBgoAiMZn9yRhQTObyKb/Hgh3FnNgP8WkzK1BAS/FpR1eu+N33vl299mMbaqggoDuxI217t51d/aENM5pgkUZOH7m0bcOa37yIOl8D8GiQgF4SMrJ8OqOp/uQH757+8E+awa4Eh8Jsqt/1+5cGju+3o4eLQgYkoEMCGqyZLjOcoIA+/Pl2C5kQ9gQVlmAvUTzKUBrLcdxz93MdzJe7y+75hMcnZnsQq5J+HgSBIpjMFeN3KpotBFM5f/IOeZOAI5qxhdPTZQ2nzcGUzpvQeePTpfXGxRNBkSkwXUJTgKlyUmRWisxKltkJMg9K6m+nWg8207bWY2uGFJ+e6h/hh1lGkD374hpytY1Df/Hf/+X4xV6GKsHVAwi6/qe/WfHKiu0MdYxjLDyFMrCMIMMI7bmEPdfH7yPJxuhyBFOJYqtIYjNFZqlUFF1h5xt8k9VoDiockal61vsTE6G0NZy2l+WOZb2JnCuZM4UzZKWnHS9vx8s4er/CbiCL+1mq7sfCVQUbXEeS2zZY/evX//UuaHnSovaRs8/+8u/ah8/bYsLqht3/5ev/x+t//sX6Xe98tOGV3771XH3rUYWd+ITQcgH0MrTq52xycWVMKxKPGEz60zWnN23dpFArZlYSmRhHwG7fue3jVSs/Wf3JwSMHKTQyX8hrut64aesmMo0sU8pGx0dWr1vdP9inUCtkShmVQd23f+9HH3/48acfb9m+pb2zXSQVyVXyazea3vnzHxGo8UpvoVAs2LFr+6Gjh+TlzkORRHjmXN2HKz9Yv/Gznv6emT0LhVpRd7Z23/59aq0qFA09fWgVILjHXGzy9BLFSJZS64xEc+W4GPDk4iw8uRgzgj2xH+JRZ1wZHq1m9Ye1az/2EZEFLgXiUxM0LPHMKWlrI8ChFLjUGA0n7mrd/vpvMedrslxqgUvV9t0cOn3k4Lt/uLp5rW18IM+lggJ6ikkQtF6t++S9hk1r2NcuxShokEeZ8dJOJsinjn6+1UHGpP2+eDZv8ifHmepuvERlD8XzpXx5As38cggsB98rD5zcPY+iTDXYK326gPtZh9mydVixEad/JotQsnCHEgUolitFgWIYKAWAkjGUh7sHccomhGSM58CrExtrBkd5IZYBYs++uIZ8zdXBv/jvPzh2oZemSrANBZ4+ueKzg8/99iOaPMQxFJ5CGVgGiGGETjSTiHK/2Z/wx7PBNBBK56JAIQoUK4rlSvC0yIqKUKoE2+JTmrLUK5cmUYLssTxZZuvES3AiszWcDqVz1oCBKupmKG+5APZjy55gtw1W/fr1H4yRm11Z3mQ6Wa4rI2wdqH7u1890I+ptMX51w66//Lv/cL27RmzCcNTDR85sePYXz1zpPO5M811ZzmPn7gJoLoA8Tr+oMnHmKIwTWMgVgFgyZrFbGq83vvOnPwpEfLi3bUYlU0jZXBaNQaUxqOW5wBK5UiYQ8VkcplQOb4ulIiabAfcB3s6Xw2NX9mew6EKxoPK7QMSnM2liqajytZIsh8eeOoov5NGYNDqTNnXI1F9PuCGVS7bv3FZ7ttZkMYVj4Wy+0j34qJ5aM9I+ZotFicEmNLq9CaAc5rU802gqjNMktCgQTIKZFMCl1K9b2bJjQ5FbSZZa4lIyVGyeSYwSENjqo9c3ran75P0tL7+o7O1woYbGj+0/t+q9xi3rSBdq/XhEkVvhKAXkUQA22TTYOXB478U1HzWsXSlsvAjQ8WXMzGSBK6dfhlYljFM2XQJdMYAomuhA8dhqVzQHdxIuYo/2h95vZUcMeMlmfwYUGP0jNMUAWUpTWAy+tC2cE1jSW2oHRnkhpgFk6mddbH2hAq2jF3qpygRLX6ApAr/70/oXXl9NlYfZ+gJr9ssAn6kBPN1K5BjCgXgaKOQeWof32aEc8BcAoUgeEpn8I1QZkqVSOsKhbD5TLJZd3jU0URdd2eHIMh9PzizTnmC1Dla99PoPRknNziynko4zw56IsI6f3/zT33wTzWq1xrjVDTv/+hv/YQBzxZ7k2lMsuQ334qs/XLX1TVuC68yyHy/38lEUZ5Y4Rrswd9CCirkCkEgnnG7H8OjQylUr+wZ6ZQrpEzbxi+9wNA69bsO6js52m9MWTUSBAlAEC/e5a29HbZmlv/JgMXfbN6ySxRexBzEjuBP7IS55pkUpcinytquazmaQSyknToHgDQrEpUaJSPKFmvbPd97av4twvirDofixo4TaE9RLdSkatsQh397ziwNBLqXAJmm6WwcO75G2XoWhNZnsDJd8DLa00IDflQPSBbCUB8F4DmRpvG1IAZanD+VAoNxPOEtXap4nWzbcQZM31keUtKLEeLHFHEimQTBdKAQTGXHZ5X2EG6QboKcglj5ffXXoL/72B0cv9FCVMbo6dbph4O++98tNh68yNGmmofgUykA3gDRD6fSTRcQowrcZFEwCI3R5O0ZElTvcCaAc4rI0FRHjNrTojiztscSwJ5gtA1Uvvv4vw6TrZYrQHFm6M8OWWbHvffby25+8ILEibXF2dcP2v/7G/zmAuWxPshxZpjPNf2/179/55FfWWIVYj10AkhMgzDG04IgY2ZQ34OUKuIeOHjp09BBfxJcppMuaqgGxTHz2wtltO7dR6BS3z51IJ/LFx3oRmwWk3QGt459DbOLMi0MssghF1n1SLrFJAJOQZsDKMQklDqnEJuXK2+ADSsIhFljELB1fYBEetNsDUniEv8b2bZmCFvyGUeZWLA+KzcE+ggjBUpmDqVRxKS6jVYBK2VJJYbQPk4R4vk5tj4SypXsmF/cPc4M0PUjTQ7Mtuq5wrhX3zX95+aW3N7y/8dQHm6tf/WDPjhM3BqkTdH3+6ZSBpoeo+tKplicK4wTfYyXQG07g2XKFNRDJwZMKKtEdp2IP0kSddOXNMq6ojuxjiG5LMFoGTr34+veHSdedsMVGsyRoPMNwbdOud1e/2Dp82pqgW+PMqivbytBqsCdZthSDrx97/rff3bD3XXuC7cgyHr8AANEJ4OcYWoVSHnYgjAR1Rl1re+tnGz9DoMZhX3O5ZFmVGiDTyFt3bK07V6fSKAPhQDqbmj9LQU6HFvbYXohNgFhPV9P5MZl1GW8PKUYFgbNWVDZxfN8W521LC4YW/MYAByyIF0CjLz5Ckw+SxRpXLFGEx5DmuWE0w8UD4QVuHIGYxhEMpnPZ8mI3lbZ1Kvbgltr+IU6ACjflT0Eggue90stq6GFc7WVc7WU2j4gwohBVm6fqwadSgMo5gqdaSI83uXjyApUHJtO5fCiZThdhF56peMR3Qcueodgz5McS1RKnNQ+e+Olv/qG+7TBZ2kGW3hwi16/Z/fv3NrzYiazV+nD2DM0Sp1Zd2fL1//m/n7u+jyS6hWJf3/D5W79+8/v9uIvOFMuRoT1+AbIERxY3Rjs/l92DxXIPYSwZszltdCZt+85t5y6eY/PYYpl4WWKZWCDiN7c1b962GYlBTljN0UQ0m8/OcCPyBBbYFLSsmBHcsb0QCw8xl4WHWHjEfaAFj0HmIDANQo5oBslSduME0olAvAAHiIPbF3iZzSUgeG02ECjBY1o5CIKXYbx91tOgNTDECT4tYIA0fZGuyzN0OaYOYOoAhi5P0xep+tLTKsAMQQuaXM2yMhN5qlaLUPFOaLWVcUWyZx5DZGuSPEi68Ls//fD193/+7pqX3l3zqxXrXzp07hO6sssUITkyVHuGbEmSrw8c+dFL33ztvZ+9s/qld9e8uHLbb1DsJlOYeJtYj5F1+ZAs1pHFzD208sVcGkh7A161VtXa3rpm3eruvm6hRCgqz6la4p8oDHL9pvX1DfVShdTldSUzydy86RuEH4bbjhhWzAj+2F6Ijl1WpQbG926+x9KaBBIcaAeEfKkCXWFrR7BpcqsvVagMcU29Gk9vcRbpNhwX465o99OhNcgJUrQgRQs9FYEUbYl6WxRtqZz1U8sdouhAsq70pJbWbfbfe8PcAy2SPUN8XJGNIbzQOMzTTUpgGFJ7UPY0jKsyCIn2NFkbwHD1g5P76IckllFLgvTFDo+d+yS0zqpM7DnyHizXMhyBsACEY2GLbYLNY+/cvePwscNUBnWJ40okFTFY9LpzdavXfkqkEE0WUygSfPrO7vc+ANN/uQdaGIi2LAxEwz4AWkUIDtIPQFA4W+RrXR1oAV5ockaBqaU1p9fwktqeDq0BdoCsAZeISBqQpC2efMLuwUeC1i26osWWJtrShMeWPU2yp8mONLUie5psT5PuSQ3ex56mONJUe5piT5Pv2eGxCpDB2DPoMdpcQwt+hou5ZCbp8Xs0OvXw6NCefbsvNdTzhDyhRLhkJRALWtqat2zbXIl26PK6Eqk4bGbNhd/glzWdd0Dr6B6Ihoaoy0JDVAxiz5daWpXKLJSHuBL5otoZHaYpBkhSoz+ZgteH/KK77MuqfbH+Ph1a/ewAUQsStdCS0VOBlvgWTdFiTeMtGdwTyprBV/SAdB66wwOO/ZK/UNYMapQ+D6BVBAuV0BhWh1UsE7e1t31cdn/n8DkCEX8Jii/koXHozzasu3z1skDMN1vN4Wg4k8vMK2Ld3T14ZA9EQULkZcE18FBoTaELAMGJYGaIrmkdY2ld8eQ0x4TFCqcvO68paG2uHehjBQgacCmp8DQsLRhazVaYWNiFKaQ1gxyln1XObfdg5Q6u+L77Q36DSc9g0c9eOLtxy8a+wT4Oj80X8paUuALuGHJs245tJ6tOkihErV7jDXjn22jWZJt7e0zLhhkhHNkNkRAQaXxZEGkcsWfTl41p3dNklzIlyBnLEQSGbpyAp3UFMwVgmuvXPfsvWmeN6dDqZQbwamgp6elYWh005Q1LGmPJoBemEJbM+HyBVqFsbMVTcY/PrdKqiBRi7Zmaffv3DY4McvmcpQMtroCLxCD3H9p/9MQRJAapUMkdbkcsEZuTKBgPbS6nugdhaB3eBRHHIcLosiDi2PjujY8MrSI8dQmCgtkCW+PswvBIIrP39rqID70Ei2mHO6EVxKmgpaSnBS3F9Yk00pQZX4gyZ0Yt6dFRet28sLQqfpnl5bWidpddrpThiLjq2qqde3Z29XSyuCyugLvoxeGxB0cGPz+w7+iJowg0QiwTWx3WcCycAdLzZ27W9FayAq203wV7Dx7aCeFHIPzwsiDCCOKrQAu++aESAEGxfFFuCXQi2QiWyhJKZSejPS0Vb/hp0BrsYQSwSmgp6el0D3bQFNfMCxZapsxIGVq18wVaFY+MDJAORUNWh1Uql2Bw6JozNRu3bLzWfI1Cp3D4nEUsJpvZ09+zfdf2w0cPjyHHhBLhhNUcCAdS2RQcAmM++V9McesLaGFHCUd2lbCDEHYQwi154Ycq0MqWwzg94rWrRORLFECTLzlElgySxFpnOF2C8pVZXF/uGzZ1ORb6xp3QCmIUIEYBLQ2BGEX+qYxpddAUTRNphCkzthBlhqE1MkqfT9Ca8iQMhAMW20QlRvuZc3Vbtm05X38eS8AyOUw2j73IxOKyCCT81aarm7dtPlV9ahw1LpQITRaTP+SHh7LmKNLgo7SAFWgl/S4LAUE6vi+H6IWhteQFYgYRezc7KFgYWrn0I0KrXOFwlMJMCXJE0hiurhcvlpj90Vwpdzsez6NclIW7z3RoddMDSwxahRMt5CeKiPHlrzWVeVpOv4Ym6qQqmsypcVN6ZGFqaCI1NO+gVSxP20pmksFIcMI2IZVLCGRC4/XGnbt37Ni9o3+wj8agsrisRcMtOos+Oj5y8PCBzds2n794Do1DTxErkYrPVWzcR2z4KtBKBNwTVByt5khioA1C9UPopS5g5Bbm8G4Hg5gOeL4itOCgBgUIBEDQmwAYClsHkkNXOHyp4mTUjC9vmB7xks3n3aZDq5PuR8lBlBxaMnoK0NLRRD0UWZMpOWJKDxkXoEzpAWNiYB6NaU09TpXpxqlsKhgJWu0WmVLGYNFvdXXs3b93xQcr6hvqcUQcg81gcVkLWgw2g0Ql3Wi5/tEnH23dsbW59QaVTpHIxJVewWQmCeSzX+UlfQ6cyirQigV9Vj6T23DG1XoJQvZAqL4lLWSvr+US9fxph4CVDHqBx5yoUCpAYAwoicyBpmEGmqsPZ/MVe6uweLk1HVq3aH6kHETKoaUhECkvHG+eXUvLHTDzZEgst1Hu7jYmBozpwYUlQ2pAF+vjmltQrCuaCcFcRsSYYtX0jQJYqDjBh6Ihu9Om1qpYXNbI+MiZ82c2bN6wdcfWy1cujY6P0BhUBou+4ERn0lAY5LUbTfsO7Nuwaf2p6lN9A70MFl2uklvslkA4ABOrABTm5TjW9MtUmWAXi4YcGoWs96b8YlV+6CaE6FnKyg93KM6eEPe2OzWKeCSYe4I3jzwExQug0h4aoiqGKHKTL568MxDqHddi4cNsOrQ6qH6ErISQQQ+XFELMfz3kRECELH+8+ckC5n75DVCOS572BZ0KLRfPvIVk1tPVV8SuFlW4U58YMKaGjKlBQ2pgHsqYGjSmBnXxPnmgQ2C7QZI1jNMa6MJRk00dTUThoZM7z/p/u+v70/+aL+YyuXQ0HnH73HqjTigRkijEjq6Ow0cPfbjyg+07tzU0NiBQ43QmbQFxC4PDtNxs2bd/74cff7hj944brTewBCxfyNPoNQ63IxwNJbMwsea5jTV5M5T7cmOJiMtq0lNwnMuwsVUa7YDGu5amwNFOd8tlbn2tlkpwWU3x+z1XX+k5ykNQugSZA+khqrwbK1Daw9E8ND2A91dKbZ7vfCe0AjCu5j+NZqaEswyt8oSiYCRgtGjZQgKC0DKIPT9ArMYJL3FMLWJHh8LfqY50GZI9xhQsQ6rvtvoNqacpOF8jrF5dolsV6pR6OwS2mwzdjXH2+X58zRDuEo7WK1FyHB5rvBIhaL5Bq1i2t7L5bDwV9wa8ZqtZrpSxOEwkBtl6s+XzA/vWrFu9dfvW+oZ6NBZFL68aPJ8/8ST8tRtNu/ftXrt+7fad2640XRkpG4sSucRoNrh97mgimgZgX8EFYGPdvlfgEFzphNfrnJCJxANdnPOn/G2XwdFb0FjnUhM42um7eYV7/rSwv9MsE3s9zmQ68cQBjktlboHuBEAUGzsxPJbaHs0Xy7OPwUUWGL4CLYkltqV2sIMaHJdC45IlInBcmp+97sEiVAQKQDwZc3mdKp2UySVgSH1DqOt9yIu96Lp+QjWCfZYgvUDXNvAs10T2Zrm3XRXqMiT6K4aOYdIO6y+TrNeQmlKPASbcI2rqqN4pIhpTA5UsjKkhbbRPGewWu28KbM1sUyNFVY8Vnhul1/bhqnrRZ/uQDaO4VgJthC9hGCe0gZA/db9Fmube0qq8GBbAQq4AJDOJUDTkdDv0Jr1YJmaw6GgsquVmy669uz765KMNmzfUna0dHR+h0ClUBnW+CYEar79cv2X7lpWrVm7etrm+oX4cNU6hUwQivkantjltgXAgnopn89l8Kb8wbKzb0CqWg2KEI0HbhEHDojJaG7lnTzquny8OtUOjndDI0tBoZ2Go3XHjAvvsCUZro5JJtZr0oVBgpgIcVwLshoAiU+XoQHGIIl0gU177eNq6HvPcinqU4k1Ba1vd0E1KYFQMjYqhsSUhcEwyBa2yw/DU8zVDG5UewnAs7HDbNXq1QMylMvFY0uAo9mYf8kr3+PkuRN2t8dO9mOpBQvU44wyGf4EguUSUXaJrG1mGa9yJGwJ7s9B5Q+5vUwRhaWK3jKmuR1a3IdmtirQrgm3KwE2Zt1XovCGwt3BM11j6a1TVFaLsEk5Uj+JeGCLX9BNqu1Gnb42d7kbU9SIuDqKbxvG38JQxJocskQmNEwZf0BtPx+/tG4tIo5UAACAASURBVCxCxfkCrcq841wxlwHSsWTMF/TZHFatXiOSCGkM6hhy7Epjw97P96zf+Nmaz9bs2rPr4qULvf09CDSCQCaQaWQKnfK0RSMTyQQUFjUwPNDQ2PD5wc/XrV/72cbPdu7Zeb7+/ODIIIlK4ov4So1ywmr2+DyReCSdTeUKwPycQfzQ5iZXzCVSCZ/PbdQopBQ8u6OZc7FKeeGU+8bFROe1dG9Luqd5ESvRec1946Li4mnWhSpm+w0JGa9XKzxeVyJ5/+fqofV53x0qAXbDQEls9vfghSiO1hJIZeFZXIsnwG4ZWimpNbrn4ngzwTckAodF0EM1IoLmuR56CsPwmQLHYZf3YDA+K9CamgUbiUc8fs+E1azWKcUyPptPozCxeMo4kjAwhukaRt0cQF7vRzT0IS90I+o6EVU96Jo+bHU/oXqQXD1EqUKwa5HcGgS3BsWvwYpqsaIajPDhwopqMcJaFK8Gya1BcmvHWTVD1Kohcs0AvroPW9ONrulEVHcjzvQh6/sRDQOo5mF0OwLXiyENE2lIGpvAFTIkCrHOqLE5rP6QP56G3+/v2x01j6AFP8ZgoVDKA/lsKpuKxiO+gNdqt2h0aqFYQKVTx5HjrTdbas7U7N63+6OPP3rnT3/cumPrlcYrA8MDKAwSR8SRqKTZRheJSsITcSgsanh06HrztT2f7/nze396/8P3tu/afrrm9PXmayNjw2QamSfkKTVKs9Xs9rlD0VDFS3DeTh++bwN614+FUr4cyiTidNq0KpmISmIOdpOuXiDXHCUf30c9upt2ZNdiFfXIbsqJfaTa46SrFxj9nQIKQS2X2p22SDwyU2bWtNqG1z5OFEBzIDZElvYTZXpfNlVcPNwqQyspt4UPN2IaMc5+ITgohB6qISE0//XgsxgQlnrY8aqbVL4xEIwn7mtDTLsNHtdPuNyEZnOZZCYZiYW9Aa/dZTdNGDR6tUwpFYh4bB6TzqKQGXgCFYEjD6MIvaOYWyPo9iFUyyCqeQB1fQDZOIC82o+80ou43DN+qXv0Qtfoua6Rh2n0XPfohe6xCz3j9b2Iy/2IKwOoxkFU0yDq+hCqZQjVOorpGMd1oQn9OPIIgYqkMAgMDo0rYIukIqVGoTNqzTaz0+P0h/zRRDSVTcFOaqX8fStknkGrbCZXvAqzZXRF4hHvbXSJJEImh0kgE4bHhltuttSdq9uyfcsbb77+9jtvb92+5eTpE003mnr6e4bHhpFlhs0IwMg0Mp6ER2FRI+MjvQO9za3N1XXV23duf+fP7/z+tVfWb/zsdPXp6y3XB4YHcEQcnUkTigVqraqCq3A0nEwnMrnM5AjW/HcUfGA3BewyA6TDsbDdZVdrlDwui4lD0ns7aK1XadfraU0XF62u1dNaGqm9txgYBI9NV6nkVrs1FA2lgfQTj2bdt20q5SEwC0HOaBrJMVwfYcngtY/hHxfBApJAIRdOJFT2wJkOYv2YuVdQ6hdCAw/Tg3kwT/59wFn0i6BeYamZ4D7fzRCbfKHETBrod7fsZW7lizm4Cc0k48lYOBr2BX1ur8vqsJomjDqDVqNTyVUysUwkEPM4AhaLy2CwaXQWlcokU+hEEo1ApOBwJAyWiMLgkWjcOAr7cKFx4xg8EkdE4ckYIgVHphGoDBKNSWawqUwOnc1j8oQcoUQgVYgVarlGpzaY9BNWs91l9/g9gXAgEo8k0ok0kAYKwIOH/OcjtCrXoFDKV+o9mUmGY2FfwGtz2nRGnVwp4wt5dBYdR8D2D/Vfb75WVVu1c/eOtZ+tff/D997/6P11G9bt2L3j0NFDtXU1jdcb2zraOjrbu3q7hseGR8ZHRhGjaByaRCGRqHcIS8COIcZGxkdGxke6+7o7Ottvdty8duNa7dnaI8eP7Nq7a/2m9R+u/OC9D1asXvvpjt07TlWfarx2tae/B4PD0Jg0noArlUu0eo3FNuHxeULRUGIKV1/yvnD3rfZAYMyLncsuM+kyt1wep96ok0lFQhaNR8axcSgWBsHCIJiLTiwMgo1D8ch4IZsukwj1Bq3T7QhFQ6lyZ+/sjU3CgQpB0BPP0RT2DoyIobT7U0B57ePSvLgZHvd2BQpAJJkwOjw9WH5dr7yLm+8TQA9VvwCa/3rAWfQKoS5evqpT3DIuUE94IjPaq/xl90OlCc0VgGw+mwbSiXQimoiGoqFAOAAzzOd2uOxWh3XCajZZTAazQWfUaXRqtU6t1CjlKrlUIZXIxCKpSCAW8EX8B0sg4gslQrFUJJVLZAqpQiVXaZQanVqr1+hNeoPZYLaYLHaLzWlzeZxev9cf8gcjwUgsHEvGJlmVz06Onjzs5X7+Qgu+ElOvDLlMKpOMJqKBkN/lcU7YJrR6jUwh5Ql5dCYNS8AOjw339PW0tbdeunLp6PGj23ZsXblq5dvvvPXRJx+tXrd67fo16zet37Zz287d23fu3rFv/97Dxw7fpc8Pfr5rz86du7dv37Vt4+YN69avWbNu9cerVr7z53c+XPnBpq2bDh89dPHShZa2lu7e7uHRYQwOTWVQuWVWafQas8XkcDv8QV8kHklmkplcJlfMLej+wPs/CWVuZXKZyrij3WkzmHRqtVwhl8ikIqlYIFl0kklFCrlErZYbTDq7w+oL+mKw/2f6qVxcmFuRXImv995CcfBCvTuRKwcqXMBDXLliLpZK2Nxuqkhb3cW9QQ71CqFewSJXjxBqocc/v4IfpavMDk8sNWvdg3e9TIAFuBUtP7b5Yg4oANlcJpPLpIF0KpNMpOKxRDQSj4Rj4VAEhpk/5PcHfd6A1+1zuzxOp9vhcNltTpvVYX2o7C673WV3uh0uj9Ptc3sDXn/QV4FTKBIKx8LRRDSaiCbSiVQ2lQbSmVwGKIMKtqtKeXj46mG4qjRK8xtaty8A/MpQygMFIFN+X4jEI5P0spq1Bq1MKROIBWwem8akEcgEFAZZ6crr6Gyvb6ivqq06cer4sRNH936+Z9feXTv37Ny0ddPqdatXr/3007JWr/109drVGzZv2LF7x669u3bv3XXk2OETp46frj51of78zY623kqXIxqBJ+GpDCqbyxKI+FKFFGaV1ex0O3xBXzgWjqfiqWwKdg4sX4P7N/q3z2gB/wsW4GtRGXdMRAPhgMfvcXldlfvb4bIvMsEPodfl8XuC4UA0Hp0cnnxa/p+Tax8XSipHcJgi7cVzjb5EqlSexQUuyMDwhVK+vIK5V6QxNY0Kqnqk3fx8twDq5i9mdfFL50cMdbeodInR4fEm0kn4pWcuWgMYD2XlS/lcMZcr5oB8NpvPZnNZmGdAOlPmWTKTTKQTiXQinorHkjFYiQcqGYun4vFUvHJUMpOcJBOQLqecBfKwKq/y+dtluK+fxUOrZWFAa/I0yobXlLWbTCcq9Jrqq9XoNUq1QiKX8EV8FpdFZ9LIsI8fEUfAYvEYDA6NwqIQaMQ4anwMOTaKGK10Bo4iRscQo+OocQQagcKiMDg0Fo/BEbAEEuyXSGfSWFwWX8QXy8QKlVyr15gmjFaH1eVxBkL+cCycuM2q3MO6Yh96MRbSDuV3N/g1IpdJZVPJdCKRii9WVZ5A2HouX+JHfB+cwauZh0oZCJoIpocpkg4EQ+UIp0DYNWMhDnFVooKFoiHdhHWcLq9qp17F2Dt5xS4e2MWDFqnAa8RA9S32AFEq01v8IT9sqc+fUYOKiXPbJpsyy/LlvqJ8MZcrAI+oqUMmN6bsp6ksZoLTCwpalROu9BneHvFKZVOVvtpwNOQP+T0+t9PttNgtxgmj1qBVlTtnJXKJ+HbnLE/A4/I5HB6bxWUx2QxYHCaby+LyOTwhTyAWiKQisUwskUvkSplKo9QatMYJo9VucbjsHp/bH/KHIsFYAn6tSGdT2VwGHjYsvzjAbdmjmbcz2JzNbVKF8rUolPK5AtzzsFhVeQK/Ug/GjF+XPFRKl0B3PEcUGvqJYo7WGc4WF+gQV64AxJIxu9vFlWk6kNzaTk4j1tPBynVyocWnDk7xGiFU1yNpGeUwxRqz3RGJR+Z/xNHJ1mwayeCH/WGaftTsNYYLEFpTrJ7WV5srAEB5sLHy1h9LRMPRUCAUqHTOOj1Op8cJd846rBa7ZcI2YbaYjGbDlEwW04RtAh4ndFgdboej3CNU6ZYNhAJwb2zZsyWZSaZha3fyjXvSxWWJger+zfHUm9Ri3Zi66+Zuo9xVCIUyBa7G2TbOxkvsvjQILMAFTcqLaKQC4aDOZKbw5M3DjOp2Vj3S0UoHOjjgLS60WAS2MfMN+GDVLUFjPx3PlKgNJm/Al8zMWd/g/R/eubulH688Cxlalbqe/i5Q6audGm8E0ulsKplJVjqvKj2z8GBgPBqOhcPRUCgSDEWC4Wg4HAtHYpFoIlrZJ56KJ9MJGFHZVAbIwObU7ZGqL163K63zQrvej3eXLB81T2qgsoZkPF+UWSMtSB6SrbWF05W1jxdSV2E5mmU8FXd53QqtjsAUtQ4zTjaTT3dKr2D91ympVlaxjQstYLFL12npK/hATb/maDOtcYCOoQmkKrXd7YwlotknCK88T+7DuS3GwofWfbFRIdlthsHjjbe7ZSvjgUA+myl70VQ+p36c2q0yRLlk+/3m9qZczv3BNZCHwGQB1HtigzTlEFWhd0dS5agZC4hb5YBDmUg8YnfaZWo1mSXoQdDOdxCPNVOPdYhP9htPDVpPDtoWqgbMx27JjrUy6tqJN0coODpPrFBa7bZQNJSp+J3et9Va/vHRamCRQmv6yd/ZYTXVLTt9zHDqx6fTJ/vgJmn53+UaeFgNwBONMyXQHgGwPH0nmiMx+SK50sIa4soXc2kgHYmF7U67UqNh8ESjRFbLMOVCJ+HUDcyRJtThRnRZqMONC0hwmU9cx5ztwN8Ypg7hWBQ2X6ZUWuzWUKQ8t6+Ym73BnofdNvedyb7wflwC0JoOsOXt5RpYLDVQgMAsCPmSAFNh7UJzGHJLCIAD7C6gQIWT3IpHnB6n1mgQyORkNg9FYgxhyX0IYvc4oWsM3zmKW0DqHsP3IogDaPI4gUFi8rhiqUavd7jsk8RaKKsRze9nZBlaC+9FY4m8Ty2f5kNqACwWQDAHQYkSJDR6b6HYaLbanQAyZW/4hxw7b1ql8nJ6mXgq7odjZNu0Rp1MKeeLhWweh8Fh0VkMGnMhicFmsngcnogvkUs1Oo3FZvEGvLFENAOk4WCDy05bM3HjLUNrGVrLNbCgawAOsBvNlZT28BBVPsZUGn2JZBFcQPYWHCO7AFRiZPtDfqcHnrJimjBWAgvpjLoFJL1Jb5wwTtgmpmIOJDPJbDn66DKxZupFahlaC7rBWi78cg3ANZCHwHQJsoUzgyTJLaxI5YinF5S9VVkJthJmZXLaZSwcioaCkWAwvJAUisLxiuDYr+WYA5PBsp9W/JSZosI8T2cZWsut3nINLIYaKEClLAh6kwBOaO7E8AV6TyQH+2vM8wboi+JVJq6WgwbAgYWmOfdOd/Sd/9vZ2/GKvpgeMxN9Yl9U1JJPbRlai6HBWr6hl2sAXkYVgh0IQ9kiS+1qGWMRxaZgulCJ9rSAvOHhS/mwyAtT7r7zcGPSA3nJo2X2HsllaC1Da7kGFk8NVLgVzhalluAgWYLl6q3BybWPFxi3lhv95Rr4khpYhtbiabBm79VmOeUFVAOVaE/JImj0xYcosl6cwBLMpEpQ2Rt+Ya/FtYCuwnJRZ68GlqG1DK3lGlh0NQCW8hCUBiFbJIvh6toRLLk1EMnBAXbz0DK3Ft3l/hKLZPawMbcpL0Nr+Q5eroFFWQOwF0YWhNyJHEVm7cELmCqrP52vBCqc20ZnOfflGniSGliG1qJssJZParkG4BooQCAAz+IqCo3eTgwPKzC44rksBC2Pbz1Jo7l87NzWwDK0llu35RpY5DWQh8B4vqRxRPrwwhGabCKQSpegArhwvOGXWPfX3CJh/ue+DK1F3mDN/1twuYRPoQYqs48d4ewoXXkLLVDZI9kFu/bxU6iu5Szmcw0sQ2sZWss1sCRqoBwYHnJG00ShoY8oERgDwUwBAME8VCrMM1OmUJ5zVoALtkBVnG9VOp8h9FXLtgytJdFg/X/tnXmQHNd93xM7sfNXkkpVmEpZ5VKSvyLFthgrseToMK2raDqWTNEWLUuybksUKZWsIxYpigRJYEkABHFQBEgssPcxe87sObMzuzOzc9/3fd/30ffdneoZAlosDgK7mF3s7qv61tTMbvd7r7/T73361/3eb+71tADbH0oH3l19jDOmcOns2JrKHqsR7AMVcnV/5ZIUBEIQcEHADprwTstJQaAE8WrgUJ5F+35QAFoAWsCBI+MA382a0U2w2xpdMS8b/LkWhnHiILuPszO6oRUlTnfkmySbbaHJBhyptgOlhr94kBSutJINONtC6zjVdbWbkWTfB/rD1AAArSMzYD1gt4AOUy86WMfCCCzN8xgrhIrtOa13WmUPFlowK3JrXw6ksxpaTPhbgEh7rKi0J6Y33GMKx9CqvX/B/I7MeFB0WWYeXLaNK1zTG265OWwJ5TN1FN3vC4J9+U57WimAFoAWcODoOdAJuTCOTzeIRUNgTG6zx6ut/UiwK96x5IUWyXnTDZkxfmXZNbERWnMVdMG6JdZ2ZzFvDvUdEHmzmC0O6YL1dU9pdjMysOKc0YYt4VINZUhuPwPZniJk7wsH0Dp6AxYIuYADHQcYgcN5vozSGndqeMmkdqdgvnOfkOdYfi/6RSczvVDFGK07LVF5Fi1Ze5b2l5lIjYvX+GSdTzX4dP0gKVnnEzU+WuOCFcaRJeXO0qTKq7LHC22K4MDyuPtzUgFo3R8f9/5yA9QIHNi9A92pGW2at4SLwys2mSFYQuju1IzdF/6eJVA8X0EZtSs1teHfDDVDFS5eF5J1PlnjUgdcIr3qQqTK21LEnDassMULLZzkAbfuw3gLoHUfTHzPzgk2AA48sA50Hym1ac6XqU8qbPObgVgFRVih1zMIaJ5vYIwpkJ9Uuk0xKFzl4+JAzx0u8dGa4Ehh85vhDUeiTvAktz8PDh/Y028HDQPQAtACDhx1B7oTzXFOyLfxmQ3P0KIhVIQQcQaBwPRsdgbOcv5sq39Opws1Q1U+VuPjNfYwiovUBGsSG1y0+HNwm+JpjtnBSA12ue4AgNZRH7CunwrgzZF2gOcYgScEId8mFLbo8LLRFi02SaaTGP7+BwcUR7cJVroZnNFGghUxHImLz7EOH7S4uMhjIVTll2z5/jl9qoriNM3sySPDezyfGVboimYF6ppIVrhXXd+XYgX6Wpn3c5gF0Lqfbt7jWQKqBg48cA6QPF/FGZ0vN7xkUDtjZZTqcus+pnigOQalqHip3S+1mBNYuCrEKnyswh1iRaqCLUP39S+bAvkWTlH7FmxdxxLdIcrWV6rLJ0YgaB6leYQWYFpoU0LzrtWihDYtQLSAiOJRViA6ZW6tZdv766S8h44AoHUPZgEmAQeOgAMcJSaG55yJ8qTSsWQKZZokfl8XG5EMXUfpFYN/ROH1FNhIpQstvoOuw/karQjeIj8q986pPeJMQmZfhh2mEz+RrIAzAtYlE8UhJAvhDIQzbZioNuFcvZ0u1EL5qj9f9aZLjljOeF3RrOEWyhmubxDPmzMVV67my1cD5UakDqWbcA6jmjjTxhmIZGGKE2HG8Bgj4KwostOke7tfCqC1L2cPqBQ48AA7wIurj1GOj5SgObW7f14bKiFYJzXR7pnN8AxK07k2/eaEal6fDBS5SFmIlvnDrUiZD5QEjb/5zqwuWiFQimb4exupd+N8J+EIzQg4LcCUUKeEMsJmSpA/UTb74xvO0KrRLVVbprT2GaNLanLJrL4lm3/ZFlh2hFbd0bW7lyuyZg+uWP3i7mbvktElNTjnNbZprX3G7Ft0RRThjC5bdVThIM7nSaFMCQ1aQK5FY3fbIwC07tap3Zw0YF/gwAFzQFx9zOM8n2mSi4bQ8KrVkai0aTEI22W2J5pjIJKK18iX3pat2vLBEh8uC5Eyf9glhMqCK8ueGVF5c1gbJ2mW6uUpwbACzQgkLWAkB6F0vU2Uyq1YPGv1RJQWn1TvmjL5Z6zhOVdswR1f9KaXAzl5pLieqOpSVWOu5ci3XYW2u4IEGnj87lXHomXIV2i58213tmFLVo2JymYov+bPrnrSy+7EgiMitQRmTb4ZvXvK6l/wxdXpsruBZGCyjDENioc7Edj1h2G3HpwBtG7tSy/PJ1AjcOBgOCAmhueFzurjROe3jzNVXEywuxtu0RzTwohgEf/ns9NKVyVUEsLloyJ/WTg5oHCkoCaKUwzZm0FGfErECBTDowhVLkPhZNniia+ZfDKLT+aJroUzukTRmqk68k13CfbX8XCDjLTpOMKlOsogXA4Vlce4As4Vca6Mc5W7VgnnihhXQLk8yuUQURmES8FsskXFGkSkioaKbW++6UlV7LGC2ZdUO8KrJu+8LbgYSG3kaq46msKZJiNmGetO4rhFTwHQuoUpvTmZQEXAgYPnQGcVl9CmWWu0fGVes2aLF2AGF7m1wymFJEM1ENyTQ3/46qjaWw+WhNCRka8svDogt8SbdRjrGbRoViAItlmF4sGkbtM+q3fOBNKqXMNaw/wtMgIzaYztoqjcAdK21+t8qhJcVzWCuyeJe+Girhe1rYruxxLK5tt0sk6Eyqg7VTG4Y6ub9mmzZzFRcLTwHMWL6TBvORQDaB28ceSWXyT4I3CgRw50Vx/DDOfLNoYW9bJNX6ICXZtSeM+/vkEyVB3GnGn4mb6xDW8tUBSCRf6IyFcSXr0qN0UbNRjtEbRonkCpWrLosPiXvAlVvuluElGYTqFcFufy3cipQ6N74lBPNu6ArYRzBYzLoWwGopI1NJwsWZwhuSOkKLXCBAuzt3ryB6AFoAUcAA68twOMwCGskG5SUq1vXG7xZ+sIJ5Di6uN741YXWo6UCK11T81f4AJHQ/4C5ykKJ66sGiO1GtQTaDEcTbJQtuIxexfSdVOLiaB8DudKnaCnG/3UcO5BU7dhYmSGcSWETdcJXzC7ZvbKWlhRfPJ3E7cAtN67u/boAhYUCxw4WA5089tmW7jClhiV283hYp1gSV5M+HT3B7IFWuMqd81f4ANHQ/4C7ykIJ67IewctmqVgquSNK9W28TLqgfkkyucwvojxZYyrPvAqY3wR5bNtLpRr61Z1lwv1KEETN0+zBNAC0AIOAAfuzgExjwNH8nyd5CzR0uVZjcISrZEccS/xVhda9iT0dN+40l335nlvnjsa4l353kKLZIgGmrb456bXThuDkhxsgfgowmVRrohyJZQtP7jiyghXQPh0mwvHKgql7cL02slk0YPgyM3TLAG07q67gh+zAA4AB645QAscxPCOeG1cbls2BvMQjnGdeOsushNtg5ZHhNYRkdBTaDE8g1NYpR0zuCUq22V3RmoMTtjj0nhZX0K8dSLcouMwl0a4LMLlEXF2XxFl94VkJZQrdNogzi2E2GSTitXwUKHtDOZU5tCUOToSLM3Mq1+PZOwQCpE3TbME0ALQAg4AB+7ZAVrgYYaPFKF5tXtCYQkVIPTdxPDvUdRWaK25ap684D0y6i20OBoj0WI9pHWMm3ySMmFPNnTezLIpOGHwjzris4HcarKmybUtJdRdJQItOo6wWTG+uZOKCLcz3a7YPMxmG2S0ivuLsD3d1EfLSk9aZg1LdN4RW3Q2VFRmYU2N0S9oLwTilmZbzH+57eYzgNZ79LFtfoGPwAHgQNcBcRUXJ+RahFTjnJRbXckGxPCd1cd36lM3QqvuzgnuLH9E5Mz18PYgw9EogeSqAY1tzOSbatC+Ou2tEI4iakjUld6M1BQY37Bd1XlGzeEZZ3zBn1OEi+pEzZBqmHJtWwFxVDBPnfQ3qADERWE+CvMxmE/AfPJeFIf5eGfHaJsJN6hAjfSXUFcetmdb1lTdGK/qQoV1d2rFEZOaAhK1a1DjGrBGJP78QrqlLuGWKumu0446Y1nU/NoXMzfbDZImtvU4AK07dbBtZoGPwAHgwFYHaIEneKFJ0WpnYmDBsOlLNwj2zrPhAbR6NBHjXWhV/B1oTTdoX4P2d149dcpZIx0V3F7CrIm6xp9fcaWkxtCY1ju46RvW+UcMwTFTcNwSltiiM/bojDM+50zMORPz3sxSqKi6aymDBYUntehMzDsTc474nC06bY1OmcMTxtC4PjCq8w93ahyyxiSejCxUUqRbuhJuqRD2GuWo064G7em02VlnLQuaN30xE4AW4BNwADhwnx3orj5uEJwlUhlZNq+awwWIwvnub3Ftnw0vzj9k6DqMdSdiyJ11Z4Z3HQ05s7w92/NIK9uBltHXhVagQXflb9D+uihfjXZXKGeFspUpc4k0ZmBNsr0eqcmDpRV/fsmdlrpS85bwpCk0YQqNd14nTSHJ3WnSFOzuOGEKTVijU67UnDs9FyguBcsr0dpaClrPY9oSZShT5gplq9LOKu2tixGh2LyOxNbWaWeNNck0FwC07nNf3Xq9Cd4DB46yA93VxxDF+XPNcaVLuulLVBFU5NYNiQopjoMICqO5Gox3obXqrDmygvPIyJYVjl9R9DTS6kLL4J+qiXzy30a+zn89NdpT7YpyVyh3hXRVSFeZdJUJZ5lwlAhHAbNmIEMG0t+dDFnIWMRtZcIhlkA6uwVWKFeFclcpd5UWa7ymbhtu1ULGWQXQOsoDCjh24MDeONBdxZVr43Na7+U5TbJJI+KUQkGsnWcZni80UMmKpoKxFYQE0LrvGTG6twevQUtSpTxVyrsLeToleETY3IOu77WLqml7hTHK1OdBpAUiLeAAcKDXDnCkIOTapMIW65/XWCLFBikmhmd5juG5bJO4NLXmyUJlhO5Aa2LFUbNneHv6iEiwZoTj/b1aXLwFWqMGv6RDmusIOVBvALT25jIT1AIcAA6wAtuNt6oYYwrlx1bNps4uzwAAF7BJREFUKmeyjNK0IK7iqhL8ojEot0SLEGNLIk/3daCVFux7JUdacKR5Z5p3pLmO+M5f9q4B9wFavBi2ds60m54XdmYPdiKtDrRo8XbcwZStwhilGhBpXVsXCUYW4ABwoKcOMIIYb7UZ8bePx1ZMS3p/rk1hnADxgjdbl6xZw0XMksKf7ptYttesKWFvZEtx9gStcpRO9y+9cGb8hTPjJy5J1+xle4q1pfg9aIMlLZjTu460eI7leVpMnSVmfdya+HFrpKX3TZYpZ5l27VgV2lWh3du0rbRt/63Q7m0b7PSjtcwYALR6fVcElA8cAA78xoHu1AyE5aMleGbdObpqCRfabU7IIcS0yq50pE0p6um+iSV7zZziey1LkrcmOX0A6rs4/9WnX/7q08eeefaNZ5594wfPnf9/rw6rXHVLku11G7rlm1LC8X6FMVLfecJcnqM5vlBrpsoNmOE7qwvezVl8I7QmypSjRDl3JhF4lKtCuiuk55rcZdK9rbQbtxE3KFOubdvs6KOpRG9KNed8MSOY8v6bTtXTK01QOHAAONCdCo/xQrpJSHWBCYXdmWqWSG7JHBpSeDQx8um+iUVr1ZTgzD2WJcGaovjL5yUPf/KJf3rx4tx6yBhqG0PtDVfl7Smj2tu29LgB1w6QNyb54/1ru4QWxfHxXGVaYVDaw8k6jrAc1Ym6aI5BCaR7e1DvHy9T9h0BQ+RcmXIWEHu8YoqVTLGSMVY2xivGTNu2lVtlypmFbbGy4fo2ybq5iO8Qkzc0lTYVaa1UcxZACxALOAAc2CMHGIGnBPGHSwhBwHihhJAbnuzIqm3dm1f5KpdWAlJX6+m+yUVrzZwQeizemmBGFx1//vlv/sPTxxTWvClGWxKcCKo4a4jS5jjX4wb85gCNCWH30KJ5vkXQ3ky1cylgMwVzxTaJsQLJ8QiBboGWrUTtRGXKUcTtK7qBL3/n0a989y+/+aPPf+NHn//ez5440/+sI76agSwdqjmKmH188eyjT3zy77/72Ld++IVvPvP5Z/7577Su6Rxi7QR59p3VLu5FGwG09qijgotr4ABwoOuA+EyL5so4UyPZJi1m121QnDPVfGNsY0idOrcUu6LOf79vSmapG+NCj8VbYsQzz51/+OOPTys85ijZ4+rudDiGuPBKJ9KqQujNKfXu6uTpTMQQE5EIQhWjnfHKValuaNnqy6FNiocIIlsJqG2jnUjLWqJ2ojJlK2LWgZnX/vQzH7g0fMIYnDMEZ1cNg1/+x89++gsfkaxezMG2MmUvILa+N3/6H973O+evHDN4pcubgx/51Af+/K/+yBpeLIu3JW07q13cizYAaAFoAQeAA3vqAMZw/mRhTmmWaZxyo1/rjJkDWWOkKLXmT0w6f3B+46Wp4DdemZ2zNA09hxandtc+9YVvf/RzX1Fa85YYs1/QMsQFXVx48YpaG0XyMAOxPCoIuxEsCDWaDzaIRWdpQBmWWbLOdDNQiKnsEp1vokhadqYSaSkglqvTrz7y2MNS1dUSaS+SlhxqsUaWTl969v/+3cfenjiRhS15xPrqhZ8+9P7fnV65VEAd6Zb5/NUX/vsf/+cZ+aUy4SyS1p3VLu5F6QuUBtwe3NMee1dXTGA2I3Dg8DpA8xxC0dka5EuW9Z7kqiE0ueYcWLYPKoOvz7p+cG7t+xc2v/Sr2Vlrew+gtWxIffiRv/nMF7+/4ayaY+w+QkubEH72lvKSPLJgSqw5kipXat2d3rFU7ozSnZW78/P28lvy+E8ubjzfrxpTa+d1Y1rfZIcZ5iJ5zyqRljxi3gItW6cQS4mwu+KKJ7/12S985ROuxGoetvWJ0PqdKRFazmzb+s5E3wf/9+/NKC6VRGhZdlD1u7tQugKlBtAC0AIOAAf21AFx4jvP4ywH0WyTYqoElYOpUAk1xmpz5vT5xeA/vDQ9a27qY4IhxvdS7Jq18NHPfvmzTzy17qyYokwv67rTgehjvDYu/OzCytkZy4TcMr9ukamtu5RUbZ1T2yUaT7/c99yVze+dGD8/MzujGdL6xguEcacy5WDzlam+Rx57eF7ZXyDM3XKKhDkLWV45++MPfez3ZRv9Wch64vxP/uPv/+6k7FKm4TB6F770rUf/9lufNgbmC4R1p1V32kxq8+Q6gNaedlcQaQEHgAPdhcaMwNHipAxxcjYpCDgvQDSXh2hDAvt+38ycua6LcvpIb6X1tf/yyz/+8CNPrhpTpgjV6+puW36U00b5Y/1KTaiZb+EQSWMsuxshLAuxbItlwxVkUu29vOSUmeOmqE9pk2z6RguEYacy5hDjjdDqFmUqYLZ+Sd8f/un7Bmdfz7ZtJ87/5N/8u9/+s0f/599+49Of+cIff/xzH5Kpr6bb5gJh2WnVnYoAtMDwARwADjwADnCsuBiWJRiqJmZ5h3/QNzlnqm1G+J5KF+F1YfIXJ0f/x0c/f/rygi4A6yOsPsLq3hXX09q3Fa6Nci9fm/JOMhQriJ7sQJ1LAQFl+TxEGgJZyZpt2RjwZBpFmE5UYhu2MZ1vuEDod0oOY1aE1olHHvujeeXlAmG6Vo6YDHdw7tSH/+y/DM2dybTFSOvfPvRbP37u65dGXzo38Nzf/+OjT37nc0u6qwXcfG2XHYGT1HQirTd8MQNYpwXiLeAAcGCfHbj+e1oitIw1bVjotTbDnFSfe/wbv/hfn/ry1TnLhrutD5O6MKnywrO6wrqP1Ib5XrehUz6vjvwGWjtOmMsIPMkLNYxxJyszG87pdbc9USkjJMqwMIF1Zg+ObHoHC4SuQO5IhCGLGK5MHX/ksT+cV74j3ujrlkMYcrD5jf5n/+RT/21O+XYGshw//+OH3v+vJxbPp9uGRFMrNww9/H/+649/9bUc0uHczmondXlSnaeUUs3rAFr73FcfgEtd4ABwYP8d2HtoacPCZogdkDk/9IkvfeQzXzlxQTIsswzLLGeuyr/x0/Pz+pImxO0BtDRhQR3hX+5X7mZxcedJoVBok/P6UL9Up/EkKiiJceIN2OuLi9W2EY13MEds7lS6DKy7MvVKF1o5wvBuObghVNp46udf+tijH9C4JtOQ8fj5Hz30/n8lWb6QRQw53JCFLY9/9dNf/Poj6bYhh+t2WvtmlljPEWvzagCtwztTC+AQOHCAHNgKrRlDVR0S9kCaEL/uw2Y2Es+/Lnni27/64rdfePzbLz71y0tDy4ENP6kJcXvQBnVI2AjzL13eFbRYgSM5zp/Mr5hD4TLaotjOj5aJ1yLX0zh1oZUltDvVZgbevDz18icf+4NZ5aUcoe+Uo0/DxlnVW4996U+ee+070fpGCtIdP//Dh97/25LlCxkRWvpky/C5xz/65Lc/nYZEzu20dm2WUOUIBYDW/l9gHqBhBTQVONA7B7ZASzJjqO0NLTq18JoQq/RgK/bWsr29bIfkTmQjwKhD/J614X5ASxzKcIZBaIYU0+by17+pG6E1kCU0WUK9I2nSsOay5Ngn/uKDU/K30shmGlF7Cyvnhp598ruP/PzlrxmCU1lcl4I1r1x4+qH3/9b44tlUWxepqd6ZPPYHH/m9Exd+lEMNu6hdnSWUORJAC4RZwAHgwIPhwFZoTRtq6yFhL7UR4jsSNkLvai9rXw/tPtJ69/p7W4r3myKtgQy+kSHWd6SNFLLRP3vsgx/9T49//ZGnnnviqee++J2f/9VXfvDIGwM/tcVmM4gmS2gS8Hrfxaf//fv+5V9/7eNPPfs33/355//iyYePnfmeNTaXw7VZYse1r2cIRZaQg0gLRFrAAeDAA+HAVmhN6evrQeEIKcTt+vbgbb/ELZHWsMZ7NYOv71hpbMORnh9fPTO8cHp44dTwwqnx1dNqz3Aa1mQwjYhDfD2NrZuik0Oy17objCyekmnfitTWrm+w49ozuDxDrMyrT4OJGLf9sq/H1+ANcAA40GsHtkJLoqsqA7wyIBwZsXsJrTSu2rFSmDqJaFKI9po0KWwjjW/cUCC2kbphG3UaX79hgx01IEXI08TyvPoUgBaAFnAAOLD/DtwIrdqRwVUXzHsELbWnP40rU8TaLqRMEaobdXOBN2+zmxqv77siQktz0hfTg3Va+99je30ZC8oHDjzgDmyF1uRmbc0vHCXtDbSG1J7LKUyRxOUHU0spfGEOQOsB78mgecCBI+LAVmhNbFYVPl7hE46M2GO7nfJ+2yvv3zzTsnegha8m8ZWDqYUULpvTnPSCSOuIDArgMIEDD7ID16H1VJ9kTFtZ8fJHScweQcv7Tkok1vLBlKwDrdcAtG57hfIg93DQNuDAIXNgC7SmxrTVDrGEFe8R0d5Aa1DtuZTElhLY4oEUPp/E5+c0rwJoAWgBB4AD++/AVmiNaqrLHn7ZIxwN8cse5thl1W7SON3hCmbL7cEutBYT2MLB1FwSmwPQ2v++eoezDfwLOHB0HNgKrRFNZdnNL7uFIyN2b6ElS2AHUbMdaPWBSAtwCzgAHNh/B26Alrqy6OIXXcJRkZt5cU8irQ3PxQQmi+PzB1OzSWx2TgOg9WDksDk6F9TgSIEDt3RgK7SG1JUFN7/gFo6G+AU38+I7vb09mKsE1PZhleetKDIXxWai2OyBUwybSqDT4Pbg/l9g3rIDgz8CB46aA1uhNbhRlbkEmfNoyMXLXPQL7+wyy/tth7LuM618JaZ3zsktvw40JmOYJIpNRbHpA6QYNhVDJa7CkEx71h83g8XFt/2+j9rAAY4XOLBfDmyB1vTgRnXewc87hCMhJz/vpF/oZaSFkVixmnX4tcubl+W285b0lUBzIgxPRlBJFJu8pi7Jpjo82/dXSVQkq9i2CDoZgiS+yqg+8vaS4ZzSNBpNe1pQk2TIbefqv9j2GXwEDgAHgAO9c2ALtKYG1mtzTuHoaN7J9BBaPINTeKVRDsU8GpNsVvHWjOq0TH9SG37TVRoINEdC0FgYHo+gIsM6r5MRdGKLRGz0RltrmehWEUUlUVQSQSbD8HiwPeatD9vy/UrXWanm1IzijaX1qxbXeiofgxCIYqltZyOAFgi/gAPAgb1zoAstR7L1zMmZK6rKrJ2ftQuzDv6wS5i183OO65EWQt0UQGwbmnfwkWTIFtTM5FNOr0W5KZtb7R+VnRxZeGls9diM+rjSfd6UvOyrjgWbk8HWRAgaj8BjUXQ0Imosgo7fRtuQc4ePtythXCwf61SEjIXhsRA0FmpNBBsT7uKoPvLOiu31SdVLYysvj0hPTC6cW1SObJoVgYi3VC0iOEIDaO3gVAC7AAeAA/fLgQ60EFeq8bNz8xdXcxIrN2UVpq38tJU7xJqy8lNWXmIhXry8borUalBPoMXwDEqgtWYtmU64vPZNk3JlfWZ+dVCyeHFcdnZ86fTk6quTiuPz2lcXjK8pXK9rg2eNyTdN6bds+XcchX5n6Yq7MuCuDfqbw/7WSKA1EoTGo4jkriRGTiLPgu1Rf2vE3xrxNYbd1QFXdcBRvOIoXLbmLplSb+ljF9T+syu21xYMJ2c2+iblfRMrJ8cWXh+XnZ9eurygGFvTyEw2TSDszRezLbhFUDjDM9vOPRBp7d015jbrwUfgwBF0oAstT7r24qXF84upCSsnsQrdMf0Qv0qswoSFG9Q0jw9qrNFKDYJ7EWmxAkuxZJdbmXwmFA06PQ6DWbehXVtVSmWrYzNL/ZOy82PSUyPSvlHZK6MLx4Zkzw8t/HJC/tKU8uVZzQmp4ZTMdHLNdVblObfuPacJvKmPXrpbxS7pohfV/gsqzzmV5/yq48yC6TWp4eS0+oREeXxs9dig7PnhxRdGF14ann9lVHpqTPaGZOHi3MrggkKiWF/S6NbNNqPb744lY4VyoQ23MBJjOPrmPgKgBaAFHAAO7J0DJEM1YTiUqbw5qT49ExwzMxNWYfIIaMzMnpMmzk4YnPFyA+4VtFieoVgSI9A23KrUK7lCNp6M+UM+p8duthk2Devr2lX5+sKKcm5RPi1dnphdHJmSDk5KL0/OXxyff3NMem5UemZ84fT4wqujshOjspeHpC/evYalL41Ij4/KTowvvDYmOzUqfX1Mem5cenFi7m2J9Oq0bHhucUy2Mrkkn1lRza+plzZ0a3qz1uowu33OYDiQSCfypXy9WYMxGKdw+lbEYgUWQGvvuuvNlwzgL8CBo+YAyZAQCidyxQWN+5Vhy5CRHLMK45ZDrjGrMGSkf3FJO7LqDKaKLQTqUaTVPZ1oliIYAiMxGIUa7Ua5Vs4Vc6lsKhKP+EN+t8/tcDssdovBpN80aNXadZVaodxYVqwvrirnV5QzywrJonxctjoiXR6cW74yu3RlZrH/PbTUP7t0ZW756vzykGxldFE+sbwmWVFOr6qkivUl5YZ8Xa3UbKp1Rp3JYrTYLQ63w+v3BCOBeDKWyWUK5UK1XmlCTRiFMBIjGfKWMVb36AC0ALSAA8CBvXOA5mgEg3PFotEdOTVuOLuYGTVzo2bhkMsi/FpRefbXqyvGYDJfhFD45vkF9/fyheEZmqMphiRoAiVQCIVacKvWrFVq5UKpkCtk09lUPBWPxMLBcMAf9PoCHo/P5fTY7W6r3WW22A0mm85o0erN6k3D+qZepb2jNg3rOsO6waIxWjZNNr3VYbK7LA63zeV1eHwub8DjD/mDkWA0HkmkE+lsKlfMFSvFSr3SaNXbcBvGYIxACZqgWeoOuALQ2ruOen9PR1AacODgOsCIM7OxSq3siSSGlm3HruqHdeiYmR87xNyyCEMGsm/CeXFGb/LGCpXSLSfF9e47ZcR7hhTJkDiFowSK4AiMQm2k3YSa9Va92qhWauVSpVgoF/KlfL6Uy+bT6WwykY4n0vFYMhqJhcOxUDgavIMisXA0HoklY4l0PJlJZHKpbCGbK+bypXyxUixXS5V6pdas1Vv1JtSEkDaCIQiOYCRG0ATJkBRL3Tzh4naGgEgLoAs4ABzYOwcYniEZstluxFKZNZPvjTHNKYl3SEeMmvgRk3AYxQ8bqDfmY6dGNct6byCeqjXrt5wUd7sx+j7+vRt+0RxNdxhGduIwnMIxEsMIFMURBIMRDIY6SGvBrWa72Ww3G616o1WvN2u3U3eDZrvR3b4Ft9pIG0ahbmkYgYrlkxhB4SKiOuGU2AaOvntQbTUBQGvvuutW38F74MCRdYBmKRiDC+WiMxCZUdlODmtenwleUSPDRm7IKAwZheGDr86B8MNGbmATf2M+/trw5viqyeINZQr5NtLu6QOteziveIbZoi7MaJaiOuoijaAJnMTuRteZ1I2cuoWIt/u2VCFS6qYp7PfQ4E4KWQAtAC3gAHBgTx1gOBqn8Ga7Ec+kDE7f+Irx5NBG36jr/EqlX8cMGPiDzq0hozBg4K/qmF8rGq9J/H2D6qGFTa3VHUkmas0aTmI7izDudXC/P9vzDMPRd6n7U+N7JTcH0NrT7ro3XyqoBTjwgDtAsxSKI+VaJRyP6SzOqVXdmRHVLy9vPj/kPS3NXd5AB/T0gJ45oOrXEGcWyy+OBp+/bHhtUDW2qNGYrIFIuFQtwSgs5iXadbTxgH+/PW0egBaAFnAAOLAPDlAsBaFQqVIMRSMGm0umMr4zreq7svL8W6s/Obv6ozPyZ86sHUT98Izin87Kf/Hm6ol++aVJ5axcu2m2BcLBfCkPoRBJE4BYu0QagNY+dNddfmdgd+DAIXCgOyMDQqFipRiNx2xut2rTOLuiHphVXRhfOz0kPzmoOIg6PaQ4O6q4PK2cWlYrNDqzwxGKhvOlvJiUiCbecz73Ifhme30IAFoAWsAB4MD+ONDlFozBlXolmUn5QwGLw6E2WFY0eplyc06xOSvXHCzNybXza5tLG3qV3my02b0BbyIVL9fKENIGxLpfMAPQ2p/uer++P1AOcOBAO9BdQoQSaBNqlqqlVDYVikXcAb/d47Y6nWaH/WDJ4nTa3C633xeIhJOZVKFcaLTqCI7cOcXDgf4G977xAFoAWsAB4MA+O0BzNEETCI40oWatUe2ucs0Wsplc+mCpu6K2WC5UukmJOjn0bv5FqL0f6A9TjQBa+9xdD9PJBI4FOLBjB5jOildxVRCFozgCd5a4Qkj7gAmFIBRCcQSnxFwPYqIHjgYzL3Z8Vtxyx/8P37QpR3ASZr8AAAAASUVORK5CYII=;" vertex="1" parent="1">
          <mxGeometry x="260" y="480" width="572" height="267" as="geometry" />
        </mxCell>
      </root>
    </mxGraphModel>
  </diagram>
</mxfile>
